<svg width="62" height="62" viewBox="0 0 62 62" fill="none" xmlns="http://www.w3.org/2000/svg">
<g clip-path="url(#clip0_9132_1069)">
<path d="M34.0094 8.56746L34.7053 4.17518C28.5517 3.20027 22.5937 6.75999 20.5344 12.6395L15.8685 25.9548L10.0147 25.0274L9.31881 29.4197L14.3743 30.2206L9.97549 42.7735C8.62742 46.6233 4.72583 48.9534 0.697071 48.3151L0.00120848 52.7074C6.1548 53.6823 12.1128 50.1226 14.1721 44.243L18.8379 30.9278L23.5937 31.6812L24.2896 27.2889L20.3321 26.662L24.731 14.1091C26.0791 10.2593 29.9806 7.92919 34.0094 8.56746Z" fill="white"/>
<path d="M34.8128 17.6994L33.2646 16.1032C33.0801 16.2823 28.7254 20.5983 27.2349 30.0065C25.7444 39.4146 28.5517 44.8654 28.6718 45.0927L32.6024 43.0134C32.5809 42.9721 30.3861 38.5357 31.6272 30.7023C32.8678 22.8711 36.3381 19.319 36.373 19.2828L34.8128 17.6994Z" fill="white"/>
<path d="M51.5139 21.6969C51.5365 21.7384 53.7313 26.1748 52.4902 34.0082C51.2495 41.8394 47.7793 45.3915 47.7444 45.4278L49.3046 47.0111L50.8528 48.6073C51.039 48.4274 55.392 44.1122 56.8825 34.704C58.373 25.2959 55.5656 19.8452 55.4456 19.6178L51.5139 21.6969Z" fill="white"/>
<path d="M45.1986 25.9005L42.0121 29.0842L39.9656 25.0715L36.0046 27.0931L38.7049 32.3873L34.5004 36.5876L37.6426 39.7346L40.8291 36.5509L42.8756 40.5636L46.8366 38.542L44.1363 33.2478L48.3408 29.0475L45.1986 25.9005Z" fill="white"/>
</g>
<defs>
<clipPath id="clip0_9132_1069">
<rect width="53.3648" height="53.3648" fill="white" transform="translate(8.35156) rotate(9.00246)"/>
</clipPath>
</defs>
</svg>
