<svg width="52" height="52" viewBox="0 0 52 52" fill="none" xmlns="http://www.w3.org/2000/svg">
<path fill-rule="evenodd" clip-rule="evenodd" d="M7.58594 10.8337C7.58594 7.84212 10.0111 5.41699 13.0026 5.41699H39.0026C41.9941 5.41699 44.4193 7.84212 44.4193 10.8337V23.8337C44.4193 26.8252 41.9941 29.2503 39.0026 29.2503H13.0026C10.0111 29.2503 7.58594 26.8252 7.58594 23.8337V10.8337ZM24.5126 12.3291C23.8035 11.7616 22.7526 12.2666 22.7526 13.175V21.4923C22.7526 22.4006 23.8035 22.9057 24.5126 22.3382L29.7111 18.1796C30.2532 17.7459 30.2532 16.9214 29.7111 16.4877L24.5126 12.3291Z" fill="#00A9EF"/>
<path d="M30.3308 36.8333C30.3308 39.2266 28.3907 41.1667 25.9974 41.1667C23.6041 41.1667 21.6641 39.2266 21.6641 36.8333C21.6641 34.44 23.6041 32.5 25.9974 32.5C28.3907 32.5 30.3308 34.44 30.3308 36.8333Z" fill="#00A9EF"/>
<path fill-rule="evenodd" clip-rule="evenodd" d="M25.9974 41.1667C28.3907 41.1667 30.3308 39.2266 30.3308 36.8333C30.3308 34.44 28.3907 32.5 25.9974 32.5C23.6041 32.5 21.6641 34.44 21.6641 36.8333C21.6641 39.2266 23.6041 41.1667 25.9974 41.1667Z" fill="#00A9EF"/>
<path d="M45.5026 36.8333C45.5026 39.2266 43.5626 41.1667 41.1693 41.1667C38.776 41.1667 36.8359 39.2266 36.8359 36.8333C36.8359 34.44 38.776 32.5 41.1693 32.5C43.5626 32.5 45.5026 34.44 45.5026 36.8333Z" fill="#00A9EF"/>
<path fill-rule="evenodd" clip-rule="evenodd" d="M41.1693 41.1667C43.5626 41.1667 45.5026 39.2266 45.5026 36.8333C45.5026 34.44 43.5626 32.5 41.1693 32.5C38.776 32.5 36.8359 34.44 36.8359 36.8333C36.8359 39.2266 38.776 41.1667 41.1693 41.1667Z" fill="#00A9EF"/>
<path d="M15.1667 36.8333C15.1667 39.2266 13.2266 41.1667 10.8333 41.1667C8.4401 41.1667 6.5 39.2266 6.5 36.8333C6.5 34.44 8.4401 32.5 10.8333 32.5C13.2266 32.5 15.1667 34.44 15.1667 36.8333Z" fill="#00A9EF"/>
<path fill-rule="evenodd" clip-rule="evenodd" d="M10.8333 41.1667C13.2266 41.1667 15.1667 39.2266 15.1667 36.8333C15.1667 34.44 13.2266 32.5 10.8333 32.5C8.4401 32.5 6.5 34.44 6.5 36.8333C6.5 39.2266 8.4401 41.1667 10.8333 41.1667Z" fill="#00A9EF"/>
<path fill-rule="evenodd" clip-rule="evenodd" d="M15.1647 47.667C16.3613 47.667 17.3667 46.6703 16.9752 45.5395C16.0941 42.9946 13.6762 41.167 10.8314 41.167C7.9866 41.167 5.56865 42.9946 4.68751 45.5395C4.29603 46.6703 5.30143 47.667 6.49804 47.667H15.1647Z" fill="#00A9EF"/>
<path fill-rule="evenodd" clip-rule="evenodd" d="M30.3366 47.667C31.5333 47.667 32.5386 46.6703 32.1471 45.5395C31.2659 42.9946 28.8481 41.167 26.0033 41.167C23.1584 41.167 20.7405 42.9946 19.8594 45.5395C19.4679 46.6703 20.4733 47.667 21.6699 47.667H30.3366Z" fill="#00A9EF"/>
<path fill-rule="evenodd" clip-rule="evenodd" d="M45.5006 47.667C46.6972 47.667 47.7026 46.6703 47.3111 45.5395C46.4299 42.9946 44.0121 41.167 41.1673 41.167C38.3224 41.167 35.9044 42.9946 35.0235 45.5395C34.6319 46.6703 35.6373 47.667 36.8339 47.667H45.5006Z" fill="#00A9EF"/>
</svg>
