<svg width="72" height="72" viewBox="0 0 72 72" fill="none" xmlns="http://www.w3.org/2000/svg">
<g filter="url(#filter0_d_250_4801)">
<circle cx="36" cy="32" r="32" fill="white"/>
</g>
<g clip-path="url(#clip0_250_4801)">
<path d="M44.4544 40.9602C39.9625 37.448 43.1326 23.0014 43.1326 23.0014C43.1326 23.0014 48.0496 23.0014 48.6226 23.0014C49.1956 23.0014 51.4419 22.6411 51.4419 19.9512C51.4419 16.6423 48.6969 16.8456 48.6969 16.8456C48.6969 16.8456 33.6497 16.8456 28.4833 16.8456C25.1653 16.8456 22.1706 20.6445 20.4516 23.3616C19.5365 24.8128 20.054 25.2194 21.6255 24.5355C27.1343 22.1232 28.687 22.992 28.687 22.992C29.0751 24.8497 29.2045 33.233 27.7907 36.5416C26.358 39.6566 23.7148 43.6031 27.5964 45.923C30.6281 47.642 33.8073 44.1112 33.4931 38.1033C33.3452 34.9238 33.0955 23.001 33.0955 23.001H38.1608C38.0032 24.8588 37.1442 34.3417 38.0408 39.9615C38.9741 49.3428 49.1687 47.522 51.0726 42.2081C51.5437 40.7384 51.4332 39.6106 51.0816 38.76C50.4344 37.1798 49.3529 37.0968 49.4736 37.8358C49.5478 38.307 49.5015 38.7691 49.4272 39.1855C49.205 40.4703 46.5803 42.4847 44.4544 40.9602Z" fill="#27C690"/>
</g>
<defs>
<filter id="filter0_d_250_4801" x="0" y="0" width="72" height="72" filterUnits="userSpaceOnUse" color-interpolation-filters="sRGB">
<feFlood flood-opacity="0" result="BackgroundImageFix"/>
<feColorMatrix in="SourceAlpha" type="matrix" values="0 0 0 0 0 0 0 0 0 0 0 0 0 0 0 0 0 0 127 0" result="hardAlpha"/>
<feOffset dy="4"/>
<feGaussianBlur stdDeviation="2"/>
<feComposite in2="hardAlpha" operator="out"/>
<feColorMatrix type="matrix" values="0 0 0 0 0 0 0 0 0 0 0 0 0 0 0 0 0 0 0.25 0"/>
<feBlend mode="normal" in2="BackgroundImageFix" result="effect1_dropShadow_250_4801"/>
<feBlend mode="normal" in="SourceGraphic" in2="effect1_dropShadow_250_4801" result="shape"/>
</filter>
<clipPath id="clip0_250_4801">
<rect width="31.442" height="31.442" fill="white" transform="translate(20 16)"/>
</clipPath>
</defs>
</svg>
