<svg width="72" height="72" viewBox="0 0 72 72" fill="none" xmlns="http://www.w3.org/2000/svg">
<g filter="url(#filter0_d_250_4802)">
<circle cx="36" cy="32" r="32" fill="white"/>
</g>
<path d="M53.2103 51.5044C53.0113 51.8119 52.6785 51.9928 52.3167 52.0001H49.9034C49.4765 52.0001 49.0857 51.7468 48.9121 51.356L48.2427 49.67C47.8954 48.8885 47.1175 48.382 46.26 48.382H26.679C25.8505 48.382 25.1051 48.8415 24.7361 49.5832L23.828 51.3995C23.6398 51.7685 23.2708 52.0001 22.8547 52.0001H20.4668C20.0905 52.0001 19.7504 51.8119 19.5478 51.4935C19.3488 51.1787 19.3235 50.788 19.4863 50.4479L21.6643 45.8493C22.0804 44.9701 22.9813 44.4021 23.9546 44.4021H49.0278C49.0459 44.4021 49.0676 44.4021 49.0857 44.4057C50.0409 44.4238 50.902 44.9846 51.3145 45.8493C51.3253 45.8674 51.3362 45.8855 51.3434 45.9072L53.2935 50.4732C53.4419 50.8097 53.4129 51.1968 53.2103 51.5044Z" fill="#C5C9D2"/>
<path d="M50.8801 52H49.9032C49.4763 52 49.0855 51.7467 48.9118 51.356L48.2425 49.67C47.8952 48.8885 47.1173 48.3819 46.2598 48.3819H26.6788C25.8502 48.3819 25.1049 48.8414 24.7359 49.5831L23.8277 51.3994C23.6396 51.7684 23.2706 52 22.8545 52H21.6895L23.4225 48.5339C23.9109 47.5534 24.9132 46.9347 26.0094 46.9347H46.864C48.0471 46.9347 49.1144 47.6547 49.5522 48.7546L50.8801 52Z" fill="#8C9096"/>
<path d="M47.6307 43.4722C47.0446 44.507 45.9881 45.1257 44.7978 45.1257H27.8869C26.6965 45.1257 25.6401 44.507 25.0539 43.4722C24.4678 42.441 24.4823 41.2145 25.0937 40.1942L32.6989 27.5201C33.0716 26.9014 33.267 26.1923 33.267 25.4723V16.1811C32.4674 16.1811 31.8197 15.5334 31.8197 14.7338C31.8197 13.9343 32.4674 13.2866 33.267 13.2866H39.4177C40.2173 13.2866 40.8649 13.9343 40.8649 14.7338C40.8649 15.5334 40.2173 16.1811 39.4177 16.1811V25.4723C39.4177 26.1923 39.6131 26.9014 39.9857 27.5201L47.5909 40.1942C48.2024 41.2145 48.2168 42.441 47.6307 43.4722Z" fill="#A8F0FF"/>
<path d="M47.6309 43.4722C47.0448 44.507 45.9883 45.1257 44.798 45.1257H41.5888C46.2923 45.1257 46.6541 42.9548 45.2068 40.4222C43.7527 37.8772 39.9664 31.4157 38.3538 28.6663C37.8654 27.8338 37.6089 26.8877 37.6089 25.9224V15.8193C39.4179 15.8193 39.0561 13.2866 37.6089 13.2866H39.3561C40.1122 13.2866 40.787 13.8395 40.8583 14.5924C40.9404 15.4557 40.2642 16.1811 39.4179 16.1811V25.4723C39.4179 26.1923 39.6133 26.9014 39.986 27.5201L47.5911 40.1942C48.2026 41.2145 48.2171 42.441 47.6309 43.4722Z" fill="#00C1DB"/>
<path d="M19.5185 19.6696C20.5176 19.6696 21.3275 18.8597 21.3275 17.8606C21.3275 16.8614 20.5176 16.0515 19.5185 16.0515C18.5194 16.0515 17.7095 16.8614 17.7095 17.8606C17.7095 18.8597 18.5194 19.6696 19.5185 19.6696Z" fill="#FEEE00"/>
<path d="M52.4428 39.6986C53.8416 39.6986 54.9755 38.5647 54.9755 37.166C54.9755 35.7672 53.8416 34.6333 52.4428 34.6333C51.0441 34.6333 49.9102 35.7672 49.9102 37.166C49.9102 38.5647 51.0441 39.6986 52.4428 39.6986Z" fill="#FEEE00"/>
<path d="M46.4066 40.9523L40.4534 30.8318C40.3887 30.7215 40.2696 30.6534 40.1415 30.6534H32.5436C32.4152 30.6534 32.2965 30.7215 32.2317 30.8318L26.2785 40.9523C25.9457 41.5185 25.9413 42.1976 26.2677 42.7678C26.594 43.338 27.1809 43.6785 27.8379 43.6785H44.8472C45.5043 43.6785 46.0911 43.338 46.4178 42.7675C46.7438 42.1973 46.7395 41.5185 46.4066 40.9523Z" fill="#A700F4"/>
<path d="M32.9052 38.9749C33.9043 38.9749 34.7143 38.165 34.7143 37.1658C34.7143 36.1667 33.9043 35.3568 32.9052 35.3568C31.9061 35.3568 31.0962 36.1667 31.0962 37.1658C31.0962 38.165 31.9061 38.9749 32.9052 38.9749Z" fill="#550082"/>
<path d="M38.3324 41.1457C38.3324 41.9453 37.6848 42.5929 36.8852 42.5929C36.0856 42.5929 35.438 41.9453 35.438 41.1457C35.438 40.7441 35.6044 40.3787 35.8685 40.1146C36.0856 39.9047 36.3642 39.76 36.6754 39.7166C36.7441 39.7021 36.8129 39.6985 36.8852 39.6985C37.6848 39.6985 38.3324 40.3461 38.3324 41.1457Z" fill="#550082"/>
<path d="M41.5887 35.8996C41.5887 37.1949 40.5323 38.2513 39.237 38.2513C37.9417 38.2513 36.8853 37.1949 36.8853 35.8996C36.8853 35.3424 37.0806 34.8286 37.4063 34.427C37.5112 34.2932 37.6306 34.1738 37.7644 34.0689C38.1661 33.7432 38.6798 33.5479 39.237 33.5479C40.5323 33.5479 41.5887 34.6043 41.5887 35.8996Z" fill="#550082"/>
<path d="M48.749 21.0994C48.5489 21.0994 48.3872 20.9377 48.3872 20.7376V19.6124C48.3872 19.4123 48.5489 19.2506 48.749 19.2506C48.9491 19.2506 49.1108 19.4123 49.1108 19.6124V20.7376C49.1108 20.9374 48.9491 21.0994 48.749 21.0994Z" fill="#003DBA"/>
<path d="M48.749 18.4474C48.5489 18.4474 48.3872 18.2857 48.3872 18.0856V16.9636C48.3872 16.7635 48.5489 16.6018 48.749 16.6018C48.9491 16.6018 49.1108 16.7635 49.1108 16.9636V18.0856C49.1108 18.2853 48.9491 18.4474 48.749 18.4474Z" fill="#003DBA"/>
<path d="M47.9856 19.2106H46.8603C46.6603 19.2106 46.4985 19.0488 46.4985 18.8487C46.4985 18.6487 46.6603 18.4869 46.8603 18.4869H47.9852C48.1853 18.4869 48.347 18.6487 48.347 18.8487C48.3474 19.0488 48.1853 19.2106 47.9856 19.2106Z" fill="#003DBA"/>
<path d="M50.6338 19.2106H49.5122C49.3121 19.2106 49.1504 19.0488 49.1504 18.8487C49.1504 18.6487 49.3121 18.4869 49.5122 18.4869H50.6338C50.8339 18.4869 50.9956 18.6487 50.9956 18.8487C50.9956 19.0488 50.8339 19.2106 50.6338 19.2106Z" fill="#003DBA"/>
<path d="M27.2754 15.4973C27.0753 15.4973 26.9136 15.3355 26.9136 15.1355V14.0102C26.9136 13.8102 27.0753 13.6484 27.2754 13.6484C27.4755 13.6484 27.6372 13.8102 27.6372 14.0102V15.1355C27.6372 15.3355 27.4755 15.4973 27.2754 15.4973Z" fill="#003DBA"/>
<path d="M27.2754 12.8452C27.0753 12.8452 26.9136 12.6835 26.9136 12.4834V11.3618C26.9136 11.1617 27.0753 11 27.2754 11C27.4755 11 27.6372 11.1617 27.6372 11.3618V12.4838C27.6372 12.6835 27.4755 12.8452 27.2754 12.8452Z" fill="#003DBA"/>
<path d="M26.5119 13.6086H25.3867C25.1866 13.6086 25.0249 13.4469 25.0249 13.2468C25.0249 13.0467 25.1866 12.885 25.3867 12.885H26.5119C26.712 12.885 26.8737 13.0467 26.8737 13.2468C26.8737 13.4465 26.712 13.6086 26.5119 13.6086Z" fill="#003DBA"/>
<path d="M29.1607 13.6086H28.0391C27.839 13.6086 27.6772 13.4469 27.6772 13.2468C27.6772 13.0467 27.839 12.885 28.0391 12.885H29.161C29.3611 12.885 29.5228 13.0467 29.5228 13.2468C29.5225 13.4465 29.3607 13.6086 29.1607 13.6086Z" fill="#003DBA"/>
<path d="M18.2744 40.462C18.0743 40.462 17.9126 40.3003 17.9126 40.1002V38.975C17.9126 38.7749 18.0743 38.6132 18.2744 38.6132C18.4745 38.6132 18.6362 38.7749 18.6362 38.975V40.1002C18.6362 40.3003 18.4745 40.462 18.2744 40.462Z" fill="#003DBA"/>
<path d="M18.2744 37.8099C18.0743 37.8099 17.9126 37.6482 17.9126 37.4481V36.3265C17.9126 36.1264 18.0743 35.9647 18.2744 35.9647C18.4745 35.9647 18.6362 36.1264 18.6362 36.3265V37.4485C18.6362 37.6482 18.4745 37.8099 18.2744 37.8099Z" fill="#003DBA"/>
<path d="M17.5114 38.5733H16.3862C16.1861 38.5733 16.0244 38.4116 16.0244 38.2115C16.0244 38.0115 16.1861 37.8497 16.3862 37.8497H17.5114C17.7115 37.8497 17.8732 38.0115 17.8732 38.2115C17.8732 38.4113 17.7115 38.5733 17.5114 38.5733Z" fill="#003DBA"/>
<path d="M20.1592 38.5733H19.0376C18.8375 38.5733 18.6758 38.4116 18.6758 38.2115C18.6758 38.0115 18.8375 37.8497 19.0376 37.8497H20.1592C20.3593 37.8497 20.521 38.0115 20.521 38.2115C20.521 38.4113 20.3593 38.5733 20.1592 38.5733Z" fill="#003DBA"/>
<path d="M30.3024 27.1106C30.1761 27.1106 30.0538 27.0447 29.9876 26.9275L28.1449 23.6825C28.0462 23.5088 28.1073 23.2877 28.2806 23.1893C28.455 23.0898 28.6757 23.1517 28.7737 23.325L30.6164 26.57C30.7152 26.7437 30.6541 26.9648 30.4808 27.0632C30.4243 27.0954 30.3628 27.1106 30.3024 27.1106Z" fill="#003DBA"/>
<path d="M46.4189 42.7667C46.0896 43.3384 45.5035 43.6785 44.8486 43.6785H41.5924C42.2472 43.6785 42.8334 43.3384 43.1626 42.7667C43.4882 42.1987 43.4846 41.5185 43.1518 40.9505L37.1964 30.8307C37.1313 30.7222 37.0119 30.6534 36.8853 30.6534H40.1415C40.2682 30.6534 40.3875 30.7222 40.4527 30.8307L46.408 40.9505C46.7409 41.5185 46.7445 42.1987 46.4189 42.7667Z" fill="#550082"/>
<path d="M28.1864 30.5574C28.1712 30.5574 28.1557 30.5564 28.1401 30.5546L24.3965 30.0762C24.1982 30.0509 24.0582 29.8697 24.0835 29.6714C24.1089 29.4735 24.2908 29.3356 24.4884 29.3584L28.232 29.8367C28.4303 29.8621 28.5703 30.0433 28.545 30.2416C28.5218 30.4243 28.3659 30.5574 28.1864 30.5574Z" fill="#003DBA"/>
<path d="M25.8959 26.836C25.8366 26.836 25.7765 26.8216 25.7212 26.7908L21.0651 24.2108C20.8903 24.1138 20.827 23.8934 20.9236 23.7191C21.0206 23.5439 21.2413 23.4813 21.4153 23.5776L26.0714 26.1576C26.2462 26.2546 26.3095 26.4749 26.2129 26.6493C26.1467 26.7691 26.0229 26.836 25.8959 26.836Z" fill="#003DBA"/>
<path d="M29.1675 28.7542C29.1053 28.7542 29.042 28.7383 28.9845 28.7043L27.0701 27.5794C26.8979 27.4781 26.8404 27.2563 26.9413 27.0841C27.0426 26.9119 27.2648 26.854 27.4367 26.9557L29.351 28.0805C29.5228 28.1818 29.5807 28.4036 29.4794 28.5758C29.4125 28.6902 29.2916 28.7542 29.1675 28.7542Z" fill="#003DBA"/>
<path d="M42.5864 27.1106C42.526 27.1106 42.4645 27.0954 42.408 27.0632C42.2347 26.9648 42.1736 26.7437 42.2724 26.57L44.1151 23.325C44.2135 23.1517 44.4338 23.0898 44.6082 23.1893C44.7815 23.2881 44.8426 23.5088 44.7439 23.6825L42.9012 26.9275C42.8346 27.0447 42.7123 27.1106 42.5864 27.1106Z" fill="#003DBA"/>
<path d="M44.7018 30.5575C44.5223 30.5575 44.3664 30.4243 44.3432 30.2416C44.3183 30.0433 44.4579 29.8621 44.6562 29.8367L48.3998 29.3584C48.5992 29.3356 48.7793 29.4731 48.8047 29.6714C48.8296 29.8697 48.69 30.0509 48.4917 30.0762L44.7481 30.5546C44.7325 30.5564 44.717 30.5575 44.7018 30.5575Z" fill="#003DBA"/>
<path d="M32.5434 38.6132C33.5425 38.6132 34.3524 37.8033 34.3524 36.8042C34.3524 35.8051 33.5425 34.9951 32.5434 34.9951C31.5443 34.9951 30.7344 35.8051 30.7344 36.8042C30.7344 37.8033 31.5443 38.6132 32.5434 38.6132Z" fill="#FBFAD4"/>
<path d="M37.9706 40.784C37.9706 41.5836 37.323 42.2313 36.5234 42.2313C35.7238 42.2313 35.0762 41.5836 35.0762 40.784C35.0762 40.3824 35.2426 40.017 35.5067 39.7529C35.7238 39.543 36.0024 39.3983 36.3136 39.3549C36.3823 39.3404 36.451 39.3368 36.5234 39.3368C37.323 39.3368 37.9706 39.9844 37.9706 40.784Z" fill="#FBFAD4"/>
<path d="M41.2269 35.5378C41.2269 36.8331 40.1705 37.8895 38.8752 37.8895C37.5799 37.8895 36.5234 36.8331 36.5234 35.5378C36.5234 34.9806 36.7188 34.4668 37.0444 34.0652C37.1494 33.9314 37.2688 33.812 37.4026 33.707C37.8042 33.3814 38.318 33.186 38.8752 33.186C40.1705 33.186 41.2269 34.2425 41.2269 35.5378Z" fill="#FBFAD4"/>
<path d="M46.9923 26.8359C46.8653 26.8359 46.7415 26.7686 46.6753 26.6492C46.5784 26.4748 46.6417 26.2541 46.8168 26.1575L51.4729 23.5775C51.6469 23.4809 51.868 23.5434 51.9646 23.7189C52.0615 23.8933 51.9982 24.114 51.8231 24.2106L47.167 26.7907C47.112 26.8214 47.052 26.8359 46.9923 26.8359Z" fill="#003DBA"/>
<path d="M43.7214 28.7542C43.5973 28.7542 43.4764 28.6902 43.4091 28.5759C43.3082 28.4033 43.3657 28.1818 43.5376 28.0805L45.4519 26.9557C45.6245 26.8544 45.8459 26.9123 45.9472 27.0841C46.0482 27.2567 45.9906 27.4781 45.8188 27.5794L43.9044 28.7043C43.8466 28.7383 43.7832 28.7542 43.7214 28.7542Z" fill="#003DBA"/>
<path d="M42.1738 41.3296C42.8721 41.3296 42.8735 40.2441 42.1738 40.2441C41.4752 40.2441 41.4741 41.3296 42.1738 41.3296Z" fill="#FBFAD4"/>
<path d="M34.2143 34.4552C34.9126 34.4552 34.9141 33.3698 34.2143 33.3698C33.5157 33.3698 33.5146 34.4552 34.2143 34.4552Z" fill="#FBFAD4"/>
<path d="M32.0429 41.6914C32.7412 41.6914 32.7427 40.606 32.0429 40.606C31.3443 40.606 31.3432 41.6914 32.0429 41.6914Z" fill="#FBFAD4"/>
<path d="M35.2993 29.0282C35.9976 29.0282 35.999 27.9427 35.2993 27.9427C34.6006 27.9427 34.5996 29.0282 35.2993 29.0282Z" fill="#FBFAD4"/>
<path d="M36.1615 18.7419C36.8598 18.7419 36.8612 17.6565 36.1615 17.6565C35.4632 17.6565 35.4617 18.7419 36.1615 18.7419Z" fill="#FBFAD4"/>
<path d="M37.4702 23.2392C38.1685 23.2392 38.1699 22.1538 37.4702 22.1538C36.7715 22.1538 36.7705 23.2392 37.4702 23.2392Z" fill="#FBFAD4"/>
<path d="M35.0761 16.181H34.3525C34.1525 16.181 33.9907 16.0193 33.9907 15.8192C33.9907 15.6191 34.1525 15.4574 34.3525 15.4574H35.0761C35.2762 15.4574 35.438 15.6191 35.438 15.8192C35.438 16.0193 35.2762 16.181 35.0761 16.181Z" fill="#00C1DB"/>
<path d="M39.0561 16.181H36.8852C36.6852 16.181 36.5234 16.0193 36.5234 15.8192C36.5234 15.6191 36.6852 15.4574 36.8852 15.4574H39.0561C39.2562 15.4574 39.4179 15.6191 39.4179 15.8192C39.4179 16.0193 39.2562 16.181 39.0561 16.181Z" fill="#00C1DB"/>
<path d="M34.3528 36.8041C34.3528 37.8027 33.5423 38.6132 32.5438 38.6132C31.7623 38.6132 31.0929 38.1139 30.8433 37.4192C31.035 37.4916 31.2413 37.5277 31.4583 37.5277C32.4569 37.5277 33.2674 36.7173 33.2674 35.7187C33.2674 35.5016 33.2312 35.2954 33.1588 35.1036C33.8535 35.3533 34.3528 36.0226 34.3528 36.8041Z" fill="#DDD685"/>
<path d="M37.9706 40.784C37.9706 41.5836 37.3229 42.2312 36.5234 42.2312C35.8359 42.2312 35.2606 41.7536 35.1123 41.1096C36.5234 41.8694 37.6088 40.4222 36.849 39.3729C37.493 39.5213 37.9706 40.0965 37.9706 40.784Z" fill="#DDD685"/>
<path d="M41.2269 35.5378C41.2269 36.833 40.1704 37.8895 38.8752 37.8895C37.9489 37.8895 37.1421 37.3468 36.7622 36.5653C37.0734 36.7173 37.4207 36.8041 37.7897 36.8041C39.085 36.8041 40.1415 35.7476 40.1415 34.4523C40.1415 34.0833 40.0547 33.736 39.9027 33.4248C40.6842 33.8047 41.2269 34.6115 41.2269 35.5378Z" fill="#DDD685"/>
<path d="M21.3275 17.8599C21.3275 18.8585 20.517 19.6689 19.5184 19.6689C18.9685 19.6689 18.4764 19.4229 18.1436 19.0358C18.2376 19.0538 18.3353 19.0611 18.433 19.0611C19.4316 19.0611 20.242 18.247 20.242 17.252C20.242 16.8034 20.0792 16.3909 19.8079 16.0762C20.669 16.2137 21.3275 16.959 21.3275 17.8599Z" fill="#FFB403"/>
<path d="M54.9756 37.1659C54.9756 38.5624 53.8395 39.6985 52.4429 39.6985C51.5275 39.6985 50.7243 39.2101 50.2793 38.4792C50.6049 38.6384 50.974 38.7252 51.3575 38.7252C52.7541 38.7252 53.8901 37.5892 53.8901 36.1926C53.8901 35.7114 53.7563 35.2591 53.5175 34.8756C54.3786 35.2772 54.9756 36.1528 54.9756 37.1659Z" fill="#FFB403"/>
<defs>
<filter id="filter0_d_250_4802" x="0" y="0" width="72" height="72" filterUnits="userSpaceOnUse" color-interpolation-filters="sRGB">
<feFlood flood-opacity="0" result="BackgroundImageFix"/>
<feColorMatrix in="SourceAlpha" type="matrix" values="0 0 0 0 0 0 0 0 0 0 0 0 0 0 0 0 0 0 127 0" result="hardAlpha"/>
<feOffset dy="4"/>
<feGaussianBlur stdDeviation="2"/>
<feComposite in2="hardAlpha" operator="out"/>
<feColorMatrix type="matrix" values="0 0 0 0 0 0 0 0 0 0 0 0 0 0 0 0 0 0 0.25 0"/>
<feBlend mode="normal" in2="BackgroundImageFix" result="effect1_dropShadow_250_4802"/>
<feBlend mode="normal" in="SourceGraphic" in2="effect1_dropShadow_250_4802" result="shape"/>
</filter>
</defs>
</svg>
