<svg width="72" height="72" viewBox="0 0 72 72" fill="none" xmlns="http://www.w3.org/2000/svg">
<g filter="url(#filter0_d_250_4808)">
<circle cx="36" cy="32" r="32" fill="white"/>
</g>
<g clip-path="url(#clip0_250_4808)">
<path d="M23.0899 46.4326C20.1423 46.4326 18.083 45.5502 17.1967 43.8715V43.8714C16.1107 41.8147 17.0051 38.978 19.7148 35.8837C22.1856 33.0623 25.9375 30.246 30.2795 27.9536C34.6216 25.6611 39.0634 24.1514 42.7867 23.7024C46.8703 23.21 49.7171 24.0716 50.8029 26.1284C51.8887 28.1851 50.9945 31.0218 48.2847 34.1161C45.814 36.9374 42.0621 39.7538 37.7201 42.0463C33.378 44.3388 28.9362 45.8485 25.2129 46.2974C24.4625 46.3879 23.7536 46.4326 23.0899 46.4326ZM19.1751 42.8269C19.7797 43.9719 21.9366 44.439 24.9451 44.0762C28.4036 43.6593 32.5695 42.2357 36.6755 40.0679C40.7816 37.9 44.3067 35.2628 46.6017 32.6422C48.5981 30.3626 49.429 28.318 48.8245 27.173C48.22 26.028 46.0632 25.5609 43.0545 25.9237C39.5961 26.3407 35.4302 27.7642 31.3241 29.9321C27.2181 32.0999 23.6929 34.7371 21.3979 37.3577C19.4016 39.6374 18.5707 41.6819 19.1751 42.8269Z" fill="#FF8856"/>
<path d="M42.787 23.7026C40.1227 24.0237 37.0905 24.8884 33.9902 26.1941V28.6323C37.2001 27.1955 40.3447 26.2505 43.0548 25.9237C46.0634 25.561 48.2203 26.028 48.8248 27.1729C49.4292 28.318 48.5982 30.3626 46.6019 32.6422C44.307 35.2628 40.7819 37.9 36.6758 40.0679C35.7808 40.5404 34.8829 40.9775 33.9902 41.3766V43.8141C35.2291 43.2931 36.4788 42.7018 37.7204 42.0463C42.0624 39.7539 45.8144 36.9375 48.2851 34.1162C50.9947 31.0219 51.8891 28.1851 50.8032 26.1284C49.7173 24.0717 46.8706 23.2101 42.787 23.7026Z" fill="#FF641A"/>
<path d="M44.8056 46.831C43.9648 46.831 43.0454 46.7468 42.0543 46.5766C38.4279 45.9535 34.1498 44.2557 30.0079 41.7957C25.8661 39.3357 22.3282 36.3915 20.0459 33.5054C17.543 30.3401 16.8063 27.5163 17.9715 25.5544C19.1367 23.5925 21.9687 22.8885 25.9458 23.5717C29.5721 24.1948 33.8502 25.8927 37.9922 28.3526C42.134 30.8125 45.6719 33.7568 47.9541 36.643C50.4571 39.8083 51.1938 42.632 50.0285 44.5939C49.1537 46.0669 47.3387 46.831 44.8056 46.831ZM23.1668 25.5097C21.4944 25.5097 20.3127 25.9112 19.8588 26.6753C19.2101 27.7675 19.9237 29.8118 21.7678 32.1438C23.8876 34.8246 27.212 37.5821 31.1288 39.9084C35.0455 42.2346 39.0576 43.8345 42.4259 44.4132C45.356 44.9167 47.4925 44.5651 48.1413 43.4729C48.79 42.3808 48.0763 40.3365 46.2323 38.0045C44.1124 35.3236 40.788 32.5661 36.8712 30.2398C32.9544 27.9136 28.9423 26.3138 25.574 25.7351C24.6939 25.5839 23.8849 25.5097 23.1668 25.5097Z" fill="#00FFE7"/>
<path d="M37.9921 28.3527C36.6635 27.5636 35.3209 26.8534 33.9902 26.2314V28.6676C34.949 29.1454 35.9129 29.6707 36.8711 30.2398C40.7879 32.5661 44.1123 35.3237 46.2322 38.0045C48.0761 40.3365 48.7899 42.3808 48.1412 43.4729C47.4924 44.5651 45.3559 44.9166 42.4258 44.4132C39.876 43.9751 36.9572 42.9514 33.9902 41.4709V43.9079C36.8145 45.2297 39.5853 46.1525 42.0541 46.5766C43.0452 46.7469 43.9646 46.831 44.8054 46.831C47.3386 46.831 49.1535 46.0668 50.0283 44.5939C51.1936 42.632 50.4568 39.8084 47.9539 36.643C45.6718 33.7569 42.1339 30.8126 37.9921 28.3527Z" fill="#00DDC1"/>
<path d="M34.1995 54C31.8936 54.0001 29.7946 51.915 28.284 48.1213C26.8966 44.6371 26.0971 40.0144 26.0325 35.1047C25.968 30.1951 26.6458 25.553 27.9411 22.0334C29.3617 18.1735 31.4247 16.0309 33.7503 16.0003C33.767 16.0001 33.7839 16 33.8007 16C36.1065 16 38.2055 18.0849 39.7161 21.8786C41.1034 25.3629 41.903 29.9856 41.9676 34.8953C42.0321 39.8049 41.3543 44.447 40.0589 47.9665C38.6384 51.8265 36.5753 53.9691 34.2498 53.9997C34.233 53.9999 34.2162 54 34.1995 54ZM33.7993 18.2373C33.7927 18.2373 33.7863 18.2374 33.7797 18.2375C32.4851 18.2545 31.0874 19.9624 30.0407 22.8062C28.8376 26.0753 28.2086 30.4325 28.2696 35.0753C28.3307 39.7181 29.0739 44.0573 30.3626 47.2936C31.4778 50.0946 32.9112 51.7627 34.2007 51.7627C34.2073 51.7627 34.2138 51.7626 34.2203 51.7625C35.5149 51.7455 36.9127 50.0375 37.9593 47.1938C39.1624 43.9247 39.7914 39.5675 39.7304 34.9247C39.6693 30.2818 38.926 25.9426 37.6374 22.7062C36.5221 19.9052 35.0888 18.2373 33.7993 18.2373Z" fill="#1F5C99"/>
<path d="M37.4222 37.0326C36.2997 38.9226 33.8575 39.5448 31.9674 38.4222C30.0774 37.2997 29.4552 34.8575 30.5778 32.9674C31.7003 31.0774 34.1425 30.4552 36.0326 31.5778C37.9226 32.7003 38.5448 35.1425 37.4222 37.0326Z" fill="#FA184B"/>
<path d="M36.0323 31.5787C35.3889 31.1965 34.6815 31.017 33.9839 31.0204V38.9809C35.3465 38.9851 36.6758 38.2898 37.4221 37.0335C38.5446 35.1435 37.9224 32.7012 36.0323 31.5787Z" fill="#BD0533"/>
<path d="M39.7162 21.8786C38.2472 18.1891 36.2215 16.1165 33.9903 16.0054V18.2505C35.2289 18.4049 36.577 20.0427 37.6376 22.7063C38.9262 25.9426 39.6696 30.2819 39.7305 34.9247C39.7915 39.5675 39.1626 43.9247 37.9594 47.1938C36.9128 50.0376 35.5151 51.7456 34.2205 51.7625C34.2139 51.7627 34.2075 51.7627 34.2009 51.7627C34.1311 51.7627 34.0608 51.7568 33.9902 51.7472V53.9941C34.0598 53.998 34.1296 54 34.1995 54C34.2163 54 34.2331 54 34.2498 53.9997C36.5753 53.9692 38.6385 51.8265 40.059 47.9666C41.3544 44.4471 42.0321 39.8049 41.9677 34.8953C41.9031 29.9857 41.1035 25.3629 39.7162 21.8786Z" fill="#0E365C"/>
<path d="M50.1919 46.0071C49.4361 47.2796 47.7918 47.6985 46.5193 46.9428C45.2468 46.187 44.8279 44.5427 45.5837 43.2702C46.3395 41.9977 47.9838 41.5788 49.2563 42.3345C50.5288 43.0903 50.9477 44.7346 50.1919 46.0071Z" fill="#FFD396"/>
<path d="M49.2562 42.3351C48.8229 42.0778 48.3467 41.957 47.877 41.9593V47.3189C48.7944 47.3217 49.6894 46.8536 50.1918 46.0077C50.9476 44.7352 50.5287 43.0909 49.2562 42.3351Z" fill="#FF9F00"/>
<path d="M23.1098 26.2625C22.3541 27.535 20.7098 27.9539 19.4373 27.1981C18.1648 26.4424 17.7459 24.7981 18.5017 23.5256C19.2574 22.253 20.9017 21.8341 22.1742 22.5899C23.4468 23.3456 23.8657 24.9899 23.1098 26.2625Z" fill="#FFD396"/>
<path d="M22.1741 22.5905C21.7409 22.3332 21.2646 22.2123 20.7949 22.2146V27.5742C21.7123 27.5771 22.6074 27.109 23.1097 26.2631C23.8656 24.9906 23.4466 23.3463 22.1741 22.5905Z" fill="#FF9F00"/>
</g>
<defs>
<filter id="filter0_d_250_4808" x="0" y="0" width="72" height="72" filterUnits="userSpaceOnUse" color-interpolation-filters="sRGB">
<feFlood flood-opacity="0" result="BackgroundImageFix"/>
<feColorMatrix in="SourceAlpha" type="matrix" values="0 0 0 0 0 0 0 0 0 0 0 0 0 0 0 0 0 0 127 0" result="hardAlpha"/>
<feOffset dy="4"/>
<feGaussianBlur stdDeviation="2"/>
<feComposite in2="hardAlpha" operator="out"/>
<feColorMatrix type="matrix" values="0 0 0 0 0 0 0 0 0 0 0 0 0 0 0 0 0 0 0.25 0"/>
<feBlend mode="normal" in2="BackgroundImageFix" result="effect1_dropShadow_250_4808"/>
<feBlend mode="normal" in="SourceGraphic" in2="effect1_dropShadow_250_4808" result="shape"/>
</filter>
<clipPath id="clip0_250_4808">
<rect width="38" height="38" fill="white" transform="translate(15 16)"/>
</clipPath>
</defs>
</svg>
