<svg width="72" height="72" viewBox="0 0 72 72" fill="none" xmlns="http://www.w3.org/2000/svg">
<g filter="url(#filter0_d_250_4820)">
<circle cx="36" cy="32" r="32" fill="white"/>
</g>
<g clip-path="url(#clip0_250_4820)">
<path d="M46.7666 19.7V28.7313L30.9333 42.5H19.5333C19.0294 42.5 18.5461 42.2998 18.1898 41.9435C17.8335 41.5872 17.6333 41.1039 17.6333 40.6V19.7L18.2666 19.0667H46.1333L46.7666 19.7Z" fill="#E1EEFF"/>
<path d="M46.7666 16.5333V19.7H17.6333V16.5333C17.6333 16.0294 17.8335 15.5461 18.1898 15.1898C18.5461 14.8335 19.0294 14.6333 19.5333 14.6333H44.8666C45.3705 14.6333 45.8538 14.8335 46.2101 15.1898C46.5665 15.5461 46.7666 16.0294 46.7666 16.5333Z" fill="#49508E"/>
<path d="M49.269 43.583L53.8106 48.124C54.1664 48.4803 54.3663 48.9632 54.3663 49.4667C54.3663 49.9702 54.1664 50.4531 53.8106 50.8093C53.6344 50.986 53.4251 51.1262 53.1946 51.2218C52.9642 51.3174 52.7171 51.3666 52.4676 51.3666C52.2181 51.3666 51.9711 51.3174 51.7406 51.2218C51.5102 51.1262 51.3008 50.986 51.1246 50.8093L46.583 46.2683L49.269 43.583Z" fill="#A8724E"/>
<path d="M40.4332 48.2C46.3794 48.2 51.1998 43.3796 51.1998 37.4333C51.1998 31.487 46.3794 26.6666 40.4332 26.6666C34.4869 26.6666 29.6665 31.487 29.6665 37.4333C29.6665 43.3796 34.4869 48.2 40.4332 48.2Z" fill="#49508E"/>
<path d="M20.7999 17.8H20.1665C19.9986 17.8 19.8375 17.7333 19.7187 17.6145C19.5999 17.4957 19.5332 17.3346 19.5332 17.1667C19.5332 16.9987 19.5999 16.8376 19.7187 16.7188C19.8375 16.6001 19.9986 16.5333 20.1665 16.5333H20.7999C20.9678 16.5333 21.1289 16.6001 21.2477 16.7188C21.3665 16.8376 21.4332 16.9987 21.4332 17.1667C21.4332 17.3346 21.3665 17.4957 21.2477 17.6145C21.1289 17.7333 20.9678 17.8 20.7999 17.8Z" fill="white"/>
<path d="M23.9669 17.8H23.3335C23.1656 17.8 23.0045 17.7333 22.8857 17.6145C22.7669 17.4957 22.7002 17.3346 22.7002 17.1667C22.7002 16.9987 22.7669 16.8376 22.8857 16.7188C23.0045 16.6001 23.1656 16.5333 23.3335 16.5333H23.9669C24.1348 16.5333 24.2959 16.6001 24.4147 16.7188C24.5335 16.8376 24.6002 16.9987 24.6002 17.1667C24.6002 17.3346 24.5335 17.4957 24.4147 17.6145C24.2959 17.7333 24.1348 17.8 23.9669 17.8Z" fill="white"/>
<path d="M27.1334 17.8H26.5C26.3321 17.8 26.171 17.7333 26.0522 17.6145C25.9334 17.4957 25.8667 17.3346 25.8667 17.1667C25.8667 16.9987 25.9334 16.8376 26.0522 16.7188C26.171 16.6001 26.3321 16.5333 26.5 16.5333H27.1334C27.3013 16.5333 27.4624 16.6001 27.5812 16.7188C27.7 16.8376 27.7667 16.9987 27.7667 17.1667C27.7667 17.3346 27.7 17.4957 27.5812 17.6145C27.4624 17.7333 27.3013 17.8 27.1334 17.8Z" fill="white"/>
<path d="M20.7999 22.8666H20.1665C19.9986 22.8666 19.8375 22.7999 19.7187 22.6811C19.5999 22.5624 19.5332 22.4013 19.5332 22.2333C19.5332 22.0653 19.5999 21.9042 19.7187 21.7855C19.8375 21.6667 19.9986 21.6 20.1665 21.6H20.7999C20.9678 21.6 21.1289 21.6667 21.2477 21.7855C21.3665 21.9042 21.4332 22.0653 21.4332 22.2333C21.4332 22.4013 21.3665 22.5624 21.2477 22.6811C21.1289 22.7999 20.9678 22.8666 20.7999 22.8666Z" fill="#B1CBDD"/>
<path d="M20.7999 25.4H20.1665C19.9986 25.4 19.8375 25.3332 19.7187 25.2145C19.5999 25.0957 19.5332 24.9346 19.5332 24.7666C19.5332 24.5987 19.5999 24.4376 19.7187 24.3188C19.8375 24.2 19.9986 24.1333 20.1665 24.1333H20.7999C20.9678 24.1333 21.1289 24.2 21.2477 24.3188C21.3665 24.4376 21.4332 24.5987 21.4332 24.7666C21.4332 24.9346 21.3665 25.0957 21.2477 25.2145C21.1289 25.3332 20.9678 25.4 20.7999 25.4Z" fill="#B1CBDD"/>
<path d="M20.7999 27.9333H20.1665C19.9986 27.9333 19.8375 27.8666 19.7187 27.7478C19.5999 27.629 19.5332 27.4679 19.5332 27.3C19.5332 27.132 19.5999 26.9709 19.7187 26.8521C19.8375 26.7334 19.9986 26.6666 20.1665 26.6666H20.7999C20.9678 26.6666 21.1289 26.7334 21.2477 26.8521C21.3665 26.9709 21.4332 27.132 21.4332 27.3C21.4332 27.4679 21.3665 27.629 21.2477 27.7478C21.1289 27.8666 20.9678 27.9333 20.7999 27.9333Z" fill="#B1CBDD"/>
<path d="M20.7999 30.4666H20.1665C19.9986 30.4666 19.8375 30.3999 19.7187 30.2811C19.5999 30.1623 19.5332 30.0013 19.5332 29.8333C19.5332 29.6653 19.5999 29.5042 19.7187 29.3854C19.8375 29.2667 19.9986 29.2 20.1665 29.2H20.7999C20.9678 29.2 21.1289 29.2667 21.2477 29.3854C21.3665 29.5042 21.4332 29.6653 21.4332 29.8333C21.4332 30.0013 21.3665 30.1623 21.2477 30.2811C21.1289 30.3999 20.9678 30.4666 20.7999 30.4666Z" fill="#B1CBDD"/>
<path d="M20.7999 32.9999H20.1665C19.9986 32.9999 19.8375 32.9332 19.7187 32.8144C19.5999 32.6957 19.5332 32.5346 19.5332 32.3666C19.5332 32.1986 19.5999 32.0375 19.7187 31.9188C19.8375 31.8 19.9986 31.7333 20.1665 31.7333H20.7999C20.9678 31.7333 21.1289 31.8 21.2477 31.9188C21.3665 32.0375 21.4332 32.1986 21.4332 32.3666C21.4332 32.5346 21.3665 32.6957 21.2477 32.8144C21.1289 32.9332 20.9678 32.9999 20.7999 32.9999Z" fill="#B1CBDD"/>
<path d="M20.7999 35.5334H20.1665C19.9986 35.5334 19.8375 35.4667 19.7187 35.3479C19.5999 35.2291 19.5332 35.068 19.5332 34.9001C19.5332 34.7321 19.5999 34.571 19.7187 34.4522C19.8375 34.3334 19.9986 34.2667 20.1665 34.2667H20.7999C20.9678 34.2667 21.1289 34.3334 21.2477 34.4522C21.3665 34.571 21.4332 34.7321 21.4332 34.9001C21.4332 35.068 21.3665 35.2291 21.2477 35.3479C21.1289 35.4667 20.9678 35.5334 20.7999 35.5334Z" fill="#B1CBDD"/>
<path d="M20.7999 38.0667H20.1665C19.9986 38.0667 19.8375 38 19.7187 37.8812C19.5999 37.7624 19.5332 37.6014 19.5332 37.4334C19.5332 37.2654 19.5999 37.1043 19.7187 36.9855C19.8375 36.8668 19.9986 36.8 20.1665 36.8H20.7999C20.9678 36.8 21.1289 36.8668 21.2477 36.9855C21.3665 37.1043 21.4332 37.2654 21.4332 37.4334C21.4332 37.6014 21.3665 37.7624 21.2477 37.8812C21.1289 38 20.9678 38.0667 20.7999 38.0667Z" fill="#B1CBDD"/>
<path d="M20.7999 40.6H20.1665C19.9986 40.6 19.8375 40.5333 19.7187 40.4145C19.5999 40.2958 19.5332 40.1347 19.5332 39.9667C19.5332 39.7987 19.5999 39.6376 19.7187 39.5189C19.8375 39.4001 19.9986 39.3334 20.1665 39.3334H20.7999C20.9678 39.3334 21.1289 39.4001 21.2477 39.5189C21.3665 39.6376 21.4332 39.7987 21.4332 39.9667C21.4332 40.1347 21.3665 40.2958 21.2477 40.4145C21.1289 40.5333 20.9678 40.6 20.7999 40.6Z" fill="#B1CBDD"/>
<path d="M44.2331 17.8H40.4331C40.2652 17.8 40.1041 17.7333 39.9853 17.6145C39.8665 17.4957 39.7998 17.3346 39.7998 17.1667C39.7998 16.9987 39.8665 16.8376 39.9853 16.7188C40.1041 16.6001 40.2652 16.5333 40.4331 16.5333H44.2331C44.4011 16.5333 44.5622 16.6001 44.681 16.7188C44.7997 16.8376 44.8665 16.9987 44.8665 17.1667C44.8665 17.3346 44.7997 17.4957 44.681 17.6145C44.5622 17.7333 44.4011 17.8 44.2331 17.8Z" fill="#2E3360"/>
<path d="M23.3335 39.3333C23.1656 39.3333 23.0045 39.2666 22.8857 39.1478C22.7669 39.029 22.7002 38.8679 22.7002 38.7V22.2333C22.7002 22.0653 22.7669 21.9042 22.8857 21.7855C23.0045 21.6667 23.1656 21.6 23.3335 21.6C23.5015 21.6 23.6626 21.6667 23.7814 21.7855C23.9001 21.9042 23.9669 22.0653 23.9669 22.2333V38.7C23.9669 38.8679 23.9001 39.029 23.7814 39.1478C23.6626 39.2666 23.5015 39.3333 23.3335 39.3333Z" fill="#B1CBDD"/>
<path d="M32.2001 22.8666H25.8667C25.6988 22.8666 25.5377 22.7999 25.4189 22.6811C25.3001 22.5624 25.2334 22.4013 25.2334 22.2333C25.2334 22.0653 25.3001 21.9042 25.4189 21.7855C25.5377 21.6667 25.6988 21.6 25.8667 21.6H32.2001C32.368 21.6 32.5291 21.6667 32.6479 21.7855C32.7667 21.9042 32.8334 22.0653 32.8334 22.2333C32.8334 22.4013 32.7667 22.5624 32.6479 22.6811C32.5291 22.7999 32.368 22.8666 32.2001 22.8666Z" fill="#66CAA4"/>
<path d="M33.4667 25.4H27.1333C26.9654 25.4 26.8043 25.3332 26.6855 25.2145C26.5667 25.0957 26.5 24.9346 26.5 24.7666C26.5 24.5987 26.5667 24.4376 26.6855 24.3188C26.8043 24.2 26.9654 24.1333 27.1333 24.1333H33.4667C33.6346 24.1333 33.7957 24.2 33.9145 24.3188C34.0333 24.4376 34.1 24.5987 34.1 24.7666C34.1 24.9346 34.0333 25.0957 33.9145 25.2145C33.7957 25.3332 33.6346 25.4 33.4667 25.4Z" fill="#66CAA4"/>
<path d="M37.9 25.4H36C35.8321 25.4 35.671 25.3332 35.5522 25.2145C35.4334 25.0957 35.3667 24.9346 35.3667 24.7666C35.3667 24.5987 35.4334 24.4376 35.5522 24.3188C35.671 24.2 35.8321 24.1333 36 24.1333H37.9C38.068 24.1333 38.2291 24.2 38.3479 24.3188C38.4666 24.4376 38.5334 24.5987 38.5334 24.7666C38.5334 24.9346 38.4666 25.0957 38.3479 25.2145C38.2291 25.3332 38.068 25.4 37.9 25.4Z" fill="#F9C84E"/>
<path d="M32.2 27.9333H27.7666C27.5987 27.9333 27.4376 27.8666 27.3188 27.7478C27.2 27.629 27.1333 27.4679 27.1333 27.3C27.1333 27.132 27.2 26.9709 27.3188 26.8521C27.4376 26.7334 27.5987 26.6666 27.7666 26.6666H32.2C32.3679 26.6666 32.529 26.7334 32.6478 26.8521C32.7666 26.9709 32.8333 27.132 32.8333 27.3C32.8333 27.4679 32.7666 27.629 32.6478 27.7478C32.529 27.8666 32.3679 27.9333 32.2 27.9333Z" fill="#66CAA4"/>
<path d="M46.7667 34.2667H45.5C45.3321 34.2667 45.171 34.1999 45.0522 34.0812C44.9334 33.9624 44.8667 33.8013 44.8667 33.6333C44.8667 33.4654 44.9334 33.3043 45.0522 33.1855C45.171 33.0667 45.3321 33 45.5 33H46.7667C46.9347 33 47.0958 33.0667 47.2145 33.1855C47.3333 33.3043 47.4 33.4654 47.4 33.6333C47.4 33.8013 47.3333 33.9624 47.2145 34.0812C47.0958 34.1999 46.9347 34.2667 46.7667 34.2667Z" fill="white"/>
<path d="M36.6335 34.2667H34.1001C33.9322 34.2667 33.7711 34.1999 33.6523 34.0812C33.5335 33.9624 33.4668 33.8013 33.4668 33.6333C33.4668 33.4654 33.5335 33.3043 33.6523 33.1855C33.7711 33.0667 33.9322 33 34.1001 33H36.6335C36.8014 33 36.9625 33.0667 37.0813 33.1855C37.2001 33.3043 37.2668 33.4654 37.2668 33.6333C37.2668 33.8013 37.2001 33.9624 37.0813 34.0812C36.9625 34.1999 36.8014 34.2667 36.6335 34.2667Z" fill="#F9C84E"/>
<path d="M30.9333 32.9999H27.1333C26.9654 32.9999 26.8043 32.9332 26.6855 32.8144C26.5667 32.6957 26.5 32.5346 26.5 32.3666C26.5 32.1986 26.5667 32.0375 26.6855 31.9188C26.8043 31.8 26.9654 31.7333 27.1333 31.7333H30.9333C31.1013 31.7333 31.2624 31.8 31.3812 31.9188C31.4999 32.0375 31.5667 32.1986 31.5667 32.3666C31.5667 32.5346 31.4999 32.6957 31.3812 32.8144C31.2624 32.9332 31.1013 32.9999 30.9333 32.9999Z" fill="#66CAA4"/>
<path d="M42.9665 34.2667H39.1665C38.9986 34.2667 38.8375 34.1999 38.7187 34.0812C38.5999 33.9624 38.5332 33.8013 38.5332 33.6333C38.5332 33.4654 38.5999 33.3043 38.7187 33.1855C38.8375 33.0667 38.9986 33 39.1665 33H42.9665C43.1345 33 43.2956 33.0667 43.4144 33.1855C43.5331 33.3043 43.5999 33.4654 43.5999 33.6333C43.5999 33.8013 43.5331 33.9624 43.4144 34.0812C43.2956 34.1999 43.1345 34.2667 42.9665 34.2667Z" fill="#EB6374"/>
<path d="M40.4335 36.8H32.8335C32.6656 36.8 32.5045 36.7333 32.3857 36.6145C32.2669 36.4957 32.2002 36.3346 32.2002 36.1667C32.2002 35.9987 32.2669 35.8376 32.3857 35.7188C32.5045 35.6001 32.6656 35.5333 32.8335 35.5333H40.4335C40.6015 35.5333 40.7626 35.6001 40.8814 35.7188C41.0001 35.8376 41.0669 35.9987 41.0669 36.1667C41.0669 36.3346 41.0001 36.4957 40.8814 36.6145C40.7626 36.7333 40.6015 36.8 40.4335 36.8Z" fill="#F9C84E"/>
<path d="M29.9668 35.5334H27.7666C27.5987 35.5334 27.4376 35.4667 27.3188 35.3479C27.2 35.2291 27.1333 35.068 27.1333 34.9001C27.1333 34.7321 27.2 34.571 27.3188 34.4522C27.4376 34.3334 27.5987 34.2667 27.7666 34.2667H29.9668C30.1348 34.2667 30.2959 34.3334 30.4147 34.4522C30.5334 34.571 30.6002 34.7321 30.6002 34.9001C30.6002 35.068 30.5334 35.2291 30.4147 35.3479C30.2959 35.4667 30.1348 35.5334 29.9668 35.5334Z" fill="#66CAA4"/>
<path d="M36.6334 31.7333H36C35.8321 31.7333 35.671 31.6666 35.5522 31.5478C35.4334 31.4291 35.3667 31.268 35.3667 31.1C35.3667 30.932 35.4334 30.7709 35.5522 30.6522C35.671 30.5334 35.8321 30.4667 36 30.4667H36.6334C36.8013 30.4667 36.9624 30.5334 37.0812 30.6522C37.2 30.7709 37.2667 30.932 37.2667 31.1C37.2667 31.268 37.2 31.4291 37.0812 31.5478C36.9624 31.6666 36.8013 31.7333 36.6334 31.7333Z" fill="#F9C84E"/>
<path d="M32.8068 30.4666H25.8667C25.6988 30.4666 25.5377 30.3999 25.4189 30.2811C25.3001 30.1623 25.2334 30.0013 25.2334 29.8333C25.2334 29.6653 25.3001 29.5042 25.4189 29.3854C25.5377 29.2667 25.6988 29.2 25.8667 29.2H32.8068C32.9748 29.2 33.1359 29.2667 33.2546 29.3854C33.3734 29.5042 33.4401 29.6653 33.4401 29.8333C33.4401 30.0013 33.3734 30.1623 33.2546 30.2811C33.1359 30.3999 32.9748 30.4666 32.8068 30.4666Z" fill="#66CAA4"/>
<path d="M46.7667 41.8666H45.5C45.3321 41.8666 45.171 41.7999 45.0522 41.6811C44.9334 41.5624 44.8667 41.4013 44.8667 41.2333C44.8667 41.0653 44.9334 40.9042 45.0522 40.7855C45.171 40.6667 45.3321 40.6 45.5 40.6H46.7667C46.9347 40.6 47.0958 40.6667 47.2145 40.7855C47.3333 40.9042 47.4 41.0653 47.4 41.2333C47.4 41.4013 47.3333 41.5624 47.2145 41.6811C47.0958 41.7999 46.9347 41.8666 46.7667 41.8666Z" fill="white"/>
<path d="M36.6335 41.8666H33.4668C33.2989 41.8666 33.1378 41.7999 33.019 41.6811C32.9002 41.5624 32.8335 41.4013 32.8335 41.2333C32.8335 41.0653 32.9002 40.9042 33.019 40.7855C33.1378 40.6667 33.2989 40.6 33.4668 40.6H36.6335C36.8015 40.6 36.9626 40.6667 37.0813 40.7855C37.2001 40.9042 37.2668 41.0653 37.2668 41.2333C37.2668 41.4013 37.2001 41.5624 37.0813 41.6811C36.9626 41.7999 36.8015 41.8666 36.6335 41.8666Z" fill="#F9C84E"/>
<path d="M29.9669 40.6H27.1333C26.9654 40.6 26.8043 40.5333 26.6855 40.4145C26.5667 40.2958 26.5 40.1347 26.5 39.9667C26.5 39.7987 26.5667 39.6376 26.6855 39.5189C26.8043 39.4001 26.9654 39.3334 27.1333 39.3334H29.9669C30.1348 39.3334 30.2959 39.4001 30.4147 39.5189C30.5335 39.6376 30.6002 39.7987 30.6002 39.9667C30.6002 40.1347 30.5335 40.2958 30.4147 40.4145C30.2959 40.5333 30.1348 40.6 29.9669 40.6Z" fill="#66CAA4"/>
<path d="M42.9665 41.8666H39.1665C38.9986 41.8666 38.8375 41.7999 38.7187 41.6811C38.5999 41.5624 38.5332 41.4013 38.5332 41.2333C38.5332 41.0653 38.5999 40.9042 38.7187 40.7855C38.8375 40.6667 38.9986 40.6 39.1665 40.6H42.9665C43.1345 40.6 43.2956 40.6667 43.4144 40.7855C43.5331 40.9042 43.5999 41.0653 43.5999 41.2333C43.5999 41.4013 43.5331 41.5624 43.4144 41.6811C43.2956 41.7999 43.1345 41.8666 42.9665 41.8666Z" fill="#EB6374"/>
<path d="M35.3669 39.3333H32.8335C32.6656 39.3333 32.5045 39.2666 32.3857 39.1478C32.2669 39.029 32.2002 38.868 32.2002 38.7C32.2002 38.532 32.2669 38.3709 32.3857 38.2521C32.5045 38.1334 32.6656 38.0667 32.8335 38.0667H35.3669C35.5348 38.0667 35.6959 38.1334 35.8147 38.2521C35.9335 38.3709 36.0002 38.532 36.0002 38.7C36.0002 38.868 35.9335 39.029 35.8147 39.1478C35.6959 39.2666 35.5348 39.3333 35.3669 39.3333Z" fill="#F9C84E"/>
<path d="M29.6667 38.0667H25.8667C25.6988 38.0667 25.5377 38 25.4189 37.8812C25.3001 37.7624 25.2334 37.6014 25.2334 37.4334C25.2334 37.2654 25.3001 37.1043 25.4189 36.9855C25.5377 36.8668 25.6988 36.8 25.8667 36.8H29.6667C29.8347 36.8 29.9958 36.8668 30.1146 36.9855C30.2333 37.1043 30.3001 37.2654 30.3001 37.4334C30.3001 37.6014 30.2333 37.7624 30.1146 37.8812C29.9958 38 29.8347 38.0667 29.6667 38.0667Z" fill="#66CAA4"/>
<path d="M40.4332 48.8333C38.1785 48.8333 35.9744 48.1647 34.0997 46.9121C32.225 45.6594 30.7638 43.879 29.901 41.7959C29.0381 39.7128 28.8124 37.4207 29.2523 35.2093C29.6921 32.9979 30.7779 30.9666 32.3722 29.3723C33.9665 27.778 35.9978 26.6922 38.2092 26.2524C40.4206 25.8125 42.7127 26.0383 44.7958 26.9011C46.8789 27.7639 48.6593 29.2251 49.912 31.0998C51.1646 32.9745 51.8332 35.1786 51.8332 37.4333C51.8297 40.4557 50.6275 43.3533 48.4903 45.4905C46.3532 47.6276 43.4556 48.8298 40.4332 48.8333ZM40.4332 27.3C38.429 27.3 36.4698 27.8943 34.8034 29.0078C33.137 30.1212 31.8382 31.7038 31.0712 33.5555C30.3043 35.4071 30.1036 37.4446 30.4946 39.4102C30.8856 41.3759 31.8507 43.1815 33.2679 44.5987C34.685 46.0159 36.4906 46.981 38.4563 47.372C40.422 47.763 42.4594 47.5623 44.3111 46.7953C46.1627 46.0283 47.7453 44.7295 48.8588 43.0631C49.9722 41.3967 50.5665 39.4375 50.5665 37.4333C50.5634 34.7468 49.4947 32.1712 47.595 30.2715C45.6954 28.3718 43.1198 27.3032 40.4332 27.3Z" fill="#C0DAF0"/>
</g>
<defs>
<filter id="filter0_d_250_4820" x="0" y="0" width="72" height="72" filterUnits="userSpaceOnUse" color-interpolation-filters="sRGB">
<feFlood flood-opacity="0" result="BackgroundImageFix"/>
<feColorMatrix in="SourceAlpha" type="matrix" values="0 0 0 0 0 0 0 0 0 0 0 0 0 0 0 0 0 0 127 0" result="hardAlpha"/>
<feOffset dy="4"/>
<feGaussianBlur stdDeviation="2"/>
<feComposite in2="hardAlpha" operator="out"/>
<feColorMatrix type="matrix" values="0 0 0 0 0 0 0 0 0 0 0 0 0 0 0 0 0 0 0.25 0"/>
<feBlend mode="normal" in2="BackgroundImageFix" result="effect1_dropShadow_250_4820"/>
<feBlend mode="normal" in="SourceGraphic" in2="effect1_dropShadow_250_4820" result="shape"/>
</filter>
<clipPath id="clip0_250_4820">
<rect width="38" height="38" fill="white" transform="translate(17 14)"/>
</clipPath>
</defs>
</svg>
