<svg width="72" height="72" viewBox="0 0 72 72" fill="none" xmlns="http://www.w3.org/2000/svg">
<g filter="url(#filter0_d_250_4826)">
<circle cx="36" cy="32" r="32" fill="white"/>
</g>
<g clip-path="url(#clip0_250_4826)">
<path d="M29.7394 36.1325C29.4307 36.5926 28.6885 37.5011 27.7177 38.5876C26.7499 39.6742 25.5535 40.9359 24.3422 42.1026C21.0826 45.2376 19.4082 46.0778 18.4047 46.0778C18.0336 46.0778 17.7546 45.962 17.5201 45.8047C16.6532 45.2257 16.0772 43.8542 18.3691 38.0889C19.6101 34.9598 21.234 31.7565 21.8544 30.8362C23.3151 28.6601 26.2719 28.0812 28.4451 29.5418C29.499 30.2484 30.2144 31.3231 30.4579 32.57C30.7013 33.8139 30.446 35.0786 29.7394 36.1325Z" fill="#2A428B"/>
<path d="M24.155 29.6636C23.5702 31.2282 23.2733 32.8491 23.2763 34.4819C23.2777 35.2271 23.3169 36.169 23.444 37.2295C23.759 39.8622 22.5545 42.4667 20.2707 43.8139C19.4537 44.2957 18.8602 44.4688 18.4045 44.4688C18.0334 44.4688 17.7544 44.353 17.5198 44.1957C17.217 43.9938 16.9498 43.6939 16.8281 43.1447C16.9914 42.0136 17.4486 40.4075 18.3689 38.0889C19.6098 34.9599 21.2338 31.7566 21.8542 30.8363C22.4895 29.8863 23.4128 29.2421 24.4311 28.9363L24.155 29.6636Z" fill="#3F57A0"/>
<path d="M52.4802 45.8046C52.2457 45.962 51.9666 46.0777 51.5955 46.0777C50.5921 46.0777 48.9177 45.2376 45.658 42.1026C43.2325 39.7691 40.8783 37.0527 40.2608 36.1324C39.5513 35.0785 39.2989 33.8138 39.5424 32.5699C39.7858 31.323 40.5013 30.2484 41.5552 29.5418C43.7283 28.0812 46.6852 28.663 48.1458 30.8362C48.7663 31.7565 50.3902 34.9598 51.6311 38.0888C53.923 43.8541 53.3471 45.2257 52.4802 45.8046Z" fill="#2A428B"/>
<path d="M53.2044 43.3941C53.1005 44.0531 52.8126 44.3916 52.4801 44.6142C52.2455 44.7716 51.9665 44.8873 51.5954 44.8873C51.2234 44.8873 50.7594 44.7716 50.1561 44.4661C47.5662 43.1545 46.1626 40.298 46.5319 37.4183C46.6779 36.2803 46.7222 35.2707 46.7237 34.4816C46.7266 32.8488 46.4297 31.2278 45.8449 29.6663L45.5718 28.9419C46.5871 29.2447 47.5074 29.8889 48.1457 30.836C48.7662 31.7563 50.3901 34.9596 51.631 38.0886C52.6226 40.5827 53.0768 42.2541 53.2044 43.3941Z" fill="#3F57A0"/>
<path d="M45.5361 34.4789C45.5272 38.2314 44.5119 47.2831 35.282 50.3617C35.19 50.3914 35.095 50.4062 35 50.4062C34.905 50.4062 34.81 50.3914 34.718 50.3617C25.4881 47.2831 24.4728 38.2314 24.4639 34.4789C24.4609 32.9945 24.7311 31.5131 25.2684 30.0822L25.5564 29.3133C25.687 28.9659 26.0195 28.7344 26.3906 28.7344H43.6094C43.9805 28.7344 44.313 28.9659 44.4436 29.3133L44.7315 30.0822C45.2689 31.5131 45.539 32.9945 45.5361 34.4789Z" fill="#27A6FF"/>
<path d="M45.536 34.4789C45.5301 37.4269 44.8978 43.6434 40.1537 47.6691C39.2067 48.2569 38.1349 48.7675 36.9178 49.1742C36.8257 49.2039 36.7307 49.2188 36.6357 49.2188C36.5407 49.2188 36.4457 49.2039 36.3537 49.1742C32.5581 47.9057 30.1511 45.6298 28.6317 43.1263C28.4357 42.8033 28.6744 42.39 29.0523 42.3906H29.0624H37.9687C39.2803 42.3906 40.3437 41.3272 40.3437 40.0156V35.2656C40.3437 33.954 39.2803 32.8906 37.9687 32.8906H29.0624C27.7508 32.8906 26.6874 33.954 26.6874 35.2656C26.6444 35.6536 26.072 35.6222 26.0679 35.2318C26.0601 34.5139 26.1011 33.8792 26.0999 33.2914C26.097 31.807 26.3671 30.3256 26.9045 28.8947L26.9638 28.7344H43.6087C43.9804 28.7344 44.3132 28.965 44.4438 29.3133L44.7318 30.0822C45.2688 31.5131 45.539 32.9945 45.536 34.4789Z" fill="#02C0FC"/>
<path d="M44.3165 39.125C44.2643 39.125 44.2117 39.1205 44.1589 39.111C43.6747 39.0247 43.3523 38.5621 43.4387 38.0779C43.6453 36.9189 43.7519 35.7071 43.7542 34.4762C43.7572 33.2047 43.5251 31.9368 43.0646 30.7083L42.9922 30.5156H41.5312C41.0393 30.5156 40.6406 30.1169 40.6406 29.625C40.6406 29.1331 41.0393 28.7344 41.5312 28.7344H43.6094C43.9805 28.7344 44.313 28.9645 44.4433 29.3121L44.7325 30.0828C45.2692 31.5137 45.5394 32.993 45.5358 34.4804C45.5328 35.8143 45.4173 37.13 45.1923 38.3908C45.1151 38.8222 44.7399 39.125 44.3165 39.125Z" fill="#A4EEFF"/>
<path d="M37.375 30.5156H38.5625C39.0544 30.5156 39.4531 30.1169 39.4531 29.625C39.4531 29.1331 39.0544 28.7344 38.5625 28.7344H37.375C36.8831 28.7344 36.4844 29.1331 36.4844 29.625C36.4844 30.1169 36.8831 30.5156 37.375 30.5156Z" fill="#A4EEFF"/>
<path d="M37.0781 45.3594H32.9219C32.43 45.3594 32.0312 44.9607 32.0312 44.4688C32.0312 43.9768 32.43 43.5781 32.9219 43.5781H37.0781C37.57 43.5781 37.9688 43.9768 37.9688 44.4688C37.9688 44.9607 37.57 45.3594 37.0781 45.3594Z" fill="#A4EEFF"/>
<path d="M41.8281 34.375V39.125C41.8281 40.4342 40.7623 41.5 39.4531 41.5H30.5469C29.2377 41.5 28.1719 40.4342 28.1719 39.125V34.375C28.1719 33.0658 29.2377 32 30.5469 32H39.4531C40.7623 32 41.8281 33.0658 41.8281 34.375Z" fill="#A4EEFF"/>
<path d="M39.4531 32H30.5469C30.4127 32 30.2821 32.014 30.1541 32.0353C29.8433 32.437 29.6562 32.9387 29.6562 33.4844C29.6562 37.4195 32.8462 40.6094 36.7812 40.6094H40.9375C41.0717 40.6094 41.2023 40.5954 41.3303 40.574C41.6411 40.1724 41.8281 39.6707 41.8281 39.125V34.375C41.8281 33.0634 40.7647 32 39.4531 32Z" fill="#E8F8FC"/>
<path d="M32.0371 37.6406C31.5455 37.6406 31.145 37.2419 31.145 36.75C31.145 36.2581 31.5425 35.8594 32.0342 35.8594H32.0371C32.5291 35.8594 32.9278 36.2581 32.9278 36.75C32.9278 37.2419 32.5291 37.6406 32.0371 37.6406Z" fill="#4D5460"/>
<path d="M35.0059 37.6406C34.5143 37.6406 34.1138 37.2419 34.1138 36.75C34.1138 36.2581 34.5113 35.8594 35.0029 35.8594H35.0059C35.4978 35.8594 35.8965 36.2581 35.8965 36.75C35.8965 37.2419 35.4978 37.6406 35.0059 37.6406Z" fill="#4D5460"/>
<path d="M37.9746 37.6406C37.483 37.6406 37.0825 37.2419 37.0825 36.75C37.0825 36.2581 37.48 35.8594 37.9717 35.8594H37.9746C38.4666 35.8594 38.8653 36.2581 38.8653 36.75C38.8653 37.2419 38.4666 37.6406 37.9746 37.6406Z" fill="#4D5460"/>
<path d="M27.875 17.75V23.0938C27.875 23.5866 27.4772 23.9844 26.9844 23.9844H25.7969C24.3244 23.9844 23.125 22.785 23.125 21.3125V19.5312C23.125 18.0588 24.3244 16.8594 25.7969 16.8594H26.9844C27.4772 16.8594 27.875 17.2572 27.875 17.75Z" fill="#2A428B"/>
<path d="M47.1719 19.5312V21.3125C47.1719 22.785 45.9725 23.9844 44.5 23.9844H43.0156C42.5228 23.9844 42.125 23.5866 42.125 23.0938V17.75C42.125 17.2572 42.5228 16.8594 43.0156 16.8594H44.5C45.9725 16.8594 47.1719 18.0588 47.1719 19.5312Z" fill="#2A428B"/>
<path d="M46.2815 22.2032C45.7896 22.2032 45.3909 21.8044 45.3909 21.3125V19.5313C45.3909 19.3119 45.3104 19.1011 45.164 18.9378C44.836 18.5712 44.8672 18.0083 45.2335 17.6803C45.5999 17.3525 46.163 17.3831 46.4911 17.7497C46.9304 18.2402 47.1721 18.8728 47.1721 19.5313V21.3125C47.1721 21.8044 46.7734 22.2032 46.2815 22.2032Z" fill="#3F57A0"/>
<path d="M40.6406 26.3594H29.3594C28.0478 26.3594 26.9844 25.296 26.9844 23.9844V16.8594C26.9844 15.5478 28.0478 14.4844 29.3594 14.4844H40.6406C41.9522 14.4844 43.0156 15.5478 43.0156 16.8594V23.9844C43.0156 25.296 41.9522 26.3594 40.6406 26.3594Z" fill="#A4EEFF"/>
<path d="M40.6406 26.3594H29.3594C28.0478 26.3594 26.9844 25.296 26.9844 23.9844V16.8594C26.9844 15.5478 28.0478 14.4844 29.3594 14.4844H40.6406C41.9522 14.4844 43.0156 15.5478 43.0156 16.8594V23.9844C43.0156 25.296 41.9522 26.3594 40.6406 26.3594Z" fill="#A4EEFF"/>
<path d="M33.2187 21.3125C32.9907 21.3125 32.763 21.2255 32.5891 21.0516C32.2812 20.7443 31.7813 20.7443 31.4734 21.0516C31.1255 21.3995 30.562 21.3995 30.2141 21.0516C29.8661 20.7039 29.8661 20.1399 30.2141 19.7922C31.216 18.79 32.8465 18.79 33.8484 19.7922C34.1964 20.1399 34.1964 20.7039 33.8484 21.0516C33.6745 21.2255 33.4467 21.3125 33.2187 21.3125Z" fill="#384051"/>
<path d="M39.1563 21.3125C38.9283 21.3125 38.7005 21.2255 38.5266 21.0516C38.2187 20.7443 37.7188 20.7443 37.4109 21.0516C37.063 21.3995 36.4995 21.3995 36.1516 21.0516C35.8036 20.7039 35.8036 20.1399 36.1516 19.7922C37.1535 18.79 38.784 18.79 39.7859 19.7922C40.1339 20.1399 40.1339 20.7039 39.7859 21.0516C39.612 21.2255 39.3843 21.3125 39.1563 21.3125Z" fill="#384051"/>
<path d="M40.6406 27.25H29.3594C27.5588 27.25 26.0938 25.7849 26.0938 23.9844V16.8594C26.0938 15.0588 27.5588 13.5938 29.3594 13.5938H40.6406C42.4412 13.5938 43.9062 15.0588 43.9062 16.8594V23.9844C43.9062 25.7849 42.4412 27.25 40.6406 27.25ZM29.3594 15.375C28.5409 15.375 27.875 16.0409 27.875 16.8594V23.9844C27.875 24.8029 28.5409 25.4688 29.3594 25.4688H40.6406C41.4591 25.4688 42.125 24.8029 42.125 23.9844V16.8594C42.125 16.0409 41.4591 15.375 40.6406 15.375H29.3594Z" fill="#27A6FF"/>
<path d="M43.0156 19.8281C42.5237 19.8281 42.125 19.4294 42.125 18.9375V16.8594C42.125 16.0409 41.4591 15.375 40.6406 15.375H38.2656C37.7737 15.375 37.375 14.9763 37.375 14.4844C37.375 13.9925 37.7737 13.5938 38.2656 13.5938H40.6406C42.4412 13.5938 43.9062 15.0588 43.9062 16.8594V18.9375C43.9062 19.4294 43.5075 19.8281 43.0156 19.8281Z" fill="#02C0FC"/>
<path d="M35 15.375H34.4062C33.9143 15.375 33.5156 14.9763 33.5156 14.4844C33.5156 13.9925 33.9143 13.5938 34.4062 13.5938H35C35.4919 13.5938 35.8906 13.9925 35.8906 14.4844C35.8906 14.9763 35.4919 15.375 35 15.375Z" fill="#02C0FC"/>
</g>
<defs>
<filter id="filter0_d_250_4826" x="0" y="0" width="72" height="72" filterUnits="userSpaceOnUse" color-interpolation-filters="sRGB">
<feFlood flood-opacity="0" result="BackgroundImageFix"/>
<feColorMatrix in="SourceAlpha" type="matrix" values="0 0 0 0 0 0 0 0 0 0 0 0 0 0 0 0 0 0 127 0" result="hardAlpha"/>
<feOffset dy="4"/>
<feGaussianBlur stdDeviation="2"/>
<feComposite in2="hardAlpha" operator="out"/>
<feColorMatrix type="matrix" values="0 0 0 0 0 0 0 0 0 0 0 0 0 0 0 0 0 0 0.25 0"/>
<feBlend mode="normal" in2="BackgroundImageFix" result="effect1_dropShadow_250_4826"/>
<feBlend mode="normal" in="SourceGraphic" in2="effect1_dropShadow_250_4826" result="shape"/>
</filter>
<clipPath id="clip0_250_4826">
<rect width="38" height="38" fill="white" transform="translate(16 13)"/>
</clipPath>
</defs>
</svg>
