<svg width="74" height="74" viewBox="0 0 74 74" fill="none" xmlns="http://www.w3.org/2000/svg">
<path fill-rule="evenodd" clip-rule="evenodd" d="M20.074 26.1197C19.9328 24.1613 20.0989 22.3157 20.0989 22.3157C19.7373 21.9845 19.1032 21.392 18.3988 20.8813C17.2587 20.0544 15.9341 19.441 15.2812 20.4932C14.6943 21.4396 15.569 23.599 15.732 24.6177C16.2119 27.6183 16.6278 30.2981 20.0739 26.1197H20.074Z" fill="#F9C795"/>
<path fill-rule="evenodd" clip-rule="evenodd" d="M18.5292 22.2477C18.3927 21.7289 17.8616 21.4192 17.3429 21.5556C16.8241 21.6921 16.5144 22.2232 16.6508 22.7419C16.7941 23.2808 16.8939 23.7343 16.975 24.1909C17.056 24.647 17.1164 25.0995 17.1813 25.6395C17.2443 26.1728 17.7278 26.5542 18.2611 26.4912C18.7944 26.4282 19.1758 25.9448 19.1128 25.4114C19.0433 24.8324 18.9785 24.347 18.8914 23.8563C18.8044 23.3662 18.6929 22.8639 18.5292 22.2477Z" fill="#EDB47C"/>
<path fill-rule="evenodd" clip-rule="evenodd" d="M41.8337 26.1197C41.9749 24.1613 41.8088 22.3157 41.8088 22.3157C42.1705 21.9845 42.8045 21.392 43.5088 20.8813C44.649 20.0544 45.9737 19.441 46.6264 20.4932C47.2133 21.4396 46.3384 23.599 46.1756 24.6177C45.6957 27.6183 45.2798 30.2981 41.8337 26.1197Z" fill="#F9C795"/>
<path fill-rule="evenodd" clip-rule="evenodd" d="M43.3783 22.2477C43.5147 21.7289 44.0459 21.4192 44.5646 21.5556C45.0833 21.6921 45.393 22.2232 45.2566 22.7419C45.1134 23.2808 45.0135 23.7343 44.9324 24.1909C44.8515 24.647 44.7911 25.0995 44.7262 25.6395C44.6632 26.1728 44.1797 26.5542 43.6464 26.4912C43.1131 26.4282 42.7316 25.9448 42.7947 25.4114C42.8642 24.8324 42.9289 24.347 43.0161 23.8563C43.1031 23.3662 43.2145 22.8639 43.3783 22.2477Z" fill="#EDB47C"/>
<path fill-rule="evenodd" clip-rule="evenodd" d="M30.9538 49.7188L23.24 42.8411C24.0249 40.995 24.4253 37.1889 24.4413 31.4229H37.4662C37.4822 37.1889 37.8826 40.995 38.6675 42.8411L30.9538 49.7188Z" fill="#EDBB8A"/>
<path fill-rule="evenodd" clip-rule="evenodd" d="M30.9537 49.718L25.8442 45.1624C26.4258 43.1021 26.7234 39.5945 26.7372 34.6396H37.5218C37.6575 38.629 38.0394 41.3627 38.6676 42.8404L30.9537 49.718Z" fill="#F9C795"/>
<path fill-rule="evenodd" clip-rule="evenodd" d="M18.3989 20.8811C18.7666 24.996 19.9192 31.7181 22.674 34.7614C23.7417 35.9409 26.8719 39.3151 28.4797 39.9472C29.4986 40.3477 29.8734 39.9861 30.9539 39.9745C32.0346 39.9862 32.4094 40.3478 33.4283 39.9472C35.0362 39.315 38.1663 35.9409 39.234 34.7614C41.9887 31.718 43.1414 24.9959 43.5091 20.8811C43.5091 11.8626 37.2276 7.8624 30.9539 7.81152C24.6804 7.8624 18.3989 11.8624 18.3989 20.8811Z" fill="#F2CB9F"/>
<path fill-rule="evenodd" clip-rule="evenodd" d="M24.9453 37.1428C26.1786 38.3595 27.5718 39.5908 28.4796 39.9478C29.4986 40.3483 29.8733 39.9866 30.9539 39.9751C32.0345 39.9868 32.4093 40.3484 33.4282 39.9478C35.0361 39.3156 38.1663 35.9415 39.2339 34.762C41.9887 31.7186 43.1413 24.9964 43.509 20.8816C43.509 14.9008 40.746 11.1278 37.0553 9.24933C35.8704 8.9065 34.6385 8.73335 33.4067 8.72266C27.133 8.77657 20.8516 13.0281 20.8516 22.6133C21.2112 26.8891 22.3212 33.8133 24.9451 37.1428H24.9453Z" fill="#FDD7AD"/>
<path fill-rule="evenodd" clip-rule="evenodd" d="M60.3002 63.5405V58.3191C60.3002 50.2317 53.3541 48.8143 43.2701 44.6437L39.2079 41.4229L30.954 48.7819L22.7001 41.4229L18.638 44.6437C8.55394 48.8143 1.60791 50.2317 1.60791 58.3191V63.5405H60.3002Z" fill="#4F5D99"/>
<path fill-rule="evenodd" clip-rule="evenodd" d="M48.83 46.8594C48.3832 46.6823 47.9264 46.5026 47.4598 46.3193L40.2869 63.5417H41.8819L48.83 46.8593V46.8594Z" fill="#45518A"/>
<path fill-rule="evenodd" clip-rule="evenodd" d="M21.6209 63.5405L14.448 46.3181L18.6377 44.6439L22.6999 41.4229L30.9538 48.7821L39.2076 41.4229L43.2698 44.6439L47.4597 46.3181L40.2866 63.5405H30.9538H21.6209Z" fill="#E7EBF5"/>
<path fill-rule="evenodd" clip-rule="evenodd" d="M30.954 48.7812L34.8756 52.8096L33.1141 55.4826L34.0802 63.5396H27.8278L28.794 55.4826L27.0325 52.8096L30.954 48.7812Z" fill="#6A75AD"/>
<path fill-rule="evenodd" clip-rule="evenodd" d="M30.954 48.7812L34.8755 52.8096L33.114 55.4826L34.0802 63.5396H29.4364L30.202 55.4826L28.4404 52.8096L30.954 48.7812Z" fill="#7986BF"/>
<path fill-rule="evenodd" clip-rule="evenodd" d="M30.9538 48.7812L34.8755 52.8096L33.114 55.4826H30.9538H28.7936L27.0322 52.8096L30.9538 48.7812Z" fill="#45518A"/>
<path fill-rule="evenodd" clip-rule="evenodd" d="M31.658 49.5049L34.8755 52.81L33.114 55.483H30.9538H30.202L28.4404 52.81L31.658 49.5049Z" fill="#4F5D99"/>
<path fill-rule="evenodd" clip-rule="evenodd" d="M31.3766 49.2168L25.0264 55.7399L18.6379 44.6445L25.1248 54.7707L30.954 48.7828L31.3766 49.2168Z" fill="#D6DBE8"/>
<path fill-rule="evenodd" clip-rule="evenodd" d="M30.9539 48.7821L25.1246 54.77L18.6379 44.6439L22.7 41.4229L30.9539 48.7821Z" fill="white"/>
<path fill-rule="evenodd" clip-rule="evenodd" d="M30.9541 48.7821L36.7835 54.77L43.27 44.6439L39.2078 41.4229L30.9541 48.7821Z" fill="white"/>
<path fill-rule="evenodd" clip-rule="evenodd" d="M13.0778 46.8594C13.5245 46.6823 13.9814 46.5026 14.4479 46.3193L21.6209 63.5417H20.0257L13.0776 46.8593L13.0778 46.8594Z" fill="#45518A"/>
<path fill-rule="evenodd" clip-rule="evenodd" d="M30.9539 49.6508L36.8817 55.7399L43.2701 44.6445L36.7832 54.7707L30.954 48.7828L30.9539 49.6508Z" fill="#C7CEE0"/>
<path fill-rule="evenodd" clip-rule="evenodd" d="M18.3813 20.8935C11.077 2.63548 35.1722 -0.156577 38.4089 6.69869C40.6862 6.34357 50.7268 3.91892 43.5133 20.8935C43.475 19.6965 42.9492 17.5374 41.7694 16.0448C41.7419 16.3308 41.5387 17.2271 40.3859 18.307C40.0243 16.244 38.9553 14.1474 37.5038 13.8583C35.4455 19.0554 23.6476 10.9051 18.3813 20.8935Z" fill="#2C3033"/>
<path fill-rule="evenodd" clip-rule="evenodd" d="M64.8048 51.9209L65.7266 70.7295L60.6684 66.512L55.6101 70.7295L56.5321 51.9209H64.8048Z" fill="#E68207"/>
<path fill-rule="evenodd" clip-rule="evenodd" d="M64.8046 51.9209L65.635 68.8655L61.7404 65.6181L60.6682 66.512L57.1326 69.4601L57.9922 51.9209H64.8046Z" fill="#FDA02F"/>
<path fill-rule="evenodd" clip-rule="evenodd" d="M63.2141 36.4268C63.8989 37.3911 65.0037 37.8487 66.1698 37.6511C67.2539 37.4672 68.1604 37.6654 68.9582 38.4632C69.7563 39.2612 69.9539 40.1672 69.7704 41.2517C69.5728 42.4177 70.0304 43.5225 70.9945 44.2073C71.8912 44.8441 72.392 45.6249 72.392 46.7534C72.392 47.8819 71.8911 48.6626 70.9945 49.2994C70.0302 49.9844 69.5726 51.089 69.7702 52.2551C69.9541 53.3392 69.7559 54.2457 68.9581 55.0435C68.1601 55.8417 67.2541 56.0392 66.1697 55.8558C65.0036 55.6582 63.8988 56.1158 63.214 57.08C62.5772 57.9765 61.7964 58.4775 60.6679 58.4775C59.5394 58.4775 58.7587 57.9765 58.1219 57.08C57.4369 56.1157 56.3323 55.6581 55.1662 55.8557C54.0821 56.0395 53.1756 55.8414 52.3778 55.0435C51.5797 54.2456 51.3821 53.3395 51.5655 52.2551C51.7631 51.089 51.3055 49.9844 50.3413 49.2994C49.4448 48.6626 48.9438 47.8819 48.9438 46.7534C48.9438 45.6249 49.4448 44.8441 50.3413 44.2073C51.3056 43.5225 51.7632 42.4177 51.5656 41.2517C51.3818 40.1675 51.58 39.261 52.3778 38.4632C53.1757 37.6651 54.0818 37.4675 55.1662 37.6511C56.3323 37.8487 57.4369 37.3911 58.1219 36.4268C58.7587 35.5302 59.5394 35.0293 60.6679 35.0293C61.7964 35.0293 62.5772 35.5302 63.214 36.4268H63.2141Z" fill="#F9AC00"/>
<path fill-rule="evenodd" clip-rule="evenodd" d="M63.2141 36.4276C63.8991 37.3919 65.0037 37.8495 66.1698 37.652C67.2539 37.4681 68.1604 37.6663 68.9582 38.4641C69.7563 39.262 69.9539 40.1681 69.7703 41.2525C69.5728 42.4186 70.0304 43.5234 70.9947 44.2082C71.8912 44.845 72.3921 45.6257 72.3921 46.7542C72.3921 47.8827 71.8912 48.6635 70.9947 49.3003C70.0304 49.9852 69.5728 51.0899 69.7703 52.2561C69.9542 53.3401 69.756 54.2467 68.9582 55.0446C68.1603 55.8427 67.2542 56.0402 66.1698 55.8567C65.0037 55.6591 63.8989 56.1167 63.2141 57.081C62.7093 57.7918 62.1139 58.2539 61.3267 58.4149C60.5394 58.2539 59.9441 57.7918 59.4393 57.081C58.7543 56.1167 57.6497 55.6591 56.4836 55.8567C56.4336 55.8652 56.3839 55.8727 56.3347 55.8797C55.9623 55.7983 55.568 55.7887 55.1663 55.8567L55.1512 55.8591C54.6236 55.7504 54.1423 55.4916 53.6951 55.0446C52.897 54.2466 52.6993 53.3405 52.8829 52.2561C53.0805 51.0899 52.6229 49.9852 51.6587 49.3003C50.7622 48.6635 50.2612 47.8827 50.2612 46.7542C50.2612 45.6257 50.7622 44.845 51.6587 44.2082C52.623 43.5232 53.0806 42.4186 52.883 41.2525C52.6992 40.1684 52.8973 39.2619 53.6951 38.4641C54.1425 38.0167 54.6238 37.7582 55.1513 37.6495L55.1662 37.652C55.5678 37.72 55.9621 37.7103 56.3344 37.629C56.3837 37.6358 56.4334 37.6434 56.4834 37.652C57.6497 37.8495 58.7543 37.3919 59.4391 36.4276C59.944 35.717 60.5393 35.2549 61.3265 35.0938C62.1138 35.2548 62.7093 35.7168 63.2141 36.4276Z" fill="#FDC72E"/>
<path d="M61.7157 50.5677C63.8225 50.5677 65.5303 48.8598 65.5303 46.7531C65.5303 44.6463 63.8225 42.9385 61.7157 42.9385C59.609 42.9385 57.9011 44.6463 57.9011 46.7531C57.9011 48.8598 59.609 50.5677 61.7157 50.5677Z" fill="#F9AC00"/>
<path d="M60.6679 50.5677C62.7746 50.5677 64.4825 48.8598 64.4825 46.7531C64.4825 44.6463 62.7746 42.9385 60.6679 42.9385C58.5611 42.9385 56.8533 44.6463 56.8533 46.7531C56.8533 48.8598 58.5611 50.5677 60.6679 50.5677Z" fill="white"/>
</svg>
