<svg width="76" height="76" viewBox="0 0 76 76" fill="none" xmlns="http://www.w3.org/2000/svg">
<path d="M60.1693 6.33301H15.8359C10.5973 6.33301 6.33594 10.5944 6.33594 15.833V60.1663C6.33594 65.4049 10.5973 69.6663 15.8359 69.6663H60.1693C65.4079 69.6663 69.6693 65.4049 69.6693 60.1663V15.833C69.6693 10.5944 65.4079 6.33301 60.1693 6.33301Z" fill="#F44336"/>
<path d="M50.6719 41.1663H25.3385C23.5882 41.1663 22.1719 39.7485 22.1719 37.9997C22.1719 36.2509 23.5882 34.833 25.3385 34.833H50.6719C52.4222 34.833 53.8385 36.2509 53.8385 37.9997C53.8385 39.7485 52.4222 41.1663 50.6719 41.1663Z" fill="#E0E0E0"/>
</svg>
