<svg width="98" height="98" viewBox="0 0 98 98" fill="none" xmlns="http://www.w3.org/2000/svg">
<path d="M94.9374 55.8906C94.9374 56.2352 94.9298 56.5797 94.8991 56.9166C94.4627 63.5852 89.7312 69.1742 83.3229 70.7514C82.8788 73.8522 81.3323 76.6391 79.0584 78.645C77.8869 79.6862 76.5318 80.5208 75.0312 81.0873V81.1562C75.0312 85.7806 71.6012 89.6164 67.1529 90.2519C66.4102 91.852 65.3001 93.2148 63.9296 94.2638C62.3601 95.4581 60.4613 96.2314 58.4324 96.4152C58.1032 96.4534 57.7663 96.4688 57.4218 96.4688C54.0071 96.4688 50.9676 94.8533 48.9999 92.3573C44.0693 86.7989 40.4096 81.2405 37.7835 75.7663C35.8924 71.8616 34.5373 68.0028 33.6109 64.2206C25.7326 32.1103 48.9999 5.64266 48.9999 5.64266C50.9676 3.14672 54.0071 1.53125 57.4218 1.53125C60.5226 1.53125 63.3094 2.82516 65.2541 4.91531C66.3107 6.03312 67.1146 7.37297 67.6046 8.86594C68.7684 8.575 69.9704 8.42188 71.203 8.42188C79.2268 8.42188 85.7499 14.945 85.7499 22.9688C85.7499 23.5736 85.7116 24.1784 85.6427 24.768C90.7571 26.8505 94.1718 31.8194 94.1718 37.5156C94.1718 40.5934 93.1382 43.5641 91.2777 45.9605C93.6282 48.7091 94.9374 52.2233 94.9374 55.8906Z" fill="url(#paint0_linear_843_2310)"/>
<path d="M94.8985 56.9166C94.4621 63.5852 89.7305 69.1742 83.3223 70.7514C82.8782 73.8522 81.3316 76.6391 79.0577 78.645C77.8863 79.6863 76.5312 80.5208 75.0305 81.0874V81.1563C75.0305 85.7806 71.6005 89.6164 67.1523 90.2519C66.4096 91.852 65.2994 93.2149 63.929 94.2638C62.3595 95.4581 60.4607 96.2314 58.4318 96.4152L37.7829 75.7663L29.9199 67.9109L33.6102 64.2206L67.9255 29.9436L94.8985 56.9166Z" fill="url(#paint1_linear_843_2310)"/>
<path d="M49 5.64266V92.3573C48.8009 92.61 48.5942 92.8473 48.3722 93.077C48.265 93.1995 48.1502 93.3067 48.0353 93.4216C47.9281 93.5287 47.8056 93.6359 47.6908 93.7431C47.5683 93.8503 47.4458 93.9498 47.3233 94.0494C46.9634 94.348 46.573 94.6159 46.1748 94.8609C46.1672 94.8686 46.1595 94.8686 46.1519 94.8763C44.5211 95.8869 42.6147 96.4688 40.5781 96.4688C36.3672 96.4688 32.5773 93.9805 30.847 90.2519C26.3988 89.6164 22.9688 85.7806 22.9688 81.1562V81.0873C18.5511 79.4183 15.3508 75.4447 14.677 70.7514C7.93953 69.09 3.0625 63.0033 3.0625 55.8906C3.0625 52.2233 4.37172 48.7091 6.72219 45.9605C4.86172 43.5641 3.82812 40.5934 3.82812 37.5156C3.82812 31.8194 7.24281 26.8505 12.3572 24.768C12.2883 24.1784 12.25 23.5736 12.25 22.9688C12.25 15.6494 17.6706 9.58562 24.7144 8.575C25.3958 8.47547 26.0925 8.42188 26.7969 8.42188C28.0295 8.42188 29.2316 8.575 30.3953 8.86594C31.8041 4.57844 35.8236 1.53125 40.5781 1.53125C43.9928 1.53125 47.0323 3.14672 49 5.64266Z" fill="url(#paint2_linear_843_2310)"/>
<path d="M48.9993 48.8545V86.9826L29.9199 67.9109L48.9993 48.8545Z" fill="url(#paint3_linear_843_2310)"/>
<path d="M67.6045 8.86591C65.2924 9.99138 63.5238 11.9437 62.628 14.3478C62.2835 15.2742 61.403 15.8484 60.4689 15.8484C60.2086 15.8484 59.933 15.8025 59.6727 15.7029C58.486 15.2589 57.8811 13.9343 58.3175 12.7476C59.5808 9.3406 62.0461 6.57669 65.2541 4.91528C66.3106 6.0331 67.1145 7.37294 67.6045 8.86591Z" fill="url(#paint4_linear_843_2310)"/>
<path d="M79.0598 78.645C77.8884 79.6862 76.5333 80.5207 75.0326 81.0873C74.8642 80.337 74.4967 79.6326 73.9761 79.0507C73.1339 78.1014 73.2105 76.6543 74.1598 75.8045C75.1016 74.9623 76.5562 75.0389 77.3984 75.9806C78.1028 76.7692 78.6694 77.6726 79.0598 78.645Z" fill="#FCAA1A"/>
<path d="M67.1533 90.2518C66.4107 91.852 65.3005 93.2148 63.93 94.2637C63.2716 94.0187 62.6438 93.6971 62.0466 93.299C60.99 92.5946 60.7144 91.1629 61.4188 90.1064C62.1232 89.0575 63.5472 88.7742 64.6038 89.4785C65.3541 89.9839 66.2422 90.2518 67.1533 90.2518Z" fill="#FCAA1A"/>
<path d="M30.3945 8.86591C32.7067 9.99138 34.4753 11.9437 35.3711 14.3478C35.7156 15.2742 36.5961 15.8484 37.5302 15.8484C37.7905 15.8484 38.0661 15.8025 38.3264 15.7029C39.5131 15.2589 40.118 13.9343 39.6816 12.7476C38.4183 9.3406 35.953 6.57669 32.745 4.91528C31.6884 6.0331 30.8845 7.37294 30.3945 8.86591Z" fill="url(#paint5_linear_843_2310)"/>
<path d="M18.9395 78.645C20.1109 79.6862 21.466 80.5207 22.9666 81.0873C23.1351 80.337 23.5026 79.6326 24.0232 79.0507C24.8654 78.1014 24.7888 76.6543 23.8395 75.8045C22.8977 74.9623 21.443 75.0389 20.6009 75.9806C19.8965 76.7692 19.3299 77.6726 18.9395 78.645Z" fill="#10A0F9"/>
<path d="M30.8457 90.2518C31.5884 91.852 32.6985 93.2148 34.069 94.2637C34.7274 94.0187 35.3552 93.6971 35.9524 93.299C37.009 92.5946 37.2846 91.1629 36.5802 90.1064C35.8759 89.0575 34.4518 88.7742 33.3952 89.4785C32.6449 89.9839 31.7568 90.2518 30.8457 90.2518Z" fill="#10A0F9"/>
<path d="M69.4344 65.8666C68.7377 67.4744 67.4744 68.7377 65.8666 69.4344C60.5072 71.7696 54.7497 72.9333 48.9999 72.9333C43.2424 72.9333 37.4925 71.7696 32.1332 69.4344C30.5254 68.7377 29.2621 67.4744 28.5654 65.8666C23.9027 55.1479 23.9027 42.8519 28.5654 32.1332C29.2621 30.5254 30.5254 29.2621 32.1332 28.5654C42.8519 23.9027 55.1479 23.9027 65.8666 28.5654C67.4744 29.2621 68.7377 30.5254 69.4344 32.1332C74.0971 42.8519 74.0971 55.1479 69.4344 65.8666Z" fill="url(#paint6_linear_843_2310)"/>
<path d="M45.7992 39.7934C45.4692 38.8853 44.6071 38.2812 43.6409 38.2812C42.6747 38.2812 41.8126 38.8853 41.4826 39.7934L35.3576 56.6371C34.9243 57.8292 35.5391 59.1468 36.7311 59.5809C37.9209 60.0135 39.2409 59.3995 39.675 58.2074L40.2385 56.6562H47.0433L47.6076 58.2066C47.9468 59.1399 48.828 59.7195 49.7659 59.7195C50.0262 59.7195 50.2919 59.6743 50.5507 59.5802C51.7427 59.1468 52.3575 57.8284 51.9242 56.6363L45.7992 39.7934ZM41.9091 52.0625L43.6409 47.2988L45.3727 52.0625H41.9091Z" fill="white"/>
<path d="M58.9531 38.2812C57.6845 38.2812 56.6562 39.3095 56.6562 40.5781V57.4219C56.6562 58.6905 57.6845 59.7188 58.9531 59.7188C60.2218 59.7188 61.25 58.6905 61.25 57.4219V40.5781C61.25 39.3095 60.2218 38.2812 58.9531 38.2812Z" fill="white"/>
<defs>
<linearGradient id="paint0_linear_843_2310" x1="63.4603" y1="1.53125" x2="63.4603" y2="96.4688" gradientUnits="userSpaceOnUse">
<stop stop-color="#FEF156"/>
<stop offset="0.4469" stop-color="#FFC242"/>
<stop offset="1" stop-color="#FC753F"/>
</linearGradient>
<linearGradient id="paint1_linear_843_2310" x1="106.251" y1="106.256" x2="59.2487" y2="59.2533" gradientUnits="userSpaceOnUse">
<stop offset="0.6875" stop-color="#F99E0D" stop-opacity="0"/>
<stop offset="0.7327" stop-color="#F49020" stop-opacity="0.078"/>
<stop offset="0.8234" stop-color="#E86D50" stop-opacity="0.233"/>
<stop offset="0.8622" stop-color="#E25D66" stop-opacity="0.3"/>
</linearGradient>
<linearGradient id="paint2_linear_843_2310" x1="26.0313" y1="1.53125" x2="26.0313" y2="96.4687" gradientUnits="userSpaceOnUse">
<stop stop-color="#A4EEFF"/>
<stop offset="0.7319" stop-color="#02C0FC"/>
<stop offset="1" stop-color="#27A6FF"/>
</linearGradient>
<linearGradient id="paint3_linear_843_2310" x1="73.2045" y1="92.1276" x2="37.6458" y2="56.5689" gradientUnits="userSpaceOnUse">
<stop offset="0.2613" stop-color="#A4EEFF" stop-opacity="0"/>
<stop offset="0.2961" stop-color="#66CAFF" stop-opacity="0.508"/>
<stop offset="0.3297" stop-color="#27A6FF"/>
</linearGradient>
<linearGradient id="paint4_linear_843_2310" x1="62.8906" y1="4.91528" x2="62.8906" y2="15.8484" gradientUnits="userSpaceOnUse">
<stop stop-color="#FEF156"/>
<stop offset="0.4469" stop-color="#FFC242"/>
<stop offset="1" stop-color="#FC753F"/>
</linearGradient>
<linearGradient id="paint5_linear_843_2310" x1="35.1093" y1="4.91528" x2="35.1093" y2="15.8484" gradientUnits="userSpaceOnUse">
<stop stop-color="#A4EEFF"/>
<stop offset="0.7319" stop-color="#02C0FC"/>
<stop offset="1" stop-color="#27A6FF"/>
</linearGradient>
<linearGradient id="paint6_linear_843_2310" x1="25.0687" y1="49.0007" x2="72.9318" y2="49.0007" gradientUnits="userSpaceOnUse">
<stop offset="1.1188e-07" stop-color="#A47AF4"/>
<stop offset="0.4469" stop-color="#8954DD"/>
<stop offset="1" stop-color="#6936BA"/>
</linearGradient>
</defs>
</svg>
