<svg width="78" height="78" viewBox="0 0 78 78" fill="none" xmlns="http://www.w3.org/2000/svg">
<g clip-path="url(#clip0_843_2085)">
<path d="M39.2683 57.4364L66.7886 38.0416L28.7809 31.1248L0.828125 49.438L39.2683 57.4364Z" fill="#F4D177"/>
<path d="M38.7351 38.1819L11.2148 20.7556L49.2249 14.5391L77.0033 30.776L38.7351 38.1819Z" fill="#FF6666"/>
<path d="M28.9444 23.1388L6.41211 8.87258L37.5321 3.78125L60.3716 16.8866L28.9444 23.1388Z" fill="#02A9F4"/>
<path d="M41.3314 58.6452C40.9505 58.043 40.4296 57.6228 39.8547 57.5148L1.25977 50.5978C1.25977 50.5978 2.91346 55.3797 2.8545 58.5616C2.81017 61.1392 1.28186 66.0167 1.28186 66.0167L39.8743 72.9337C40.4493 73.0417 40.9701 72.8082 41.3487 72.3464C41.727 71.8843 41.963 71.1964 41.9605 70.3953L41.9483 60.8173C41.9482 60.0163 41.7122 59.2421 41.3314 58.6452ZM76.7441 32.0364L38.1516 38.2506C37.5743 38.3491 37.0534 38.7249 36.6725 39.2678C36.2917 39.8085 36.0558 40.4989 36.0558 41.2189L36.0461 49.8288C36.0435 50.5512 36.277 51.168 36.6555 51.5783C37.0337 51.996 37.5548 52.2049 38.1297 52.1091L76.7246 45.8924C76.7246 45.8924 75.6165 43.1453 75.3019 38.7887C75.0955 35.9359 76.7441 32.0364 76.7441 32.0364ZM28.4533 34.5427L60.0477 29.449C60.0477 29.449 58.6594 27.1146 58.5267 23.8712C58.4211 21.3036 60.0649 18.1042 60.0649 18.1042L28.4681 23.1954C27.9987 23.2742 27.5711 23.5837 27.2591 24.026C26.9469 24.4658 26.7553 25.031 26.7553 25.623L26.7455 32.6703C26.7429 33.2574 26.9347 33.7661 27.2443 34.1052C27.554 34.4445 27.9815 34.6139 28.4533 34.5427Z" fill="#FFF3E4"/>
<path d="M49.71 50.0779L40.6643 56.4529C40.4732 56.3744 40.2764 56.3146 40.0745 56.2766L1.47963 49.3595C0.808859 49.2365 0.142964 49.6925 0.0200225 50.3756C-0.102767 51.0599 0.351827 51.7133 1.03737 51.8363L39.62 58.751C39.7796 58.7816 40.0302 58.9449 40.2686 59.3223C40.5364 59.74 40.6888 60.2842 40.6888 60.8186L40.7011 70.3991C40.7036 70.8671 40.5808 71.2973 40.3742 71.5491C40.2267 71.7249 40.1433 71.7014 40.094 71.6952L1.50172 64.7783C0.833386 64.6543 0.165054 65.1114 0.0421123 65.7945C-0.0808291 66.4788 0.373917 67.1322 1.05946 67.2551L39.6396 74.1696C39.8142 74.2029 39.986 74.2189 40.1556 74.2189C40.8329 74.2189 41.4734 73.963 41.9982 73.4837L68.2437 54.7335C68.9956 54.2003 69.4968 53.1167 69.4943 51.7825L69.4883 47.0579L49.71 50.0779Z" fill="#FBAC0F"/>
<path d="M76.527 44.6503L37.9248 50.8681C37.8338 50.8865 37.7234 50.8839 37.5808 50.7255C37.4088 50.5363 37.3032 50.2033 37.3055 49.8299L37.3152 41.2186C37.3152 40.7887 37.4554 40.3414 37.7036 39.9901C37.9001 39.7114 38.1409 39.5282 38.3522 39.4926L76.9447 33.2783C77.6328 33.1677 78.097 32.5229 77.9866 31.8359C77.876 31.1504 77.2174 30.6749 76.5468 30.7941C76.5468 30.7941 45.6851 35.8136 37.224 37.2243L32.0685 33.9599L27.1961 34.7343L25.2746 29.658L11.2152 20.7554C10.0038 21.1116 8.57619 22.7383 8.52211 24.5713L8.50977 33.2476C8.50977 34.4442 9.00854 35.4172 9.76036 35.8964L36.2197 52.8633C36.2095 52.8568 36.2021 52.8502 36.1923 52.8437C36.6813 53.2011 37.2555 53.3903 37.8533 53.3903C38.0105 53.3903 38.1703 53.3778 38.33 53.351L76.9249 47.134C77.613 47.0235 78.0772 46.3785 77.9668 45.6918C77.8588 45.0053 77.1929 44.5396 76.527 44.6503Z" fill="#E63431"/>
<path d="M59.8464 28.2068L28.171 33.2575C28.0873 33.1665 28.0014 32.9663 28.0014 32.6714L28.0111 25.6229C28.0111 25.3133 28.1096 24.9977 28.284 24.7506C28.4315 24.5417 28.5862 24.4508 28.6649 24.4372L60.2617 19.346C60.9498 19.2354 61.414 18.5892 61.3036 17.9036C61.1928 17.2169 60.5321 16.7487 59.8636 16.8618C59.8636 16.8618 27.7272 22.0881 27.479 22.2104L6.41261 8.87256C5.42237 9.16247 4.25283 10.4944 4.2085 11.9932L4.13477 19.4151C4.13477 20.4004 4.54274 21.1964 5.15943 21.5896C5.15943 21.5896 26.5829 35.3944 27.4831 35.7004C27.9782 35.8688 28.5125 35.8056 28.6501 35.7847L60.2445 30.6909C60.9326 30.5803 61.3968 29.9341 61.2864 29.2485C61.1756 28.5618 60.517 28.0938 59.8464 28.2068Z" fill="#006AB3"/>
</g>
<defs>
<clipPath id="clip0_843_2085">
<rect width="78" height="78" fill="white"/>
</clipPath>
</defs>
</svg>
