<svg width="25" height="21" viewBox="0 0 25 21" fill="none" xmlns="http://www.w3.org/2000/svg">
<path d="M0.612202 17.2414C2.64551 17.0774 4.20328 16.4379 5.28552 15.3229C6.36776 14.2078 6.97448 12.8632 7.10566 11.2891C6.7777 11.4202 6.46615 11.5186 6.17099 11.5842C5.87584 11.617 5.56428 11.6334 5.23633 11.6334C3.76054 11.6334 2.59631 11.1251 1.74364 10.1084C0.890962 9.09177 0.464624 7.86195 0.464624 6.41896C0.464624 4.81199 0.940154 3.50018 1.89122 2.48353C2.84228 1.46688 4.13769 0.958555 5.77745 0.958555C7.41721 0.958555 8.74542 1.53247 9.76207 2.68031C10.8115 3.82814 11.3362 5.53349 11.3362 7.79636C11.3362 10.7151 10.8771 13.0928 9.95884 14.9293C9.07337 16.7659 7.82715 18.1269 6.22019 19.0123C4.61322 19.8978 2.74389 20.3569 0.612202 20.3897V17.2414ZM13.5499 17.2414C15.5832 17.0774 17.141 16.4379 18.2232 15.3229C19.3055 14.2078 19.8958 12.8632 19.9942 11.2891C19.699 11.4202 19.3875 11.5186 19.0595 11.5842C18.7644 11.617 18.4692 11.6334 18.174 11.6334C16.6983 11.6334 15.5176 11.1251 14.6322 10.1084C13.7795 9.09177 13.3531 7.86195 13.3531 6.41896C13.3531 4.81199 13.8287 3.50018 14.7797 2.48353C15.7308 1.46688 17.0426 0.958555 18.7152 0.958555C20.3221 0.958555 21.6503 1.53247 22.6998 2.68031C23.7492 3.82814 24.274 5.53349 24.274 7.79636C24.274 10.7151 23.8148 13.0928 22.8966 14.9293C21.9783 16.7659 20.7157 18.1269 19.1087 19.0123C17.5017 19.8978 15.6488 20.3569 13.5499 20.3897V17.2414Z" fill="#01317A"/>
</svg>
