<svg width="82" height="82" viewBox="0 0 82 82" fill="none" xmlns="http://www.w3.org/2000/svg">
<g clip-path="url(#clip0_843_2098)">
<path d="M48.6446 63.8725H28.0684L31.3668 51.4277H45.3462L48.6446 63.8725Z" fill="#0B1226"/>
<path d="M52.0718 67.8714H24.6465V65.1552C24.6465 63.7279 25.8036 62.5708 27.2309 62.5708H49.4872C50.9145 62.5708 52.0716 63.7279 52.0716 65.1552V67.8714H52.0718Z" fill="#192F5C"/>
<path d="M73.6776 52.7885H3.02386C1.59656 52.7885 0.439453 51.6314 0.439453 50.2041V5.81585C0.439453 4.38856 1.59656 3.23145 3.02386 3.23145H73.6777C75.105 3.23145 76.2621 4.38856 76.2621 5.81585V50.204C76.2621 51.6314 75.105 52.7885 73.6776 52.7885Z" fill="#192F5C"/>
<path d="M72.8672 6.63062V49.3892H3.8428V6.63062H72.8672Z" fill="white"/>
<path d="M58.382 27.7104C55.2969 26.5885 51.9152 26.5885 48.8301 27.7104V15.7565C51.9152 14.6346 55.2969 14.6346 58.382 15.7565V27.7104Z" fill="#61CEAC"/>
<path d="M67.9426 27.7104C64.8574 26.5885 61.4758 26.5885 58.3906 27.7104V15.7565C61.4758 14.6346 64.8574 14.6346 67.9426 15.7565V27.7104Z" fill="#52C1A1"/>
<path d="M10.127 12.8503H44.8596V43.0656H10.127V12.8503Z" fill="#F0E8F9"/>
<path d="M18 21.1037V42.7187H38.7201V21.1759L29.0362 18.7737L18 21.1037Z" fill="#865ACC"/>
<path d="M32.5571 25.5286H25.7437C24.9166 25.5286 24.2043 26.1119 24.0412 26.9227L22.2808 35.6712C22.0644 36.7464 22.8867 37.7504 23.9834 37.7504H30.7967C31.6239 37.7504 32.3362 37.1671 32.4993 36.3562L34.2597 27.6078C34.4762 26.5327 33.6539 25.5286 32.5571 25.5286Z" fill="white"/>
<path d="M26.6023 2.22441C26.6023 2.22441 27.7645 -0.671343 32.1019 1.98227C32.1019 1.98227 36.8696 4.92025 34.4485 10.0742L22.4902 10.012C20.9304 0.63032 26.6023 2.22441 26.6023 2.22441Z" fill="#333333"/>
<path d="M26.5944 2.22222C26.3708 2.16299 20.9627 0.823661 22.4902 10.0119H24.2241C23.2555 4.18601 25.0755 2.59314 26.5944 2.22222Z" fill="#212121"/>
<path d="M28.5074 17.7415L30.2406 17.7387H21.7445C21.4893 17.7387 21.2344 17.7334 20.9793 17.7302C19.9471 17.7175 15.3064 18.1294 14.0489 26.273C13.0772 32.5658 13.5758 36.0021 14.3136 37.8642C14.9204 39.3952 16.5517 40.2925 18.165 39.9624C21.8361 39.2113 25.6268 35.4459 26.798 34.2009L28.0036 34.0001C28.9542 33.8035 30.3904 33.5265 31.5456 32.0221C33.4988 29.4787 29.4647 27.8858 28.1168 29.3692L28.3276 28.45C28.4301 28.0028 28.1056 27.5625 27.6394 27.5163C27.338 27.4863 27.0503 27.6317 26.9033 27.8891C26.4372 28.7051 25.442 30.3472 25.083 30.8509L19.2124 33.9026C20.4279 30.7516 20.1176 25.1018 20.1176 25.1018" fill="#865ACC"/>
<path d="M16.3945 37.864C15.6565 36.0018 15.158 32.5655 16.1297 26.2727C17.2883 18.7702 21.3183 17.83 22.7526 17.7386H21.7445C21.4894 17.7386 21.2344 17.7332 20.9793 17.73C19.9471 17.7174 15.3064 18.1291 14.0489 26.2727C13.0772 32.5655 13.5758 36.0018 14.3136 37.864C14.9204 39.395 16.5517 40.2924 18.165 39.9623C18.2954 39.9357 18.4257 39.9043 18.5563 39.8702C17.5973 39.5671 16.7842 38.8475 16.3945 37.864Z" fill="#6A42BA"/>
<path d="M36.2648 25.1563C36.2648 25.1563 39.5131 39.6152 46.2646 36.7647C47.5955 36.2028 48.6257 35.1021 49.1721 33.7647L51.86 27.1842L52.5509 26.5296C53.2757 25.8841 54.381 24.926 54.6294 23.0456C55.0492 19.8664 50.7593 20.504 50.3337 22.4625L50.0565 21.561C49.9218 21.1227 49.4205 20.9035 48.9937 21.0966C48.7177 21.2213 48.5413 21.4911 48.5427 21.7874C48.5462 22.5365 48.4791 23.9038 48.4218 24.7405L45.1518 30.4316C43.9763 28.2486 43.0434 25.947 42.3004 23.5816C40.5573 18.0335 36.8857 17.719 35.982 17.73C35.7269 17.7332 26.7207 17.7384 26.7207 17.7384L28.4539 17.7412" fill="#865ACC"/>
<path d="M28.3852 21.0329H28.6622C30.0895 21.0329 31.2466 19.8758 31.2466 18.4485V13.9006H25.8008V18.4485C25.8008 19.8758 26.9577 21.0329 28.3852 21.0329Z" fill="#F9A395"/>
<path d="M34.2283 8.85372C33.9341 8.60737 33.5347 8.8772 33.2175 9.19468V6.96614C33.2175 6.1782 32.5789 5.53955 31.7909 5.53955H25.2672C24.4793 5.53955 23.8406 6.1782 23.8406 6.96614V9.20537C23.5289 8.88333 23.1327 8.60456 22.8419 8.85372C21.5888 9.9269 22.7576 12.6553 23.8674 12.5973C24.1166 14.952 26.1084 16.7869 28.5293 16.7869C30.9503 16.7869 32.9421 14.9519 33.1912 12.597C34.3224 12.6364 35.5058 9.9234 34.2283 8.85372Z" fill="#FFC0B3"/>
<path d="M28.1168 29.3692L28.3276 28.45C28.4301 28.0029 28.1056 27.5626 27.6393 27.5163C27.338 27.4864 27.0503 27.6318 26.9033 27.8892C26.4372 28.7052 25.442 30.3473 25.083 30.851L19.2124 33.9027C19.808 32.3585 20.0368 30.2151 20.1158 28.4297C17.44 28.9007 15.0382 28.6617 13.7561 28.4557C13.2028 33.3821 13.6659 36.2297 14.3135 37.8641C14.9202 39.3951 16.5515 40.2924 18.1648 39.9623C21.8359 39.2111 25.6267 35.4458 26.7978 34.2007L28.0034 33.9999C28.954 33.8033 30.3902 33.5263 31.5454 32.0219C33.4988 29.4787 29.4647 27.8859 28.1168 29.3692Z" fill="#FFC0B3"/>
<path d="M16.3974 37.864C15.7593 36.254 15.3011 33.4651 15.8166 28.6721C14.985 28.6273 14.2789 28.5391 13.7592 28.4556C13.5015 32.1275 12.43 40.5945 18.172 39.9613C18.3009 39.9349 18.43 39.9039 18.5592 39.8702C17.6002 39.5671 16.7871 38.8475 16.3974 37.864Z" fill="#F9A395"/>
<path d="M50.3203 22.4627L50.0431 21.5612C49.9084 21.1229 49.4071 20.9037 48.9803 21.0967C48.7043 21.2217 48.5279 21.4912 48.5293 21.7876C48.5328 22.5367 48.4657 23.904 48.4084 24.7407L45.1384 30.4318C44.361 28.9882 43.6918 27.4919 43.1113 25.9603L43.1066 25.9749C41.0247 27.7207 38.8249 28.7149 37.6116 29.1774H37.4824C38.988 33.2193 41.8878 38.6071 46.2513 36.7647C47.5823 36.2028 48.6125 35.1021 49.1588 33.7649L51.8468 27.1844L52.5377 26.5298C53.2625 25.8843 54.3678 24.9262 54.6162 23.0457C55.0359 19.8664 50.7459 20.504 50.3203 22.4627Z" fill="#FFC0B3"/>
<path d="M11.5256 59.4617H7.24254C6.22297 59.4617 5.39648 60.2882 5.39648 61.3077V80.9595C5.39648 81.534 5.8622 81.9999 6.4369 81.9999H12.3311C12.9056 81.9999 13.3715 81.5342 13.3715 80.9595V61.3077C13.3715 60.2883 12.545 59.4617 11.5256 59.4617Z" fill="#FFC31A"/>
<path d="M9.21124 59.4617H7.1304C6.17268 59.4617 5.39648 60.238 5.39648 61.1956V80.9593C5.39648 81.5339 5.8622 81.9998 6.4369 81.9998C7.01143 81.9998 7.47732 81.534 7.47732 80.9593V61.1958C7.47715 60.238 8.25352 59.4617 9.21124 59.4617Z" fill="#FFAF00"/>
<path d="M5.39648 78.5325V80.9595C5.39648 81.5341 5.8622 82 6.4369 82H12.3311C12.9056 82 13.3715 81.5342 13.3715 80.9595V78.5325H5.39648Z" fill="#F0E8F9"/>
<path d="M5.39648 78.5325H7.47732V82H5.39648V78.5325Z" fill="#E2D2F7"/>
<path d="M9.38285 75.4342C9.1789 75.4342 9.01367 75.2688 9.01367 75.0651V62.9292C9.01367 62.7253 9.1789 62.5601 9.38285 62.5601C9.5868 62.5601 9.75202 62.7253 9.75202 62.9292V75.0651C9.75202 75.269 9.5868 75.4342 9.38285 75.4342Z" fill="white"/>
<path d="M19.5863 59.4617H15.1154C14.1477 59.4617 13.3633 60.2461 13.3633 61.2138V81.0124C13.3633 81.5579 13.8053 81.9999 14.3508 81.9999H20.3508C20.8962 81.9999 21.3383 81.5579 21.3383 81.0124V61.2138C21.3385 60.2463 20.5539 59.4617 19.5863 59.4617Z" fill="#F955AF"/>
<path d="M17.1761 59.4617H15.0952C14.1375 59.4617 13.3613 60.238 13.3613 61.1956V80.9593C13.3613 81.5339 13.827 81.9998 14.4017 81.9998C14.9763 81.9998 15.4422 81.534 15.4422 80.9593V61.1958C15.442 60.238 16.2184 59.4617 17.1761 59.4617Z" fill="#EF009F"/>
<path d="M13.3633 78.5325V80.9595C13.3633 81.5341 13.829 82 14.4037 82H20.2979C20.8724 82 21.3383 81.5342 21.3383 80.9595V78.5325H13.3633Z" fill="#F0E8F9"/>
<path d="M13.3633 78.5325H15.4441V82H13.3633V78.5325Z" fill="#E2D2F7"/>
<path d="M17.3496 75.4342C17.1457 75.4342 16.9805 75.2688 16.9805 75.0651V62.9292C16.9805 62.7253 17.1457 62.5601 17.3496 62.5601C17.5536 62.5601 17.7188 62.7253 17.7188 62.9292V75.0651C17.719 75.269 17.5536 75.4342 17.3496 75.4342Z" fill="white"/>
<path d="M26.8709 60.7072L22.7339 61.8157C21.7491 62.0796 21.1647 63.0918 21.4286 64.0767L25.8577 80.606C26.1215 81.5909 27.1337 82.1752 28.1186 81.9113L32.2556 80.8028C33.2405 80.5389 33.8248 79.5267 33.5609 78.5418L29.1319 62.0125C28.868 61.0276 27.8558 60.4433 26.8709 60.7072Z" fill="#61CEAC"/>
<path d="M27.9731 80.1938L23.486 63.4481C23.2381 62.5232 23.787 61.5723 24.7122 61.3244L27.3349 60.6216C27.2188 60.6282 27.1017 60.6468 26.9849 60.678L22.6313 61.8446C21.7064 62.0923 21.1574 63.0432 21.4052 63.9682L25.8922 80.7139C26.1401 81.6388 27.0909 82.1878 28.016 81.94L29.7467 81.4762C28.9429 81.523 28.1896 81.0021 27.9731 80.1938Z" fill="#52C1A1"/>
<path d="M33.1544 76.9756L25.4512 79.0398L25.8999 80.7145C26.1476 81.6394 27.0984 82.1882 28.0233 81.9404L32.3774 80.7739C33.3023 80.5261 33.8511 79.5754 33.6033 78.6506L33.1544 76.9756Z" fill="#F0E8F9"/>
<path d="M27.9807 80.1942L27.532 78.5195L25.4512 79.0397L25.8999 80.7144C26.1476 81.6394 27.0984 82.1882 28.0233 81.9404L29.7541 81.4766C28.9504 81.5232 28.1971 81.0023 27.9807 80.1942Z" fill="#E2D2F7"/>
<path d="M28.403 75.0277C28.2401 75.0277 28.0908 74.9189 28.0466 74.7539L25.3545 64.7062C25.3017 64.5093 25.4186 64.3069 25.6155 64.2542C25.8123 64.2006 26.0148 64.3181 26.0676 64.5152L28.7599 74.5629C28.8254 74.7929 28.6411 75.0307 28.403 75.0277Z" fill="white"/>
<path d="M65.7765 49.8879C65.6616 52.6913 65.2884 55.9624 64.2805 58.2023C62.1736 62.8856 62.0727 66.6886 62.0727 66.6886H59.0352V61.4967C59.0352 59.5565 59.1948 57.6206 59.5138 55.7069C59.9895 52.8532 60.6699 48.0559 60.8262 43.2017C61.0074 37.569 67.5241 37.9063 70.9371 38.4727C72.2131 38.6846 73.4934 38.8619 74.7769 39.0234C77.3348 39.3453 81.6983 40.5374 81.5491 44.9272L81.5529 52.5185C81.5545 55.4735 81.2409 58.4236 80.5602 61.2985C80.2427 62.6392 79.1839 65.4817 78.739 66.3387" fill="#F955AF"/>
<path d="M78.2622 62.5668C77.44 60.0891 76.5116 57.3824 76.3485 54.6114L63.1735 48.0239L61.7628 58.4553L60.2663 65.7394C58.7395 68.929 59.0794 75.939 59.5742 81.9747H79.0382C79.7008 78.334 80.7391 70.0318 78.2622 62.5668Z" fill="#F955AF"/>
<path d="M76.4609 52.1287C76.6155 56.2453 77.7785 59.6704 78.6006 62.1483L76.4609 52.1287Z" fill="#FF33A8"/>
<path d="M78.6026 62.5175C78.4478 62.5175 78.3036 62.4194 78.2521 62.2643L78.2006 62.1087C77.3762 59.6261 76.2473 56.2261 76.094 52.1426C76.0863 51.9388 76.2454 51.7674 76.449 51.7597C76.654 51.7532 76.8241 51.9109 76.8318 52.1149C76.9813 56.0935 78.0911 59.4357 78.9013 61.8764L78.953 62.032C79.0171 62.2256 78.9123 62.4346 78.7187 62.4987C78.6803 62.5114 78.6411 62.5175 78.6026 62.5175Z" fill="#EF009F"/>
<path d="M77.4766 59.7569C77.7282 60.5731 77.9962 61.3719 78.2538 62.1482C78.6149 63.2367 78.9012 64.3254 79.125 65.4014C79.6581 64.0844 80.3262 62.2376 80.5486 61.2985C80.6493 60.873 80.7394 60.4457 80.8244 60.0175C80.184 59.7506 78.9331 59.5656 77.4766 59.7569Z" fill="#FFC0B3"/>
<path d="M65.7765 49.8881C65.6616 52.6915 65.2884 55.9625 64.2805 58.2025C62.1736 62.8858 62.0727 66.6888 62.0727 66.6888H59.0352V61.4968C59.0352 59.5544 59.1956 57.6167 59.5149 55.7009C59.9904 52.8464 60.6701 48.0525 60.8262 43.2019" fill="#F955AF"/>
<path d="M60.8262 43.2016C60.6701 48.0557 59.9895 52.8531 59.5138 55.7068C59.195 57.6207 59.0352 59.5564 59.0352 61.4966H61.116C61.116 59.5564 61.2756 57.6205 61.5947 55.7068C62.0704 52.8531 62.7507 48.0557 62.907 43.2016C63.0244 39.5524 65.8009 38.4102 68.6698 38.2114C65.2344 38.0006 60.9721 38.6611 60.8262 43.2016Z" fill="#EF009F"/>
<path d="M61.721 67.0576C61.7175 67.0576 61.7142 67.0576 61.7109 67.0576C61.5071 67.052 61.3464 66.8826 61.3517 66.6788C61.3559 66.5206 61.4789 62.7477 63.5921 58.051C64.4043 56.2457 64.9105 53.4176 65.0559 49.8727C65.0643 49.6691 65.2406 49.5098 65.4399 49.5189C65.6437 49.5272 65.8021 49.6992 65.7937 49.903C65.6423 53.593 65.1281 56.4364 64.2655 58.3539C62.2171 62.9072 62.0909 66.6613 62.0899 66.6986C62.0844 66.8989 61.9203 67.0576 61.721 67.0576Z" fill="#EF009F"/>
<path d="M56.988 67.6448L58.1588 65.9016L58.5896 65.2612C58.8812 64.8277 59.037 64.317 59.037 63.7942V61.4967C59.037 60.7319 59.0627 59.968 59.1125 59.2057C60.8986 58.334 62.8501 58.9814 63.7795 59.3979C62.9369 61.54 62.5097 63.4255 62.2938 64.7421C62.1992 65.3185 62.2111 65.905 62.3214 66.4786C62.5115 67.4677 62.7031 69.2177 61.9434 70.1483C60.0471 72.4709 57.7931 69.8061 58.635 68.1803L57.9205 68.6663C57.5324 68.9304 56.9868 68.7466 56.8645 68.2653C56.8104 68.0525 56.8659 67.8267 56.988 67.6448Z" fill="#FFC0B3"/>
<path d="M65.2782 36.1459C65.2782 36.1459 60.4987 36.2629 63.4162 27.452C66.3337 18.641 65.2782 36.1459 65.2782 36.1459Z" fill="#FFC0B3"/>
<path d="M79.3125 43.3797C78.9175 42.8106 78.5601 42.2179 78.2661 41.5908C77.5244 40.0089 76.4524 37.3509 76.6737 35.6025C76.9415 33.4868 76.9914 31.1037 77.0007 30.2564C77.003 30.0519 76.9988 29.8479 76.9798 29.6443C76.3461 22.8275 69.4064 22.9521 69.4064 22.9521C69.4064 22.9521 62.0879 22.9519 63.5145 28.161C64.8011 32.8592 64.6886 34.6996 63.7719 39.563C63.4222 41.4187 64.0964 42.0157 65.017 41.6507L65.0166 41.6517C64.9698 42.3973 64.8945 43.5001 65.0709 45.2969C65.4622 49.2811 69.2575 46.4833 69.2575 46.4833C69.8756 47.3203 70.8591 48.2075 71.8095 48.2079C74.5339 48.2091 75.0483 46.2791 75.0483 46.2791C75.9713 47.2454 77.2838 48.0046 78.7339 46.9479C80.5123 45.6517 79.8344 44.1321 79.3125 43.3797Z" fill="#333333"/>
<path d="M66.7968 45.2968C66.6677 43.9825 66.5098 42.407 66.4525 41.364C66.4329 41.0058 66.1422 40.7435 65.7852 40.7104C65.5302 40.6868 65.3338 40.4334 65.498 39.5629C66.4147 34.6994 66.5272 32.8591 65.2406 28.1609C64.1268 24.094 68.3433 23.2024 70.2459 23.0068C69.7266 22.946 69.3986 22.9518 69.3986 22.9518C69.3986 22.9518 62.0801 22.9516 63.5067 28.1607C64.7933 32.8589 64.6808 34.6994 63.7641 39.5628C63.4143 41.4185 64.0886 42.0154 65.0091 41.6504L65.0088 41.6515C64.962 42.397 64.8867 43.4998 65.0631 45.2966C65.2895 47.6012 66.6549 47.6366 67.7658 47.2569C67.2817 46.9939 66.9062 46.4105 66.7968 45.2968Z" fill="#212121"/>
<path d="M72.5285 14.0297C76.4027 14.0297 79.5434 10.8891 79.5434 7.01485C79.5434 3.14066 76.4027 0 72.5285 0C68.6543 0 65.5137 3.14066 65.5137 7.01485C65.5137 10.8891 68.6543 14.0297 72.5285 14.0297Z" fill="#FFAF00"/>
<path d="M69.3095 7.62178L73.9568 10.305C74.4241 10.5748 75.0081 10.2375 75.0081 9.69806V4.33179C75.0081 3.79231 74.4241 3.45502 73.9568 3.72485L69.3095 6.40808C68.8422 6.67773 68.8422 7.35213 69.3095 7.62178Z" fill="white"/>
</g>
<defs>
<clipPath id="clip0_843_2098">
<rect width="82" height="82" fill="white"/>
</clipPath>
</defs>
</svg>
