<svg width="25" height="21" viewBox="0 0 25 21" fill="none" xmlns="http://www.w3.org/2000/svg">
<path d="M24.0772 4.12304C22.0767 4.28702 20.5353 4.92652 19.4531 6.04156C18.3708 7.1566 17.7641 8.48481 17.6329 10.0262C17.9281 9.9278 18.2232 9.84581 18.5184 9.78022C18.8463 9.71463 19.1579 9.68183 19.4531 9.68183C20.9616 9.68183 22.1423 10.1902 22.9949 11.2068C23.8476 12.2235 24.274 13.4533 24.274 14.8963C24.274 16.5032 23.7984 17.815 22.8474 18.8317C21.8963 19.8484 20.5845 20.3567 18.9119 20.3567C17.3378 20.3567 16.0096 19.7828 14.9273 18.6349C13.8779 17.4871 13.3531 15.7817 13.3531 13.5189C13.3531 10.5673 13.8123 8.18965 14.7305 6.38591C15.6488 4.54938 16.9114 3.20477 18.5184 2.3521C20.1582 1.46663 22.0111 0.991096 24.0772 0.925504V4.12304ZM11.1887 4.12304C9.15536 4.28702 7.59759 4.92652 6.51534 6.04156C5.4659 7.1566 4.87558 8.48481 4.7444 10.0262C5.03956 9.9278 5.33471 9.84581 5.62987 9.78022C5.95782 9.71463 6.26938 9.68183 6.56454 9.68183C8.04032 9.68183 9.20455 10.1902 10.0572 11.2068C10.9099 12.2235 11.3362 13.4533 11.3362 14.8963C11.3362 16.5032 10.8607 17.815 9.90965 18.8317C8.99138 19.8484 7.69597 20.3567 6.02341 20.3567C4.41645 20.3567 3.08824 19.7828 2.03879 18.6349C0.989347 17.4871 0.464624 15.7817 0.464624 13.5189C0.464624 10.5673 0.907359 8.18965 1.79283 6.38591C2.7111 4.54938 3.97371 3.20477 5.58068 2.3521C7.22044 1.46663 9.08977 0.991096 11.1887 0.925504V4.12304Z" fill="#01317A"/>
</svg>
