<svg width="63" height="63" viewBox="0 0 63 63" fill="none" xmlns="http://www.w3.org/2000/svg">
<path d="M39.0525 13.6892C38.6349 13.8973 38.3709 14.3239 38.3709 14.7905V24.4534L1.04097 30.2845C0.44186 30.3779 0 30.8939 0 31.5002L0 31.5101C0.00504491 32.1196 0.455765 32.6337 1.05943 32.7184L38.3709 37.9639V48.21C38.3709 48.8895 38.9217 49.4404 39.6013 49.4404C39.8676 49.4404 40.1266 49.3541 40.3396 49.1943L62.5077 32.4834C63.0513 32.0756 63.1616 31.3043 62.7538 30.7607C62.6838 30.6675 62.601 30.5846 62.5077 30.5146L40.3396 13.8049C39.967 13.5259 39.4689 13.4813 39.0525 13.6892Z" fill="black"/>
</svg>
