<svg width="121" height="93" viewBox="0 0 121 93" fill="none" xmlns="http://www.w3.org/2000/svg">
<rect x="3.60938" y="4.07104" width="113.476" height="85.352" rx="10.0196" fill="white"/>
<rect x="1.96001" y="2.42168" width="116.775" height="88.6507" rx="11.6689" stroke="#41AC7D" stroke-opacity="0.3" stroke-width="3.29872"/>
<rect x="41.561" y="12.8383" width="37.5733" height="37.5733" rx="11.272" fill="#41AC7D"/>
<rect x="41.561" y="12.8383" width="37.5733" height="37.5733" rx="11.272" stroke="white" stroke-width="2.50489"/>
<path d="M57.8178 29.4524L58.5619 31.3682H57.0737L57.8178 29.4524Z" fill="white"/>
<path d="M66.7977 19.3945H53.1136C52.4331 19.3945 51.7805 19.6649 51.2993 20.146C50.8182 20.6272 50.5479 21.2798 50.5479 21.9603V40.7759C50.5479 41.4563 50.8182 42.109 51.2993 42.5901C51.7805 43.0713 52.4331 43.3416 53.1136 43.3416H62.5214V39.0654C62.5214 38.3849 62.7917 37.7323 63.2729 37.2511C63.7541 36.7699 64.4067 36.4996 65.0872 36.4996H69.3634V21.9603C69.3634 21.2798 69.0931 20.6272 68.6119 20.146C68.1308 19.6649 67.4781 19.3945 66.7977 19.3945ZM61.1188 35.5845C61.0212 35.6249 60.9165 35.6453 60.8109 35.6443C60.6386 35.6438 60.4705 35.5913 60.3286 35.4936C60.1866 35.396 60.0775 35.2577 60.0155 35.097L59.2287 33.0786H56.4063L55.6195 35.097C55.5853 35.2096 55.5282 35.3139 55.4518 35.4034C55.3755 35.4929 55.2815 35.5657 55.1757 35.6172C55.0699 35.6687 54.9546 35.6978 54.8371 35.7027C54.7195 35.7077 54.6022 35.6883 54.4925 35.6458C54.3828 35.6033 54.283 35.5387 54.1994 35.4559C54.1158 35.3731 54.0502 35.2739 54.0066 35.1646C53.9631 35.0553 53.9426 34.9382 53.9464 34.8206C53.9502 34.703 53.9782 34.5875 54.0287 34.4812L57.0221 26.7839C57.0852 26.6244 57.1947 26.4875 57.3366 26.3911C57.4784 26.2946 57.646 26.243 57.8175 26.243C57.989 26.243 58.1566 26.2946 58.2984 26.3911C58.4403 26.4875 58.5498 26.6244 58.6129 26.7839L60.5971 31.9154L61.6063 34.4812C61.6873 34.6922 61.6815 34.9267 61.5901 35.1334C61.4988 35.3401 61.3293 35.5023 61.1188 35.5845ZM65.0872 27.9471H64.2319V28.8023C64.2319 29.0291 64.1418 29.2467 63.9814 29.4071C63.821 29.5675 63.6035 29.6576 63.3767 29.6576C63.1498 29.6576 62.9323 29.5675 62.7719 29.4071C62.6115 29.2467 62.5214 29.0291 62.5214 28.8023V27.9471H61.6661C61.4393 27.9471 61.2218 27.857 61.0614 27.6966C60.901 27.5362 60.8109 27.3186 60.8109 27.0918C60.8109 26.865 60.901 26.6474 61.0614 26.4871C61.2218 26.3267 61.4393 26.2366 61.6661 26.2366H62.5214V25.3813C62.5214 25.1545 62.6115 24.9369 62.7719 24.7765C62.9323 24.6162 63.1498 24.5261 63.3767 24.5261C63.6035 24.5261 63.821 24.6162 63.9814 24.7765C64.1418 24.9369 64.2319 25.1545 64.2319 25.3813V26.2366H65.0872C65.314 26.2366 65.5315 26.3267 65.6919 26.4871C65.8523 26.6474 65.9424 26.865 65.9424 27.0918C65.9424 27.3186 65.8523 27.5362 65.6919 27.6966C65.5315 27.857 65.314 27.9471 65.0872 27.9471ZM64.2319 39.0654V42.8456L68.8674 38.2101H65.0872C64.8603 38.2101 64.6428 38.3002 64.4824 38.4606C64.322 38.621 64.2319 38.8385 64.2319 39.0654Z" fill="white"/>
<path d="M36.8516 72.4037V63.3037H40.5956C41.4016 63.3037 42.0906 63.4337 42.6626 63.6937C43.2433 63.9537 43.6896 64.3264 44.0016 64.8117C44.3136 65.297 44.4696 65.8734 44.4696 66.5407C44.4696 67.208 44.3136 67.7844 44.0016 68.2697C43.6896 68.7464 43.2433 69.1147 42.6626 69.3747C42.0906 69.626 41.4016 69.7517 40.5956 69.7517H37.7876L38.5416 68.9847V72.4037H36.8516ZM42.8056 72.4037L40.5046 69.1017H42.3116L44.6256 72.4037H42.8056ZM38.5416 69.1667L37.7876 68.3607H40.5176C41.2629 68.3607 41.8219 68.2004 42.1946 67.8797C42.5759 67.559 42.7666 67.1127 42.7666 66.5407C42.7666 65.96 42.5759 65.5137 42.1946 65.2017C41.8219 64.8897 41.2629 64.7337 40.5176 64.7337H37.7876L38.5416 63.9017V69.1667ZM49.4674 72.4947C48.696 72.4947 48.02 72.343 47.4394 72.0397C46.8674 71.7277 46.421 71.303 46.1004 70.7657C45.7884 70.2284 45.6324 69.6174 45.6324 68.9327C45.6324 68.2394 45.784 67.6284 46.0874 67.0997C46.3994 66.5624 46.824 66.142 47.3614 65.8387C47.9074 65.5354 48.527 65.3837 49.2204 65.3837C49.8964 65.3837 50.4987 65.531 51.0274 65.8257C51.556 66.1204 51.972 66.5364 52.2754 67.0737C52.5787 67.611 52.7304 68.2437 52.7304 68.9717C52.7304 69.041 52.726 69.119 52.7174 69.2057C52.7174 69.2924 52.713 69.3747 52.7044 69.4527H46.9194V68.3737H51.8464L51.2094 68.7117C51.218 68.313 51.1357 67.962 50.9624 67.6587C50.789 67.3554 50.5507 67.117 50.2474 66.9437C49.9527 66.7704 49.6104 66.6837 49.2204 66.6837C48.8217 66.6837 48.4707 66.7704 48.1674 66.9437C47.8727 67.117 47.6387 67.3597 47.4654 67.6717C47.3007 67.975 47.2184 68.3347 47.2184 68.7507V69.0107C47.2184 69.4267 47.3137 69.795 47.5044 70.1157C47.695 70.4364 47.9637 70.6834 48.3104 70.8567C48.657 71.03 49.0557 71.1167 49.5064 71.1167C49.8964 71.1167 50.2474 71.056 50.5594 70.9347C50.8714 70.8134 51.1487 70.6227 51.3914 70.3627L52.2624 71.3637C51.9504 71.7277 51.556 72.0094 51.0794 72.2087C50.6114 72.3994 50.074 72.4947 49.4674 72.4947ZM56.4363 72.4947C55.8556 72.4947 55.2966 72.421 54.7593 72.2737C54.2306 72.1177 53.8103 71.9314 53.4983 71.7147L54.1223 70.4797C54.4343 70.679 54.807 70.8437 55.2403 70.9737C55.6736 71.1037 56.107 71.1687 56.5403 71.1687C57.0516 71.1687 57.42 71.0994 57.6453 70.9607C57.8793 70.822 57.9963 70.6357 57.9963 70.4017C57.9963 70.211 57.9183 70.068 57.7623 69.9727C57.6063 69.8687 57.4026 69.7907 57.1513 69.7387C56.9 69.6867 56.6183 69.639 56.3063 69.5957C56.003 69.5524 55.6953 69.496 55.3833 69.4267C55.08 69.3487 54.8026 69.2404 54.5513 69.1017C54.3 68.9544 54.0963 68.7594 53.9403 68.5167C53.7843 68.274 53.7063 67.9534 53.7063 67.5547C53.7063 67.1127 53.832 66.7314 54.0833 66.4107C54.3346 66.0814 54.6856 65.83 55.1363 65.6567C55.5956 65.4747 56.1373 65.3837 56.7613 65.3837C57.2293 65.3837 57.7016 65.4357 58.1783 65.5397C58.655 65.6437 59.0493 65.791 59.3613 65.9817L58.7373 67.2167C58.408 67.0174 58.0743 66.883 57.7363 66.8137C57.407 66.7357 57.0776 66.6967 56.7483 66.6967C56.2543 66.6967 55.886 66.7704 55.6433 66.9177C55.4093 67.065 55.2923 67.2514 55.2923 67.4767C55.2923 67.6847 55.3703 67.8407 55.5263 67.9447C55.6823 68.0487 55.886 68.131 56.1373 68.1917C56.3886 68.2524 56.666 68.3044 56.9693 68.3477C57.2813 68.3824 57.589 68.4387 57.8923 68.5167C58.1956 68.5947 58.473 68.703 58.7243 68.8417C58.9843 68.9717 59.1923 69.158 59.3483 69.4007C59.5043 69.6434 59.5823 69.9597 59.5823 70.3497C59.5823 70.783 59.4523 71.16 59.1923 71.4807C58.941 71.8014 58.5813 72.0527 58.1133 72.2347C57.6453 72.408 57.0863 72.4947 56.4363 72.4947ZM63.9197 72.4947C63.3304 72.4947 62.8104 72.3864 62.3597 72.1697C61.9091 71.9444 61.5581 71.6064 61.3067 71.1557C61.0554 70.6964 60.9297 70.12 60.9297 69.4267V65.4617H62.5547V69.2057C62.5547 69.8297 62.6934 70.2977 62.9707 70.6097C63.2567 70.913 63.6597 71.0647 64.1797 71.0647C64.5611 71.0647 64.8904 70.9867 65.1677 70.8307C65.4537 70.6747 65.6747 70.4407 65.8307 70.1287C65.9954 69.8167 66.0777 69.431 66.0777 68.9717V65.4617H67.7027V72.4037H66.1557V70.5317L66.4287 71.1037C66.1947 71.5544 65.8524 71.901 65.4017 72.1437C64.9511 72.3777 64.4571 72.4947 63.9197 72.4947ZM69.8304 72.4037V62.7577H71.4554V72.4037H69.8304ZM76.5439 72.4947C75.7813 72.4947 75.1919 72.2997 74.7759 71.9097C74.3599 71.511 74.1519 70.926 74.1519 70.1547V63.9277H75.7769V70.1157C75.7769 70.445 75.8593 70.7007 76.0239 70.8827C76.1973 71.0647 76.4356 71.1557 76.7389 71.1557C77.1029 71.1557 77.4063 71.0604 77.6489 70.8697L78.1039 72.0267C77.9133 72.1827 77.6793 72.2997 77.4019 72.3777C77.1246 72.4557 76.8386 72.4947 76.5439 72.4947ZM73.0079 66.8137V65.5137H77.6359V66.8137H73.0079ZM81.5857 72.4947C81.005 72.4947 80.446 72.421 79.9087 72.2737C79.38 72.1177 78.9597 71.9314 78.6477 71.7147L79.2717 70.4797C79.5837 70.679 79.9564 70.8437 80.3897 70.9737C80.823 71.1037 81.2564 71.1687 81.6897 71.1687C82.201 71.1687 82.5694 71.0994 82.7947 70.9607C83.0287 70.822 83.1457 70.6357 83.1457 70.4017C83.1457 70.211 83.0677 70.068 82.9117 69.9727C82.7557 69.8687 82.552 69.7907 82.3007 69.7387C82.0494 69.6867 81.7677 69.639 81.4557 69.5957C81.1524 69.5524 80.8447 69.496 80.5327 69.4267C80.2294 69.3487 79.952 69.2404 79.7007 69.1017C79.4494 68.9544 79.2457 68.7594 79.0897 68.5167C78.9337 68.274 78.8557 67.9534 78.8557 67.5547C78.8557 67.1127 78.9814 66.7314 79.2327 66.4107C79.484 66.0814 79.835 65.83 80.2857 65.6567C80.745 65.4747 81.2867 65.3837 81.9107 65.3837C82.3787 65.3837 82.851 65.4357 83.3277 65.5397C83.8044 65.6437 84.1987 65.791 84.5107 65.9817L83.8867 67.2167C83.5574 67.0174 83.2237 66.883 82.8857 66.8137C82.5564 66.7357 82.227 66.6967 81.8977 66.6967C81.4037 66.6967 81.0354 66.7704 80.7927 66.9177C80.5587 67.065 80.4417 67.2514 80.4417 67.4767C80.4417 67.6847 80.5197 67.8407 80.6757 67.9447C80.8317 68.0487 81.0354 68.131 81.2867 68.1917C81.538 68.2524 81.8154 68.3044 82.1187 68.3477C82.4307 68.3824 82.7384 68.4387 83.0417 68.5167C83.345 68.5947 83.6224 68.703 83.8737 68.8417C84.1337 68.9717 84.3417 69.158 84.4977 69.4007C84.6537 69.6434 84.7317 69.9597 84.7317 70.3497C84.7317 70.783 84.6017 71.16 84.3417 71.4807C84.0904 71.8014 83.7307 72.0527 83.2627 72.2347C82.7947 72.408 82.2357 72.4947 81.5857 72.4947Z" fill="#1F2D3E"/>
</svg>
