<svg width="121" height="93" viewBox="0 0 121 93" fill="none" xmlns="http://www.w3.org/2000/svg">
<rect x="4" y="4" width="113.476" height="85.352" rx="10.0196" fill="white"/>
<rect x="2.35064" y="2.35064" width="116.775" height="88.6507" rx="11.6689" stroke="#41AC7D" stroke-opacity="0.3" stroke-width="3.29872"/>
<rect x="41.9517" y="12.767" width="37.5733" height="37.5733" rx="11.272" fill="#41AC7D"/>
<rect x="41.9517" y="12.767" width="37.5733" height="37.5733" rx="11.272" stroke="white" stroke-width="2.50489"/>
<path fill-rule="evenodd" clip-rule="evenodd" d="M67.722 37.8799H69.1841V38.3317H67.722V37.8799ZM67.722 36.9735H69.8323V37.4254H67.722V36.9735ZM67.722 36.0699H69.8323V36.5217H67.722V36.0699ZM66.8071 34.5489V40.4421H70.7359V34.5489H66.8071ZM62.2946 34.5489V40.4421H66.2234V34.5489H62.2946ZM61.391 33.6593H71.6508V41.3458H67.722C67.7212 41.4659 67.673 41.5808 67.5878 41.6654C67.5027 41.7501 67.3875 41.7976 67.2674 41.7976H65.7604C65.6425 41.7947 65.5304 41.7458 65.4481 41.6614C65.3658 41.5769 65.3197 41.4637 65.3198 41.3458H61.391V33.6593ZM61.6716 30.2918C62.9272 30.2963 64.1753 30.4854 65.3759 30.853C66.8693 31.2471 68.2772 31.913 69.5292 32.8174H60.5491V39.2719H53.334C53.811 39.0273 54.1929 38.6308 54.4196 38.145C54.6462 37.6592 54.7047 37.1118 54.5857 36.5891C54.4689 36.1491 54.2284 35.7519 53.8926 35.4445C53.5569 35.1371 53.14 34.9324 52.6914 34.8547V34.7818C52.6987 34.4347 52.783 34.0934 52.9383 33.7828C53.0936 33.4722 53.316 33.2 53.5895 32.9859C54.9175 32.0322 56.3978 31.311 57.9673 30.853C59.1716 30.5022 60.4174 30.3134 61.6716 30.2918ZM48.9688 27.5458C49.0395 27.5223 49.1167 27.528 49.1832 27.5614C49.2498 27.5949 49.3004 27.6534 49.3238 27.7241L51.8664 35.3965C52.1037 35.3421 52.3495 35.3359 52.5892 35.378C52.829 35.4202 53.0579 35.5099 53.2625 35.6419C53.4671 35.7738 53.6432 35.9454 53.7804 36.1465C53.9176 36.3476 54.0132 36.5742 54.0615 36.8128C54.1098 37.0514 54.1099 37.2972 54.0618 37.5359C54.0136 37.7745 53.9181 38.0011 53.781 38.2023C53.6439 38.4035 53.468 38.5752 53.2635 38.7073C53.059 38.8394 52.8301 38.9293 52.5904 38.9716C51.538 39.2326 50.9571 39.3786 50.5137 37.6106C50.1292 36.0615 50.5249 35.7557 51.3332 35.5284L48.7906 27.9007C48.779 27.8657 48.7744 27.8288 48.7771 27.792C48.7798 27.7552 48.7897 27.7193 48.8062 27.6863C48.8228 27.6534 48.8456 27.624 48.8735 27.5999C48.9015 27.5758 48.9338 27.5574 48.9688 27.5458ZM61.6716 20.1891C62.5596 20.1891 63.4277 20.4524 64.1661 20.9458C64.9045 21.4392 65.48 22.1404 65.8199 22.9609C66.1597 23.7813 66.2486 24.6841 66.0754 25.5551C65.9021 26.4261 65.4745 27.2262 64.8465 27.8541C64.2186 28.4821 63.4185 28.9097 62.5476 29.083C61.6766 29.2562 60.7738 29.1673 59.9533 28.8275C59.1328 28.4876 58.4316 27.9121 57.9382 27.1737C57.4448 26.4353 57.1815 25.5672 57.1815 24.6792C57.1815 23.4883 57.6546 22.3463 58.4966 21.5042C59.3387 20.6621 60.4807 20.1891 61.6716 20.1891Z" fill="white"/>
<path d="M34.0291 72.3325V64.6625H31.0131V63.2325H38.7351V64.6625H35.7191V72.3325H34.0291ZM42.3995 72.4235C41.6282 72.4235 40.9522 72.2719 40.3715 71.9685C39.7995 71.6565 39.3532 71.2319 39.0325 70.6945C38.7205 70.1572 38.5645 69.5462 38.5645 68.8615C38.5645 68.1682 38.7162 67.5572 39.0195 67.0285C39.3315 66.4912 39.7562 66.0709 40.2935 65.7675C40.8395 65.4642 41.4592 65.3125 42.1525 65.3125C42.8285 65.3125 43.4308 65.4599 43.9595 65.7545C44.4882 66.0492 44.9042 66.4652 45.2075 67.0025C45.5108 67.5399 45.6625 68.1725 45.6625 68.9005C45.6625 68.9699 45.6582 69.0479 45.6495 69.1345C45.6495 69.2212 45.6452 69.3035 45.6365 69.3815H39.8515V68.3025H44.7785L44.1415 68.6405C44.1502 68.2419 44.0678 67.8909 43.8945 67.5875C43.7212 67.2842 43.4828 67.0459 43.1795 66.8725C42.8848 66.6992 42.5425 66.6125 42.1525 66.6125C41.7538 66.6125 41.4028 66.6992 41.0995 66.8725C40.8048 67.0459 40.5708 67.2885 40.3975 67.6005C40.2328 67.9039 40.1505 68.2635 40.1505 68.6795V68.9395C40.1505 69.3555 40.2458 69.7239 40.4365 70.0445C40.6272 70.3652 40.8958 70.6122 41.2425 70.7855C41.5892 70.9589 41.9878 71.0455 42.4385 71.0455C42.8285 71.0455 43.1795 70.9849 43.4915 70.8635C43.8035 70.7422 44.0808 70.5515 44.3235 70.2915L45.1945 71.2925C44.8825 71.6565 44.4882 71.9382 44.0115 72.1375C43.5435 72.3282 43.0062 72.4235 42.3995 72.4235ZM51.31 72.3325V70.9285L51.219 70.6295V68.1725C51.219 67.6959 51.076 67.3275 50.79 67.0675C50.504 66.7989 50.0707 66.6645 49.49 66.6645C49.1 66.6645 48.7143 66.7252 48.333 66.8465C47.9603 66.9679 47.644 67.1369 47.384 67.3535L46.747 66.1705C47.1197 65.8845 47.5617 65.6722 48.073 65.5335C48.593 65.3862 49.1303 65.3125 49.685 65.3125C50.6903 65.3125 51.466 65.5552 52.012 66.0405C52.5667 66.5172 52.844 67.2582 52.844 68.2635V72.3325H51.31ZM49.126 72.4235C48.606 72.4235 48.151 72.3369 47.761 72.1635C47.371 71.9815 47.0677 71.7345 46.851 71.4225C46.643 71.1019 46.539 70.7422 46.539 70.3435C46.539 69.9535 46.63 69.6025 46.812 69.2905C47.0027 68.9785 47.3103 68.7315 47.735 68.5495C48.1597 68.3675 48.723 68.2765 49.425 68.2765H51.44V69.3555H49.542C48.9873 69.3555 48.6147 69.4465 48.424 69.6285C48.2333 69.8019 48.138 70.0185 48.138 70.2785C48.138 70.5732 48.255 70.8072 48.489 70.9805C48.723 71.1539 49.048 71.2405 49.464 71.2405C49.8627 71.2405 50.218 71.1495 50.53 70.9675C50.8507 70.7855 51.0803 70.5169 51.219 70.1615L51.492 71.1365C51.336 71.5439 51.0543 71.8602 50.647 72.0855C50.2483 72.3109 49.7413 72.4235 49.126 72.4235ZM58.1272 72.4235C57.3992 72.4235 56.7492 72.2719 56.1772 71.9685C55.6138 71.6565 55.1718 71.2319 54.8512 70.6945C54.5305 70.1572 54.3702 69.5462 54.3702 68.8615C54.3702 68.1682 54.5305 67.5572 54.8512 67.0285C55.1718 66.4912 55.6138 66.0709 56.1772 65.7675C56.7492 65.4642 57.3992 65.3125 58.1272 65.3125C58.8032 65.3125 59.3968 65.4512 59.9082 65.7285C60.4282 65.9972 60.8225 66.3959 61.0912 66.9245L59.8432 67.6525C59.6352 67.3232 59.3795 67.0805 59.0762 66.9245C58.7815 66.7685 58.4608 66.6905 58.1142 66.6905C57.7155 66.6905 57.3558 66.7772 57.0352 66.9505C56.7145 67.1239 56.4632 67.3752 56.2812 67.7045C56.0992 68.0252 56.0082 68.4109 56.0082 68.8615C56.0082 69.3122 56.0992 69.7022 56.2812 70.0315C56.4632 70.3522 56.7145 70.5992 57.0352 70.7725C57.3558 70.9459 57.7155 71.0325 58.1142 71.0325C58.4608 71.0325 58.7815 70.9545 59.0762 70.7985C59.3795 70.6425 59.6352 70.3999 59.8432 70.0705L61.0912 70.7985C60.8225 71.3185 60.4282 71.7215 59.9082 72.0075C59.3968 72.2849 58.8032 72.4235 58.1272 72.4235ZM66.3714 65.3125C66.9261 65.3125 67.4201 65.4209 67.8534 65.6375C68.2954 65.8542 68.6421 66.1879 68.8934 66.6385C69.1447 67.0805 69.2704 67.6525 69.2704 68.3545V72.3325H67.6454V68.5625C67.6454 67.9472 67.4981 67.4879 67.2034 67.1845C66.9174 66.8812 66.5144 66.7295 65.9944 66.7295C65.6131 66.7295 65.2751 66.8075 64.9804 66.9635C64.6857 67.1195 64.4561 67.3535 64.2914 67.6655C64.1354 67.9689 64.0574 68.3545 64.0574 68.8225V72.3325H62.4324V62.6865H64.0574V67.2625L63.7064 66.6905C63.9491 66.2485 64.3001 65.9105 64.7594 65.6765C65.2274 65.4339 65.7647 65.3125 66.3714 65.3125ZM74.6075 72.4235C73.8362 72.4235 73.1602 72.2719 72.5795 71.9685C72.0075 71.6565 71.5612 71.2319 71.2405 70.6945C70.9285 70.1572 70.7725 69.5462 70.7725 68.8615C70.7725 68.1682 70.9242 67.5572 71.2275 67.0285C71.5395 66.4912 71.9642 66.0709 72.5015 65.7675C73.0475 65.4642 73.6672 65.3125 74.3605 65.3125C75.0365 65.3125 75.6388 65.4599 76.1675 65.7545C76.6962 66.0492 77.1122 66.4652 77.4155 67.0025C77.7188 67.5399 77.8705 68.1725 77.8705 68.9005C77.8705 68.9699 77.8662 69.0479 77.8575 69.1345C77.8575 69.2212 77.8532 69.3035 77.8445 69.3815H72.0595V68.3025H76.9865L76.3495 68.6405C76.3582 68.2419 76.2758 67.8909 76.1025 67.5875C75.9292 67.2842 75.6908 67.0459 75.3875 66.8725C75.0928 66.6992 74.7505 66.6125 74.3605 66.6125C73.9618 66.6125 73.6108 66.6992 73.3075 66.8725C73.0128 67.0459 72.7788 67.2885 72.6055 67.6005C72.4408 67.9039 72.3585 68.2635 72.3585 68.6795V68.9395C72.3585 69.3555 72.4538 69.7239 72.6445 70.0445C72.8352 70.3652 73.1038 70.6122 73.4505 70.7855C73.7972 70.9589 74.1958 71.0455 74.6465 71.0455C75.0365 71.0455 75.3875 70.9849 75.6995 70.8635C76.0115 70.7422 76.2888 70.5515 76.5315 70.2915L77.4025 71.2925C77.0905 71.6565 76.6962 71.9382 76.2195 72.1375C75.7515 72.3282 75.2142 72.4235 74.6075 72.4235ZM79.4314 72.3325V65.3905H80.9784V67.3015L80.7964 66.7425C81.0044 66.2745 81.3294 65.9192 81.7714 65.6765C82.2221 65.4339 82.7811 65.3125 83.4484 65.3125V66.8595C83.3791 66.8422 83.3141 66.8335 83.2534 66.8335C83.1928 66.8249 83.1321 66.8205 83.0714 66.8205C82.4561 66.8205 81.9664 67.0025 81.6024 67.3665C81.2384 67.7219 81.0564 68.2549 81.0564 68.9655V72.3325H79.4314ZM87.0354 72.4235C86.4547 72.4235 85.8957 72.3499 85.3584 72.2025C84.8297 72.0465 84.4094 71.8602 84.0974 71.6435L84.7214 70.4085C85.0334 70.6079 85.4061 70.7725 85.8394 70.9025C86.2727 71.0325 86.7061 71.0975 87.1394 71.0975C87.6507 71.0975 88.0191 71.0282 88.2444 70.8895C88.4784 70.7509 88.5954 70.5645 88.5954 70.3305C88.5954 70.1399 88.5174 69.9969 88.3614 69.9015C88.2054 69.7975 88.0017 69.7195 87.7504 69.6675C87.4991 69.6155 87.2174 69.5679 86.9054 69.5245C86.6021 69.4812 86.2944 69.4249 85.9824 69.3555C85.6791 69.2775 85.4017 69.1692 85.1504 69.0305C84.8991 68.8832 84.6954 68.6882 84.5394 68.4455C84.3834 68.2029 84.3054 67.8822 84.3054 67.4835C84.3054 67.0415 84.4311 66.6602 84.6824 66.3395C84.9337 66.0102 85.2847 65.7589 85.7354 65.5855C86.1947 65.4035 86.7364 65.3125 87.3604 65.3125C87.8284 65.3125 88.3007 65.3645 88.7774 65.4685C89.2541 65.5725 89.6484 65.7199 89.9604 65.9105L89.3364 67.1455C89.0071 66.9462 88.6734 66.8119 88.3354 66.7425C88.0061 66.6645 87.6767 66.6255 87.3474 66.6255C86.8534 66.6255 86.4851 66.6992 86.2424 66.8465C86.0084 66.9939 85.8914 67.1802 85.8914 67.4055C85.8914 67.6135 85.9694 67.7695 86.1254 67.8735C86.2814 67.9775 86.4851 68.0599 86.7364 68.1205C86.9877 68.1812 87.2651 68.2332 87.5684 68.2765C87.8804 68.3112 88.1881 68.3675 88.4914 68.4455C88.7947 68.5235 89.0721 68.6319 89.3234 68.7705C89.5834 68.9005 89.7914 69.0869 89.9474 69.3295C90.1034 69.5722 90.1814 69.8885 90.1814 70.2785C90.1814 70.7119 90.0514 71.0889 89.7914 71.4095C89.5401 71.7302 89.1804 71.9815 88.7124 72.1635C88.2444 72.3369 87.6854 72.4235 87.0354 72.4235Z" fill="#1F2D3E"/>
</svg>
