<svg width="121" height="93" viewBox="0 0 121 93" fill="none" xmlns="http://www.w3.org/2000/svg">
<rect x="3.52393" y="4" width="113.476" height="85.352" rx="10.0196" fill="white"/>
<rect x="1.87457" y="2.35064" width="116.775" height="88.6507" rx="11.6689" stroke="#41AC7D" stroke-opacity="0.3" stroke-width="3.29872"/>
<rect x="41.4756" y="12.767" width="37.5733" height="37.5733" rx="11.272" fill="#41AC7D"/>
<rect x="41.4756" y="12.767" width="37.5733" height="37.5733" rx="11.272" stroke="white" stroke-width="2.50489"/>
<g clip-path="url(#clip0_299_9893)">
<path fill-rule="evenodd" clip-rule="evenodd" d="M58.5616 40.4315C57.0114 40.2092 55.5865 39.5982 54.3885 38.7006C54.0775 38.4674 53.6356 38.5308 53.4024 38.8421C53.1697 39.1531 53.2327 39.5951 53.544 39.8278C54.9269 40.8643 56.5723 41.5693 58.3616 41.826C58.7465 41.881 59.1036 41.6133 59.1589 41.2288C59.2138 40.8438 58.9462 40.4867 58.5616 40.4315ZM61.1789 22.3049C65.6137 22.9406 69.0265 26.7591 69.0265 31.3682C69.0265 35.9773 65.6137 39.7958 61.1789 40.4315C60.7943 40.4867 60.5267 40.8438 60.5816 41.2288C60.6369 41.6133 60.994 41.881 61.3789 41.826C66.4962 41.0925 70.4352 36.6869 70.4352 31.3682C70.4352 26.0495 66.4962 21.6439 61.3789 20.9103C60.994 20.8554 60.6369 21.1231 60.5816 21.5076C60.5267 21.8925 60.7943 22.2496 61.1789 22.3049ZM52.5379 36.85C51.6402 35.6515 51.0292 34.2267 50.807 32.6768C50.7517 32.2923 50.3946 32.0246 50.01 32.0795C49.6251 32.1348 49.3575 32.4919 49.4124 32.8768C49.6691 34.6658 50.3742 36.3111 51.4102 37.6944C51.6434 38.0058 52.0853 38.0688 52.3963 37.836C52.7076 37.6029 52.771 37.1609 52.5379 36.85ZM50.807 30.0595C51.0292 28.5093 51.6402 27.0845 52.5379 25.8864C52.771 25.5754 52.7076 25.1335 52.3963 24.9004C52.0853 24.6676 51.6434 24.7306 51.4106 25.0419C50.3742 26.4249 49.6691 28.0702 49.4124 29.8595C49.3575 30.2444 49.6251 30.6015 50.0097 30.6568C50.3946 30.7118 50.7517 30.4441 50.807 30.0595ZM54.3885 24.0358C55.5869 23.1381 57.0117 22.5271 58.5616 22.3049C58.9462 22.2496 59.2138 21.8925 59.1589 21.508C59.1036 21.1231 58.7465 20.8554 58.3616 20.9103C56.5726 21.1671 54.9273 21.8721 53.544 22.9082C53.2327 23.1413 53.1697 23.5833 53.4024 23.8942C53.6356 24.2055 54.0775 24.2689 54.3885 24.0358Z" fill="white"/>
<path fill-rule="evenodd" clip-rule="evenodd" d="M59.8701 23.6205C55.5949 23.6205 52.1226 27.0921 52.1226 31.3681C52.1226 35.644 55.5949 39.1157 59.8701 39.1157C64.1454 39.1157 67.6177 35.644 67.6177 31.3681C67.6177 27.0921 64.1454 23.6205 59.8701 23.6205ZM63.7651 31.9653C63.9693 31.8368 64.0961 31.6111 64.0961 31.3681C64.0961 31.1251 63.9693 30.8993 63.7651 30.7708L58.1305 27.2492C57.9121 27.1136 57.641 27.1062 57.4156 27.2305C57.1902 27.3545 57.0528 27.5904 57.0528 27.8464V34.8897C57.0528 35.1457 57.1902 35.3817 57.4156 35.5056C57.641 35.6299 57.9121 35.6226 58.1305 35.487L63.7651 31.9653Z" fill="white"/>
</g>
<path d="M41.0318 72.3325V63.2325H45.0098C45.9978 63.2325 46.8644 63.4232 47.6098 63.8045C48.3551 64.1859 48.9358 64.7145 49.3518 65.3905C49.7678 66.0665 49.9758 66.8639 49.9758 67.7825C49.9758 68.6925 49.7678 69.4899 49.3518 70.1745C48.9358 70.8505 48.3551 71.3792 47.6098 71.7605C46.8644 72.1419 45.9978 72.3325 45.0098 72.3325H41.0318ZM42.7218 70.9025H44.9318C45.6164 70.9025 46.2058 70.7725 46.6998 70.5125C47.2024 70.2525 47.5881 69.8885 47.8568 69.4205C48.1341 68.9525 48.2728 68.4065 48.2728 67.7825C48.2728 67.1499 48.1341 66.6039 47.8568 66.1445C47.5881 65.6765 47.2024 65.3125 46.6998 65.0525C46.2058 64.7925 45.6164 64.6625 44.9318 64.6625H42.7218V70.9025ZM54.879 72.4235C54.1077 72.4235 53.4317 72.2719 52.851 71.9685C52.279 71.6565 51.8327 71.2319 51.512 70.6945C51.2 70.1572 51.044 69.5462 51.044 68.8615C51.044 68.1682 51.1957 67.5572 51.499 67.0285C51.811 66.4912 52.2357 66.0709 52.773 65.7675C53.319 65.4642 53.9387 65.3125 54.632 65.3125C55.308 65.3125 55.9103 65.4599 56.439 65.7545C56.9677 66.0492 57.3837 66.4652 57.687 67.0025C57.9903 67.5399 58.142 68.1725 58.142 68.9005C58.142 68.9699 58.1377 69.0479 58.129 69.1345C58.129 69.2212 58.1247 69.3035 58.116 69.3815H52.331V68.3025H57.258L56.621 68.6405C56.6297 68.2419 56.5473 67.8909 56.374 67.5875C56.2007 67.2842 55.9623 67.0459 55.659 66.8725C55.3643 66.6992 55.022 66.6125 54.632 66.6125C54.2333 66.6125 53.8823 66.6992 53.579 66.8725C53.2843 67.0459 53.0503 67.2885 52.877 67.6005C52.7123 67.9039 52.63 68.2635 52.63 68.6795V68.9395C52.63 69.3555 52.7253 69.7239 52.916 70.0445C53.1067 70.3652 53.3753 70.6122 53.722 70.7855C54.0687 70.9589 54.4673 71.0455 54.918 71.0455C55.308 71.0455 55.659 70.9849 55.971 70.8635C56.283 70.7422 56.5603 70.5515 56.803 70.2915L57.674 71.2925C57.362 71.6565 56.9677 71.9382 56.491 72.1375C56.023 72.3282 55.4857 72.4235 54.879 72.4235ZM68.4649 65.3125C69.0196 65.3125 69.5092 65.4209 69.9339 65.6375C70.3672 65.8542 70.7052 66.1879 70.9479 66.6385C71.1906 67.0805 71.3119 67.6525 71.3119 68.3545V72.3325H69.6869V68.5625C69.6869 67.9472 69.5526 67.4879 69.2839 67.1845C69.0152 66.8812 68.6296 66.7295 68.1269 66.7295C67.7716 66.7295 67.4552 66.8075 67.1779 66.9635C66.9092 67.1195 66.6969 67.3492 66.5409 67.6525C66.3936 67.9559 66.3199 68.3415 66.3199 68.8095V72.3325H64.6949V68.5625C64.6949 67.9472 64.5606 67.4879 64.2919 67.1845C64.0232 66.8812 63.6376 66.7295 63.1349 66.7295C62.7796 66.7295 62.4632 66.8075 62.1859 66.9635C61.9172 67.1195 61.7049 67.3492 61.5489 67.6525C61.4016 67.9559 61.3279 68.3415 61.3279 68.8095V72.3325H59.7029V65.3905H61.2499V67.2365L60.9769 66.6905C61.2109 66.2399 61.5489 65.8975 61.9909 65.6635C62.4416 65.4295 62.9529 65.3125 63.5249 65.3125C64.1749 65.3125 64.7382 65.4729 65.2149 65.7935C65.7002 66.1142 66.0209 66.5995 66.1769 67.2495L65.5399 67.0285C65.7652 66.5085 66.1379 66.0925 66.6579 65.7805C67.1779 65.4685 67.7802 65.3125 68.4649 65.3125ZM76.5212 72.4235C75.8105 72.4235 75.1778 72.2719 74.6232 71.9685C74.0685 71.6565 73.6308 71.2319 73.3102 70.6945C72.9895 70.1572 72.8292 69.5462 72.8292 68.8615C72.8292 68.1682 72.9895 67.5572 73.3102 67.0285C73.6308 66.4912 74.0685 66.0709 74.6232 65.7675C75.1778 65.4642 75.8105 65.3125 76.5212 65.3125C77.2405 65.3125 77.8775 65.4642 78.4322 65.7675C78.9955 66.0709 79.4332 66.4869 79.7452 67.0155C80.0658 67.5442 80.2262 68.1595 80.2262 68.8615C80.2262 69.5462 80.0658 70.1572 79.7452 70.6945C79.4332 71.2319 78.9955 71.6565 78.4322 71.9685C77.8775 72.2719 77.2405 72.4235 76.5212 72.4235ZM76.5212 71.0325C76.9198 71.0325 77.2752 70.9459 77.5872 70.7725C77.8992 70.5992 78.1418 70.3479 78.3152 70.0185C78.4972 69.6892 78.5882 69.3035 78.5882 68.8615C78.5882 68.4109 78.4972 68.0252 78.3152 67.7045C78.1418 67.3752 77.8992 67.1239 77.5872 66.9505C77.2752 66.7772 76.9242 66.6905 76.5342 66.6905C76.1355 66.6905 75.7802 66.7772 75.4682 66.9505C75.1648 67.1239 74.9222 67.3752 74.7402 67.7045C74.5582 68.0252 74.4672 68.4109 74.4672 68.8615C74.4672 69.3035 74.5582 69.6892 74.7402 70.0185C74.9222 70.3479 75.1648 70.5992 75.4682 70.7725C75.7802 70.9459 76.1312 71.0325 76.5212 71.0325Z" fill="#1F2D3E"/>
<defs>
<clipPath id="clip0_299_9893">
<rect width="22.5384" height="22.5384" fill="white" transform="translate(48.6011 20.0989)"/>
</clipPath>
</defs>
</svg>
