<svg width="121" height="93" viewBox="0 0 121 93" fill="none" xmlns="http://www.w3.org/2000/svg">
<rect x="4.21924" y="4.07104" width="113.476" height="85.352" rx="10.0196" fill="white"/>
<rect x="2.56988" y="2.42168" width="116.775" height="88.6507" rx="11.6689" stroke="#41AC7D" stroke-opacity="0.3" stroke-width="3.29872"/>
<rect x="42.1709" y="12.8383" width="37.5733" height="37.5733" rx="11.272" fill="#41AC7D"/>
<rect x="42.1709" y="12.8383" width="37.5733" height="37.5733" rx="11.272" stroke="white" stroke-width="2.50489"/>
<path d="M69.621 26.9761V32.8773C69.621 33.3728 69.5234 33.8635 69.3338 34.3213C69.1442 34.779 68.8663 35.195 68.5159 35.5454C68.1655 35.8957 67.7496 36.1737 67.2918 36.3633C66.834 36.5529 66.3434 36.6505 65.8479 36.6505H56.0376V37.4051C56.0394 38.005 56.2785 38.5798 56.7027 39.004C57.1268 39.4282 57.7016 39.6672 58.3015 39.669H67.0024C67.1205 39.6706 67.2366 39.699 67.342 39.752L70.0361 41.0953C70.1415 41.1484 70.2576 41.1768 70.3757 41.1783C70.5169 41.1782 70.6553 41.139 70.7756 41.0651C70.8844 40.9971 70.974 40.9026 71.0361 40.7903C71.0981 40.6781 71.1306 40.5519 71.1303 40.4237V29.1041C71.129 28.6371 70.9832 28.1818 70.713 27.8008C70.4428 27.4199 70.0614 27.1318 69.621 26.9761Z" fill="white"/>
<path d="M68.1117 32.8774V23.8218C68.1117 23.2213 67.8732 22.6455 67.4487 22.2209C67.0241 21.7964 66.4483 21.5579 65.8478 21.5579H52.2644C51.664 21.5579 51.0881 21.7964 50.6636 22.2209C50.239 22.6455 50.0005 23.2213 50.0005 23.8218V37.4052C50.0004 37.5474 50.0406 37.6867 50.1162 37.8071C50.1919 37.9275 50.3001 38.024 50.4282 38.0856C50.5564 38.1472 50.6994 38.1714 50.8406 38.1553C50.9819 38.1391 51.1158 38.0834 51.2268 37.9946L54.5864 35.3066C54.7199 35.1998 54.8856 35.1416 55.0565 35.1413H65.8478C66.4483 35.1413 67.0241 34.9028 67.4487 34.4782C67.8732 34.0536 68.1117 33.4778 68.1117 32.8774ZM59.7504 31.6549C59.7165 31.7485 59.6624 31.8336 59.592 31.904C59.5216 31.9744 59.4365 32.0285 59.3429 32.0624C59.2525 32.1022 59.1549 32.1227 59.0561 32.1227C58.9574 32.1227 58.8597 32.1022 58.7694 32.0624C58.6757 32.0285 58.5907 31.9744 58.5202 31.904C58.4498 31.8336 58.3957 31.7485 58.3618 31.6549C58.3232 31.5642 58.3027 31.4667 58.3015 31.3681C58.3044 31.1683 58.3826 30.977 58.5203 30.8323C58.5937 30.7657 58.6779 30.7121 58.7694 30.6739C58.8594 30.6328 58.9572 30.6116 59.0561 30.6116C59.1551 30.6116 59.2528 30.6328 59.3429 30.6739C59.4343 30.7121 59.5185 30.7657 59.5919 30.8323C59.7309 30.9762 59.8093 31.1681 59.8107 31.3681C59.8096 31.4667 59.789 31.5642 59.7504 31.6549ZM59.8945 29.0137C59.8534 29.0383 59.8199 29.0736 59.7974 29.1159C59.7749 29.1582 59.7644 29.2058 59.767 29.2536C59.767 29.4538 59.6875 29.6457 59.546 29.7872C59.4044 29.9288 59.2125 30.0083 59.0123 30.0083C58.8122 30.0083 58.6203 29.9288 58.4787 29.7872C58.3372 29.6457 58.2577 29.4538 58.2577 29.2536C58.2526 28.9074 58.3502 28.5674 58.5382 28.2766C58.7263 27.9858 58.9963 27.7572 59.3142 27.6198C59.4729 27.554 59.6061 27.4388 59.6942 27.2913C59.7823 27.1438 59.8205 26.9718 59.8031 26.8009C59.7857 26.63 59.7137 26.4692 59.5978 26.3424C59.4819 26.2156 59.3282 26.1296 59.1595 26.097C58.9715 26.0627 58.7774 26.0961 58.6116 26.1913C58.4458 26.2865 58.3191 26.4373 58.2539 26.6169C58.1855 26.8038 58.0461 26.9561 57.8659 27.0407C57.6858 27.1252 57.4796 27.1352 57.2921 27.0685C57.1046 27.0017 56.9511 26.8636 56.865 26.6842C56.7788 26.5048 56.7671 26.2986 56.8322 26.1106C56.9605 25.7478 57.1775 25.4228 57.4635 25.1653C57.7494 24.9077 58.0952 24.7258 58.4693 24.6359C58.8435 24.546 59.2342 24.5511 59.6059 24.6507C59.9776 24.7503 60.3186 24.9413 60.5977 25.2062C60.8768 25.4711 61.0852 25.8016 61.2041 26.1676C61.3229 26.5336 61.3483 26.9235 61.2781 27.3019C61.2079 27.6802 61.0441 28.035 60.8018 28.334C60.5595 28.6329 60.2463 28.8666 59.8907 29.0137H59.8945Z" fill="white"/>
<path d="M46.1623 67.4896H50.6993V68.9196H46.1623V67.4896ZM46.3053 72.4036H44.6153V63.3036H51.2583V64.7206H46.3053V72.4036ZM51.212 72.4036L55.307 63.3036H56.971L61.079 72.4036H59.311L55.788 64.2006H56.464L52.954 72.4036H51.212ZM53.097 70.2976L53.552 68.9716H58.466L58.921 70.2976H53.097ZM66.3734 72.5336C65.6627 72.5336 65.0084 72.4166 64.4104 72.1826C63.8124 71.9486 63.2924 71.6236 62.8504 71.2076C62.4084 70.7829 62.0661 70.2889 61.8234 69.7256C61.5807 69.1536 61.4594 68.5296 61.4594 67.8536C61.4594 67.1776 61.5807 66.5579 61.8234 65.9946C62.0661 65.4226 62.4084 64.9286 62.8504 64.5126C63.2924 64.0879 63.8124 63.7586 64.4104 63.5246C65.0084 63.2906 65.6584 63.1736 66.3604 63.1736C67.0711 63.1736 67.7211 63.2906 68.3104 63.5246C68.9084 63.7586 69.4284 64.0836 69.8704 64.4996C70.3124 64.9156 70.6547 65.4096 70.8974 65.9816C71.1401 66.5536 71.2614 67.1776 71.2614 67.8536C71.2614 68.5296 71.1401 69.1536 70.8974 69.7256C70.6547 70.2976 70.3124 70.7916 69.8704 71.2076C69.4284 71.6236 68.9084 71.9486 68.3104 72.1826C67.7211 72.4166 67.0754 72.5336 66.3734 72.5336ZM69.3374 74.3926C69.0167 74.3926 68.7047 74.3536 68.4014 74.2756C68.1067 74.2062 67.8121 74.0849 67.5174 73.9116C67.2314 73.7469 66.9324 73.5259 66.6204 73.2486C66.3084 72.9799 65.9661 72.6462 65.5934 72.2476L67.3874 71.7796C67.6301 72.1002 67.8597 72.3559 68.0764 72.5466C68.3017 72.7459 68.5184 72.8889 68.7264 72.9756C68.9344 73.0622 69.1511 73.1056 69.3764 73.1056C69.9744 73.1056 70.4944 72.8629 70.9364 72.3776L71.7164 73.3136C71.1097 74.0329 70.3167 74.3926 69.3374 74.3926ZM66.3604 71.0516C66.8197 71.0516 67.2444 70.9736 67.6344 70.8176C68.0244 70.6616 68.3624 70.4406 68.6484 70.1546C68.9344 69.8599 69.1554 69.5176 69.3114 69.1276C69.4761 68.7376 69.5584 68.3129 69.5584 67.8536C69.5584 67.3856 69.4761 66.9609 69.3114 66.5796C69.1554 66.1896 68.9344 65.8516 68.6484 65.5656C68.3624 65.2709 68.0244 65.0456 67.6344 64.8896C67.2444 64.7336 66.8197 64.6556 66.3604 64.6556C65.9011 64.6556 65.4764 64.7336 65.0864 64.8896C64.6964 65.0456 64.3584 65.2709 64.0724 65.5656C63.7864 65.8516 63.5611 66.1896 63.3964 66.5796C63.2404 66.9609 63.1624 67.3856 63.1624 67.8536C63.1624 68.3129 63.2404 68.7376 63.3964 69.1276C63.5611 69.5176 63.7864 69.8599 64.0724 70.1546C64.3584 70.4406 64.6964 70.6616 65.0864 70.8176C65.4764 70.9736 65.9011 71.0516 66.3604 71.0516ZM75.0418 72.4946C74.4611 72.4946 73.9021 72.4209 73.3648 72.2736C72.8361 72.1176 72.4158 71.9312 72.1038 71.7146L72.7278 70.4796C73.0398 70.6789 73.4124 70.8436 73.8458 70.9736C74.2791 71.1036 74.7124 71.1686 75.1458 71.1686C75.6571 71.1686 76.0254 71.0992 76.2508 70.9606C76.4848 70.8219 76.6018 70.6356 76.6018 70.4016C76.6018 70.2109 76.5238 70.0679 76.3678 69.9726C76.2118 69.8686 76.0081 69.7906 75.7568 69.7386C75.5054 69.6866 75.2238 69.6389 74.9118 69.5956C74.6084 69.5522 74.3008 69.4959 73.9888 69.4266C73.6854 69.3486 73.4081 69.2402 73.1568 69.1016C72.9054 68.9542 72.7018 68.7592 72.5458 68.5166C72.3898 68.2739 72.3118 67.9532 72.3118 67.5546C72.3118 67.1126 72.4374 66.7312 72.6888 66.4106C72.9401 66.0812 73.2911 65.8299 73.7418 65.6566C74.2011 65.4746 74.7428 65.3836 75.3668 65.3836C75.8348 65.3836 76.3071 65.4356 76.7838 65.5396C77.2604 65.6436 77.6548 65.7909 77.9668 65.9816L77.3428 67.2166C77.0134 67.0172 76.6798 66.8829 76.3418 66.8136C76.0124 66.7356 75.6831 66.6966 75.3538 66.6966C74.8598 66.6966 74.4914 66.7702 74.2488 66.9176C74.0148 67.0649 73.8978 67.2512 73.8978 67.4766C73.8978 67.6846 73.9758 67.8406 74.1318 67.9446C74.2878 68.0486 74.4914 68.1309 74.7428 68.1916C74.9941 68.2522 75.2714 68.3042 75.5748 68.3476C75.8868 68.3822 76.1944 68.4386 76.4978 68.5166C76.8011 68.5946 77.0784 68.7029 77.3298 68.8416C77.5898 68.9716 77.7978 69.1579 77.9538 69.4006C78.1098 69.6432 78.1878 69.9596 78.1878 70.3496C78.1878 70.7829 78.0578 71.1599 77.7978 71.4806C77.5464 71.8012 77.1868 72.0526 76.7188 72.2346C76.2508 72.4079 75.6918 72.4946 75.0418 72.4946Z" fill="#1F2D3E"/>
</svg>
