<svg width="121" height="93" viewBox="0 0 121 93" fill="none" xmlns="http://www.w3.org/2000/svg">
<rect x="3.30469" y="4.07104" width="113.476" height="85.352" rx="10.0196" fill="white"/>
<rect x="1.65533" y="2.42168" width="116.775" height="88.6507" rx="11.6689" stroke="#41AC7D" stroke-opacity="0.3" stroke-width="3.29872"/>
<rect x="41.2563" y="12.8383" width="37.5733" height="37.5733" rx="11.272" fill="#41AC7D"/>
<rect x="41.2563" y="12.8383" width="37.5733" height="37.5733" rx="11.272" stroke="white" stroke-width="2.50489"/>
<g clip-path="url(#clip0_299_9875)">
<path d="M70.3164 24.1749V27.0415H50.5952V24.1749C50.6024 23.6212 50.8289 23.093 51.225 22.7062C51.6211 22.3193 52.1545 22.1053 52.7082 22.1112H54.1168V23.5199C54.1168 24.0803 54.3395 24.6177 54.7357 25.014C55.132 25.4102 55.6694 25.6328 56.2298 25.6328C56.7902 25.6328 57.3277 25.4102 57.7239 25.014C58.1202 24.6177 58.3428 24.0803 58.3428 23.5199V22.1112H62.5688V23.5199C62.5688 24.0803 62.7914 24.6177 63.1876 25.014C63.5839 25.4102 64.1213 25.6328 64.6817 25.6328C65.2421 25.6328 65.7796 25.4102 66.1758 25.014C66.5721 24.6177 66.7947 24.0803 66.7947 23.5199V22.1112H68.2034C68.757 22.1053 69.2904 22.3193 69.6865 22.7062C70.0826 23.093 70.3091 23.6212 70.3164 24.1749Z" fill="white"/>
<path d="M50.5952 28.4502V39.7687C50.6024 40.3224 50.8289 40.8505 51.225 41.2374C51.6211 41.6243 52.1545 41.8383 52.7082 41.8324H68.2034C68.757 41.8383 69.2904 41.6243 69.6865 41.2374C70.0826 40.8505 70.3091 40.3224 70.3164 39.7687V28.4502H50.5952ZM56.9342 38.3108C56.9336 38.4974 56.8592 38.6762 56.7273 38.8082C56.5953 38.9402 56.4165 39.0146 56.2298 39.0151H54.8212C54.6345 39.0146 54.4557 38.9402 54.3237 38.8082C54.1918 38.6762 54.1174 38.4974 54.1168 38.3108V36.9021C54.1174 36.7155 54.1918 36.5366 54.3237 36.4047C54.4557 36.2727 54.6345 36.1983 54.8212 36.1978H56.2298C56.4165 36.1983 56.5953 36.2727 56.7273 36.4047C56.8592 36.5366 56.9336 36.7155 56.9342 36.9021V38.3108ZM56.9342 33.3805C56.9336 33.5671 56.8592 33.7459 56.7273 33.8779C56.5953 34.0099 56.4165 34.0843 56.2298 34.0848H54.8212C54.6345 34.0843 54.4557 34.0099 54.3237 33.8779C54.1918 33.7459 54.1174 33.5671 54.1168 33.3805V31.9718C54.1174 31.7852 54.1918 31.6064 54.3237 31.4744C54.4557 31.3424 54.6345 31.268 54.8212 31.2675H56.2298C56.4165 31.268 56.5953 31.3424 56.7273 31.4744C56.8592 31.6064 56.9336 31.7852 56.9342 31.9718V33.3805ZM61.8644 38.3108C61.8639 38.4974 61.7895 38.6762 61.6575 38.8082C61.5256 38.9402 61.3467 39.0146 61.1601 39.0151H59.7515C59.5648 39.0146 59.386 38.9402 59.254 38.8082C59.122 38.6762 59.0477 38.4974 59.0471 38.3108V36.9021C59.0477 36.7155 59.122 36.5366 59.254 36.4047C59.386 36.2727 59.5648 36.1983 59.7515 36.1978H61.1601C61.3467 36.1983 61.5256 36.2727 61.6575 36.4047C61.7895 36.5366 61.8639 36.7155 61.8644 36.9021V38.3108ZM61.8644 33.3805C61.8639 33.5671 61.7895 33.7459 61.6575 33.8779C61.5256 34.0099 61.3467 34.0843 61.1601 34.0848H59.7515C59.5648 34.0843 59.386 34.0099 59.254 33.8779C59.122 33.7459 59.0477 33.5671 59.0471 33.3805V31.9718C59.0477 31.7852 59.122 31.6064 59.254 31.4744C59.386 31.3424 59.5648 31.268 59.7515 31.2675H61.1601C61.3467 31.268 61.5256 31.3424 61.6575 31.4744C61.7895 31.6064 61.8639 31.7852 61.8644 31.9718V33.3805ZM66.7947 33.3805C66.7942 33.5671 66.7198 33.7459 66.5878 33.8779C66.4559 34.0099 66.277 34.0843 66.0904 34.0848H64.6817C64.4951 34.0843 64.3163 34.0099 64.1843 33.8779C64.0523 33.7459 63.978 33.5671 63.9774 33.3805V31.9718C63.978 31.7852 64.0523 31.6064 64.1843 31.4744C64.3163 31.3424 64.4951 31.268 64.6817 31.2675H66.0904C66.277 31.268 66.4559 31.3424 66.5878 31.4744C66.7198 31.6064 66.7942 31.7852 66.7947 31.9718V33.3805Z" fill="white"/>
<path d="M56.934 22.1113V23.52C56.934 23.7068 56.8598 23.8859 56.7278 24.018C56.5957 24.1501 56.4165 24.2243 56.2297 24.2243C56.0429 24.2243 55.8638 24.1501 55.7317 24.018C55.5996 23.8859 55.5254 23.7068 55.5254 23.52V22.1113C55.5254 21.9245 55.5996 21.7454 55.7317 21.6133C55.8638 21.4812 56.0429 21.407 56.2297 21.407C56.4165 21.407 56.5957 21.4812 56.7278 21.6133C56.8598 21.7454 56.934 21.9245 56.934 22.1113Z" fill="white"/>
<path d="M65.3862 22.1113V23.52C65.3862 23.7068 65.312 23.8859 65.1799 24.018C65.0478 24.1501 64.8687 24.2243 64.6819 24.2243C64.4951 24.2243 64.3159 24.1501 64.1838 24.018C64.0517 23.8859 63.9775 23.7068 63.9775 23.52V22.1113C63.9775 21.9245 64.0517 21.7454 64.1838 21.6133C64.3159 21.4812 64.4951 21.407 64.6819 21.407C64.8687 21.407 65.0478 21.4812 65.1799 21.6133C65.312 21.7454 65.3862 21.9245 65.3862 22.1113Z" fill="white"/>
</g>
<path d="M32.9441 72.5337C32.2334 72.5337 31.5531 72.434 30.9031 72.2347C30.2531 72.0267 29.7374 71.7624 29.3561 71.4417L29.9411 70.1287C30.3051 70.4147 30.7557 70.653 31.2931 70.8437C31.8304 71.0344 32.3807 71.1297 32.9441 71.1297C33.4207 71.1297 33.8064 71.0777 34.1011 70.9737C34.3957 70.8697 34.6124 70.731 34.7511 70.5577C34.8897 70.3757 34.9591 70.172 34.9591 69.9467C34.9591 69.6694 34.8594 69.4484 34.6601 69.2837C34.4607 69.1104 34.2007 68.976 33.8801 68.8807C33.5681 68.7767 33.2171 68.6814 32.8271 68.5947C32.4457 68.508 32.0601 68.4084 31.6701 68.2957C31.2887 68.1744 30.9377 68.0227 30.6171 67.8407C30.3051 67.65 30.0494 67.3987 29.8501 67.0867C29.6507 66.7747 29.5511 66.376 29.5511 65.8907C29.5511 65.3967 29.6811 64.946 29.9411 64.5387C30.2097 64.1227 30.6127 63.7934 31.1501 63.5507C31.6961 63.2994 32.3851 63.1737 33.2171 63.1737C33.7631 63.1737 34.3047 63.243 34.8421 63.3817C35.3794 63.5204 35.8474 63.7197 36.2461 63.9797L35.7131 65.2927C35.3057 65.05 34.8854 64.8724 34.4521 64.7597C34.0187 64.6384 33.6027 64.5777 33.2041 64.5777C32.7361 64.5777 32.3547 64.634 32.0601 64.7467C31.7741 64.8594 31.5617 65.0067 31.4231 65.1887C31.2931 65.3707 31.2281 65.5787 31.2281 65.8127C31.2281 66.09 31.3234 66.3154 31.5141 66.4887C31.7134 66.6534 31.9691 66.7834 32.2811 66.8787C32.6017 66.974 32.9571 67.0694 33.3471 67.1647C33.7371 67.2514 34.1227 67.351 34.5041 67.4637C34.8941 67.5764 35.2451 67.7237 35.5571 67.9057C35.8777 68.0877 36.1334 68.3347 36.3241 68.6467C36.5234 68.9587 36.6231 69.353 36.6231 69.8297C36.6231 70.315 36.4887 70.7657 36.2201 71.1817C35.9601 71.589 35.5571 71.9184 35.0111 72.1697C34.4651 72.4124 33.7761 72.5337 32.9441 72.5337ZM41.3279 72.4947C40.5999 72.4947 39.9499 72.343 39.3779 72.0397C38.8145 71.7277 38.3725 71.303 38.0519 70.7657C37.7312 70.2284 37.5709 69.6174 37.5709 68.9327C37.5709 68.2394 37.7312 67.6284 38.0519 67.0997C38.3725 66.5624 38.8145 66.142 39.3779 65.8387C39.9499 65.5354 40.5999 65.3837 41.3279 65.3837C42.0039 65.3837 42.5975 65.5224 43.1089 65.7997C43.6289 66.0684 44.0232 66.467 44.2919 66.9957L43.0439 67.7237C42.8359 67.3944 42.5802 67.1517 42.2769 66.9957C41.9822 66.8397 41.6615 66.7617 41.3149 66.7617C40.9162 66.7617 40.5565 66.8484 40.2359 67.0217C39.9152 67.195 39.6639 67.4464 39.4819 67.7757C39.2999 68.0964 39.2089 68.482 39.2089 68.9327C39.2089 69.3834 39.2999 69.7734 39.4819 70.1027C39.6639 70.4234 39.9152 70.6704 40.2359 70.8437C40.5565 71.017 40.9162 71.1037 41.3149 71.1037C41.6615 71.1037 41.9822 71.0257 42.2769 70.8697C42.5802 70.7137 42.8359 70.471 43.0439 70.1417L44.2919 70.8697C44.0232 71.3897 43.6289 71.7927 43.1089 72.0787C42.5975 72.356 42.0039 72.4947 41.3279 72.4947ZM49.5721 65.3837C50.1268 65.3837 50.6208 65.492 51.0541 65.7087C51.4961 65.9254 51.8428 66.259 52.0941 66.7097C52.3454 67.1517 52.4711 67.7237 52.4711 68.4257V72.4037H50.8461V68.6337C50.8461 68.0184 50.6988 67.559 50.4041 67.2557C50.1181 66.9524 49.7151 66.8007 49.1951 66.8007C48.8138 66.8007 48.4758 66.8787 48.1811 67.0347C47.8864 67.1907 47.6568 67.4247 47.4921 67.7367C47.3361 68.04 47.2581 68.4257 47.2581 68.8937V72.4037H45.6331V62.7577H47.2581V67.3337L46.9071 66.7617C47.1498 66.3197 47.5008 65.9817 47.9601 65.7477C48.4281 65.505 48.9654 65.3837 49.5721 65.3837ZM57.8082 72.4947C57.0369 72.4947 56.3609 72.343 55.7802 72.0397C55.2082 71.7277 54.7619 71.303 54.4412 70.7657C54.1292 70.2284 53.9732 69.6174 53.9732 68.9327C53.9732 68.2394 54.1249 67.6284 54.4282 67.0997C54.7402 66.5624 55.1649 66.142 55.7022 65.8387C56.2482 65.5354 56.8679 65.3837 57.5612 65.3837C58.2372 65.3837 58.8395 65.531 59.3682 65.8257C59.8969 66.1204 60.3129 66.5364 60.6162 67.0737C60.9195 67.611 61.0712 68.2437 61.0712 68.9717C61.0712 69.041 61.0669 69.119 61.0582 69.2057C61.0582 69.2924 61.0539 69.3747 61.0452 69.4527H55.2602V68.3737H60.1872L59.5502 68.7117C59.5589 68.313 59.4765 67.962 59.3032 67.6587C59.1299 67.3554 58.8915 67.117 58.5882 66.9437C58.2935 66.7704 57.9512 66.6837 57.5612 66.6837C57.1625 66.6837 56.8115 66.7704 56.5082 66.9437C56.2135 67.117 55.9795 67.3597 55.8062 67.6717C55.6415 67.975 55.5592 68.3347 55.5592 68.7507V69.0107C55.5592 69.4267 55.6545 69.795 55.8452 70.1157C56.0359 70.4364 56.3045 70.6834 56.6512 70.8567C56.9979 71.03 57.3965 71.1167 57.8472 71.1167C58.2372 71.1167 58.5882 71.056 58.9002 70.9347C59.2122 70.8134 59.4895 70.6227 59.7322 70.3627L60.6032 71.3637C60.2912 71.7277 59.8969 72.0094 59.4202 72.2087C58.9522 72.3994 58.4149 72.4947 57.8082 72.4947ZM65.5701 72.4947C64.9028 72.4947 64.3004 72.3474 63.7631 72.0527C63.2344 71.7494 62.8184 71.3334 62.5151 70.8047C62.2118 70.276 62.0601 69.652 62.0601 68.9327C62.0601 68.2134 62.2118 67.5894 62.5151 67.0607C62.8184 66.532 63.2344 66.1204 63.7631 65.8257C64.3004 65.531 64.9028 65.3837 65.5701 65.3837C66.1508 65.3837 66.6708 65.5137 67.1301 65.7737C67.5894 66.025 67.9534 66.4107 68.2221 66.9307C68.4908 67.4507 68.6251 68.118 68.6251 68.9327C68.6251 69.7387 68.4951 70.406 68.2351 70.9347C67.9751 71.4547 67.6154 71.8447 67.1561 72.1047C66.6968 72.3647 66.1681 72.4947 65.5701 72.4947ZM65.7651 71.1037C66.1551 71.1037 66.5018 71.017 66.8051 70.8437C67.1171 70.6704 67.3641 70.419 67.5461 70.0897C67.7368 69.7604 67.8321 69.3747 67.8321 68.9327C67.8321 68.482 67.7368 68.0964 67.5461 67.7757C67.3641 67.4464 67.1171 67.195 66.8051 67.0217C66.5018 66.8484 66.1551 66.7617 65.7651 66.7617C65.3751 66.7617 65.0241 66.8484 64.7121 67.0217C64.4088 67.195 64.1618 67.4464 63.9711 67.7757C63.7891 68.0964 63.6981 68.482 63.6981 68.9327C63.6981 69.3747 63.7891 69.7604 63.9711 70.0897C64.1618 70.419 64.4088 70.6704 64.7121 70.8437C65.0241 71.017 65.3751 71.1037 65.7651 71.1037ZM67.8711 72.4037V70.7657L67.9361 68.9197L67.8061 67.0737V62.7577H69.4181V72.4037H67.8711ZM74.4949 72.4947C73.9056 72.4947 73.3856 72.3864 72.9349 72.1697C72.4842 71.9444 72.1332 71.6064 71.8819 71.1557C71.6306 70.6964 71.5049 70.12 71.5049 69.4267V65.4617H73.1299V69.2057C73.1299 69.8297 73.2686 70.2977 73.5459 70.6097C73.8319 70.913 74.2349 71.0647 74.7549 71.0647C75.1362 71.0647 75.4656 70.9867 75.7429 70.8307C76.0289 70.6747 76.2499 70.4407 76.4059 70.1287C76.5706 69.8167 76.6529 69.431 76.6529 68.9717V65.4617H78.2779V72.4037H76.7309V70.5317L77.0039 71.1037C76.7699 71.5544 76.4276 71.901 75.9769 72.1437C75.5262 72.3777 75.0322 72.4947 74.4949 72.4947ZM80.4055 72.4037V62.7577H82.0305V72.4037H80.4055ZM87.4264 72.4947C86.655 72.4947 85.979 72.343 85.3984 72.0397C84.8264 71.7277 84.38 71.303 84.0594 70.7657C83.7474 70.2284 83.5914 69.6174 83.5914 68.9327C83.5914 68.2394 83.743 67.6284 84.0464 67.0997C84.3584 66.5624 84.783 66.142 85.3204 65.8387C85.8664 65.5354 86.486 65.3837 87.1794 65.3837C87.8554 65.3837 88.4577 65.531 88.9864 65.8257C89.515 66.1204 89.931 66.5364 90.2344 67.0737C90.5377 67.611 90.6894 68.2437 90.6894 68.9717C90.6894 69.041 90.685 69.119 90.6764 69.2057C90.6764 69.2924 90.672 69.3747 90.6634 69.4527H84.8784V68.3737H89.8054L89.1684 68.7117C89.177 68.313 89.0947 67.962 88.9214 67.6587C88.748 67.3554 88.5097 67.117 88.2064 66.9437C87.9117 66.7704 87.5694 66.6837 87.1794 66.6837C86.7807 66.6837 86.4297 66.7704 86.1264 66.9437C85.8317 67.117 85.5977 67.3597 85.4244 67.6717C85.2597 67.975 85.1774 68.3347 85.1774 68.7507V69.0107C85.1774 69.4267 85.2727 69.795 85.4634 70.1157C85.654 70.4364 85.9227 70.6834 86.2694 70.8567C86.616 71.03 87.0147 71.1167 87.4654 71.1167C87.8554 71.1167 88.2064 71.056 88.5184 70.9347C88.8304 70.8134 89.1077 70.6227 89.3504 70.3627L90.2214 71.3637C89.9094 71.7277 89.515 72.0094 89.0384 72.2087C88.5704 72.3994 88.033 72.4947 87.4264 72.4947Z" fill="#1F2D3E"/>
<defs>
<clipPath id="clip0_299_9875">
<rect width="22.5384" height="22.5384" fill="white" transform="translate(49.187 19.2939)"/>
</clipPath>
</defs>
</svg>
