<svg width="121" height="93" viewBox="0 0 121 93" fill="none" xmlns="http://www.w3.org/2000/svg">
<rect x="3.91455" y="4.07104" width="113.476" height="85.352" rx="10.0196" fill="white"/>
<rect x="2.26519" y="2.42168" width="116.775" height="88.6507" rx="11.6689" stroke="#41AC7D" stroke-opacity="0.3" stroke-width="3.29872"/>
<rect x="41.8657" y="12.8381" width="37.5733" height="37.5733" rx="11.272" fill="#41AC7D"/>
<rect x="41.8657" y="12.8381" width="37.5733" height="37.5733" rx="11.272" stroke="white" stroke-width="2.50489"/>
<g clip-path="url(#clip0_299_9910)">
<path fill-rule="evenodd" clip-rule="evenodd" d="M60.4089 22.828L61.1693 24.8308C61.1922 24.8911 61.2454 24.9297 61.3097 24.9329L63.4495 25.0371C63.5165 25.0404 63.5717 25.0826 63.5924 25.1464C63.6131 25.2102 63.5933 25.2768 63.541 25.3189L61.8712 26.6609C61.8211 26.7012 61.8007 26.7638 61.8176 26.826L62.3796 28.8932C62.3972 28.9579 62.3742 29.0234 62.3199 29.0629C62.2656 29.1023 62.1962 29.104 62.14 29.0673L60.3476 27.8939C60.2937 27.8587 60.2279 27.8587 60.1741 27.8939L58.3817 29.0673C58.3256 29.104 58.2561 29.1023 58.2019 29.0629C58.1476 29.0234 58.1245 28.9579 58.1421 28.8932L58.7041 26.826C58.721 26.7638 58.7007 26.7012 58.6505 26.6609L56.9807 25.3189C56.9284 25.2768 56.9086 25.2102 56.9293 25.1464C56.95 25.0826 57.0053 25.0404 57.0723 25.0371L59.212 24.9329C59.2763 24.9297 59.3295 24.8911 59.3524 24.8308L60.1127 22.828C60.1366 22.7653 60.1937 22.7259 60.2608 22.7259C60.328 22.7259 60.3851 22.7653 60.4089 22.828ZM56.2649 22.198L57.6032 23.4031C57.7579 23.5423 57.9961 23.5297 58.1353 23.3751C58.2745 23.2204 58.2619 22.9822 58.1073 22.843L56.7689 21.6379C56.6143 21.4987 56.376 21.5112 56.2368 21.6659C56.0977 21.8205 56.1102 22.0588 56.2649 22.198ZM63.7527 21.6379L62.4066 22.85C62.2519 22.9892 62.2394 23.2274 62.3785 23.3821C62.5177 23.5367 62.756 23.5493 62.9106 23.4101L64.2568 22.198C64.4114 22.0588 64.424 21.8205 64.2848 21.6659C64.1456 21.5112 63.9074 21.4987 63.7527 21.6379ZM60.6382 21.3243C60.6382 21.5327 60.4692 21.7016 60.2608 21.7016C60.0525 21.7016 59.8835 21.5327 59.8835 21.3243V19.9396C59.8835 19.7312 60.0525 19.5623 60.2608 19.5623C60.4692 19.5623 60.6382 19.7312 60.6382 19.9396V21.3243ZM60.2608 30.2779C61.7229 30.2779 62.9082 31.4632 62.9082 32.9252C62.9082 34.3873 61.7229 35.5725 60.2608 35.5725C58.7988 35.5725 57.6136 34.3873 57.6136 32.9252C57.6136 31.4631 58.7988 30.2779 60.2608 30.2779ZM65.4665 40.7166C65.1854 38.0899 62.9621 36.0442 60.2608 36.0442C57.5595 36.0442 55.3362 38.0899 55.0551 40.7167V41.7749C55.0551 42.5456 55.6837 43.1742 56.4544 43.1742H64.0673C64.8379 43.1742 65.4665 42.5456 65.4665 41.7749V40.7166ZM68.1726 32.2004C69.2664 32.2004 70.1531 33.0871 70.1531 34.1809C70.1531 35.2747 69.2664 36.1614 68.1726 36.1614C67.0788 36.1614 66.1921 35.2747 66.1921 34.1809C66.1921 33.0871 67.0788 32.2004 68.1726 32.2004ZM52.3491 32.2004C53.4429 32.2004 54.3295 33.0871 54.3295 34.1809C54.3295 35.2747 53.4429 36.1614 52.3491 36.1614C51.2553 36.1614 50.3686 35.2747 50.3686 34.1809C50.3686 33.0871 51.2553 32.2004 52.3491 32.2004ZM52.349 36.6904C53.5032 36.6904 54.5408 37.1896 55.2577 37.9838C54.7518 38.7499 54.4163 39.6414 54.3082 40.6076H49.4618C49.1681 40.6076 48.9154 40.4799 48.7411 40.2435C48.5669 40.0071 48.5197 39.728 48.6065 39.4474C49.1011 37.8504 50.5896 36.6904 52.349 36.6904ZM68.1726 36.6904C69.9321 36.6904 71.4206 37.8504 71.9151 39.4474C72.0019 39.728 71.9547 40.0071 71.7804 40.2435C71.6062 40.4799 71.3535 40.6076 71.0598 40.6076H66.2134C66.1053 39.6414 65.7698 38.7499 65.2639 37.9838C65.9808 37.1896 67.0184 36.6904 68.1726 36.6904ZM52.0517 22.828L52.8121 24.8308C52.8349 24.8911 52.8881 24.9297 52.9525 24.9329L55.0922 25.0371C55.1592 25.0404 55.2144 25.0826 55.2352 25.1464C55.2559 25.2102 55.2361 25.2768 55.1838 25.3189L53.514 26.6609C53.4638 26.7012 53.4435 26.7638 53.4604 26.826L54.0224 28.8932C54.04 28.9579 54.0169 29.0234 53.9626 29.0629C53.9083 29.1023 53.8389 29.104 53.7827 29.0673L51.9903 27.8939C51.9365 27.8587 51.8707 27.8587 51.8168 27.8939L50.0245 29.0673C49.9683 29.104 49.8989 29.1023 49.8446 29.0629C49.7903 29.0234 49.7673 28.9579 49.7849 28.8932L50.3469 26.826C50.3638 26.7638 50.3434 26.7012 50.2932 26.6609L48.6235 25.3188C48.5712 25.2768 48.5513 25.2102 48.5721 25.1464C48.5928 25.0826 48.648 25.0404 48.715 25.0371L50.8547 24.9328C50.9191 24.9297 50.9723 24.891 50.9951 24.8308L51.7555 22.828C51.7794 22.7653 51.8365 22.7259 51.9036 22.7259C51.9707 22.7259 52.0279 22.7653 52.0517 22.828ZM68.7412 22.828L69.5016 24.8308C69.5245 24.8911 69.5777 24.9297 69.642 24.9329L71.7817 25.0371C71.8487 25.0404 71.9039 25.0826 71.9247 25.1464C71.9454 25.2102 71.9256 25.2768 71.8733 25.3189L70.2035 26.6609C70.1533 26.7012 70.133 26.7638 70.1499 26.826L70.7119 28.8932C70.7295 28.9579 70.7064 29.0234 70.6522 29.0629C70.5979 29.1023 70.5285 29.104 70.4723 29.0673L68.6799 27.8939C68.626 27.8587 68.5602 27.8587 68.5064 27.8939L66.714 29.0673C66.6579 29.104 66.5884 29.1023 66.5341 29.0629C66.4798 29.0234 66.4568 28.9579 66.4744 28.8932L67.0364 26.826C67.0533 26.7638 67.0329 26.7012 66.9828 26.6609L65.313 25.3189C65.2607 25.2768 65.2408 25.2102 65.2616 25.1464C65.2823 25.0826 65.3375 25.0404 65.4045 25.0371L67.5443 24.9329C67.6086 24.9297 67.6618 24.8911 67.6846 24.8308L68.445 22.828C68.4688 22.7653 68.526 22.7259 68.5931 22.7259C68.6602 22.7259 68.7174 22.7653 68.7412 22.828Z" fill="white"/>
</g>
<path d="M21.6038 72.4036V64.7336H18.5878V63.3036H26.3098V64.7336H23.2938V72.4036H21.6038ZM29.9742 72.4946C29.2029 72.4946 28.5269 72.3429 27.9462 72.0396C27.3742 71.7276 26.9279 71.3029 26.6072 70.7656C26.2952 70.2282 26.1392 69.6172 26.1392 68.9326C26.1392 68.2392 26.2909 67.6282 26.5942 67.0996C26.9062 66.5622 27.3309 66.1419 27.8682 65.8386C28.4142 65.5352 29.0339 65.3836 29.7272 65.3836C30.4032 65.3836 31.0055 65.5309 31.5342 65.8256C32.0629 66.1202 32.4789 66.5362 32.7822 67.0736C33.0855 67.6109 33.2372 68.2436 33.2372 68.9716C33.2372 69.0409 33.2329 69.1189 33.2242 69.2056C33.2242 69.2922 33.2199 69.3746 33.2112 69.4526H27.4262V68.3736H32.3532L31.7162 68.7116C31.7249 68.3129 31.6425 67.9619 31.4692 67.6586C31.2959 67.3552 31.0575 67.1169 30.7542 66.9436C30.4595 66.7702 30.1172 66.6836 29.7272 66.6836C29.3285 66.6836 28.9775 66.7702 28.6742 66.9436C28.3795 67.1169 28.1455 67.3596 27.9722 67.6716C27.8075 67.9749 27.7252 68.3346 27.7252 68.7506V69.0106C27.7252 69.4266 27.8205 69.7949 28.0112 70.1156C28.2019 70.4362 28.4705 70.6832 28.8172 70.8566C29.1639 71.0299 29.5625 71.1166 30.0132 71.1166C30.4032 71.1166 30.7542 71.0559 31.0662 70.9346C31.3782 70.8132 31.6555 70.6226 31.8982 70.3626L32.7692 71.3636C32.4572 71.7276 32.0629 72.0092 31.5862 72.2086C31.1182 72.3992 30.5809 72.4946 29.9742 72.4946ZM36.9431 72.4946C36.3625 72.4946 35.8035 72.4209 35.2661 72.2736C34.7375 72.1176 34.3171 71.9312 34.0051 71.7146L34.6291 70.4796C34.9411 70.6789 35.3138 70.8436 35.7471 70.9736C36.1805 71.1036 36.6138 71.1686 37.0471 71.1686C37.5585 71.1686 37.9268 71.0992 38.1521 70.9606C38.3861 70.8219 38.5031 70.6356 38.5031 70.4016C38.5031 70.2109 38.4251 70.0679 38.2691 69.9726C38.1131 69.8686 37.9095 69.7906 37.6581 69.7386C37.4068 69.6866 37.1251 69.6389 36.8131 69.5956C36.5098 69.5522 36.2021 69.4959 35.8901 69.4266C35.5868 69.3486 35.3095 69.2402 35.0581 69.1016C34.8068 68.9542 34.6031 68.7592 34.4471 68.5166C34.2911 68.2739 34.2131 67.9532 34.2131 67.5546C34.2131 67.1126 34.3388 66.7312 34.5901 66.4106C34.8415 66.0812 35.1925 65.8299 35.6431 65.6566C36.1025 65.4746 36.6441 65.3836 37.2681 65.3836C37.7361 65.3836 38.2085 65.4356 38.6851 65.5396C39.1618 65.6436 39.5561 65.7909 39.8681 65.9816L39.2441 67.2166C38.9148 67.0172 38.5811 66.8829 38.2431 66.8136C37.9138 66.7356 37.5845 66.6966 37.2551 66.6966C36.7611 66.6966 36.3928 66.7702 36.1501 66.9176C35.9161 67.0649 35.7991 67.2512 35.7991 67.4766C35.7991 67.6846 35.8771 67.8406 36.0331 67.9446C36.1891 68.0486 36.3928 68.1309 36.6441 68.1916C36.8955 68.2522 37.1728 68.3042 37.4761 68.3476C37.7881 68.3822 38.0958 68.4386 38.3991 68.5166C38.7025 68.5946 38.9798 68.7029 39.2311 68.8416C39.4911 68.9716 39.6991 69.1579 39.8551 69.4006C40.0111 69.6432 40.0891 69.9596 40.0891 70.3496C40.0891 70.7829 39.9591 71.1599 39.6991 71.4806C39.4478 71.8012 39.0881 72.0526 38.6201 72.2346C38.1521 72.4079 37.5931 72.4946 36.9431 72.4946ZM44.1016 72.4946C43.3389 72.4946 42.7496 72.2996 42.3336 71.9096C41.9176 71.5109 41.7096 70.9259 41.7096 70.1546V63.9276H43.3346V70.1156C43.3346 70.4449 43.4169 70.7006 43.5816 70.8826C43.7549 71.0646 43.9932 71.1556 44.2966 71.1556C44.6606 71.1556 44.9639 71.0602 45.2066 70.8696L45.6616 72.0266C45.4709 72.1826 45.2369 72.2996 44.9596 72.3776C44.6822 72.4556 44.3962 72.4946 44.1016 72.4946ZM40.5656 66.8136V65.5136H45.1936V66.8136H40.5656ZM46.9983 72.4036V65.4616H48.6233V72.4036H46.9983ZM47.8173 64.3176C47.514 64.3176 47.2627 64.2222 47.0633 64.0316C46.8727 63.8409 46.7773 63.6112 46.7773 63.3426C46.7773 63.0652 46.8727 62.8356 47.0633 62.6536C47.2627 62.4629 47.514 62.3676 47.8173 62.3676C48.1207 62.3676 48.3677 62.4586 48.5583 62.6406C48.7577 62.8139 48.8573 63.0349 48.8573 63.3036C48.8573 63.5896 48.762 63.8322 48.5713 64.0316C48.3807 64.2222 48.1293 64.3176 47.8173 64.3176ZM59.5181 65.3836C60.0728 65.3836 60.5625 65.4919 60.9871 65.7086C61.4205 65.9252 61.7585 66.2589 62.0011 66.7096C62.2438 67.1516 62.3651 67.7236 62.3651 68.4256V72.4036H60.7401V68.6336C60.7401 68.0182 60.6058 67.5589 60.3371 67.2556C60.0685 66.9522 59.6828 66.8006 59.1801 66.8006C58.8248 66.8006 58.5085 66.8786 58.2311 67.0346C57.9625 67.1906 57.7501 67.4202 57.5941 67.7236C57.4468 68.0269 57.3731 68.4126 57.3731 68.8806V72.4036H55.7481V68.6336C55.7481 68.0182 55.6138 67.5589 55.3451 67.2556C55.0765 66.9522 54.6908 66.8006 54.1881 66.8006C53.8328 66.8006 53.5165 66.8786 53.2391 67.0346C52.9705 67.1906 52.7581 67.4202 52.6021 67.7236C52.4548 68.0269 52.3811 68.4126 52.3811 68.8806V72.4036H50.7561V65.4616H52.3031V67.3076L52.0301 66.7616C52.2641 66.3109 52.6021 65.9686 53.0441 65.7346C53.4948 65.5006 54.0061 65.3836 54.5781 65.3836C55.2281 65.3836 55.7915 65.5439 56.2681 65.8646C56.7535 66.1852 57.0741 66.6706 57.2301 67.3206L56.5931 67.0996C56.8185 66.5796 57.1911 66.1636 57.7111 65.8516C58.2311 65.5396 58.8335 65.3836 59.5181 65.3836ZM67.5744 72.4946C66.8637 72.4946 66.231 72.3429 65.6764 72.0396C65.1217 71.7276 64.684 71.3029 64.3634 70.7656C64.0427 70.2282 63.8824 69.6172 63.8824 68.9326C63.8824 68.2392 64.0427 67.6282 64.3634 67.0996C64.684 66.5622 65.1217 66.1419 65.6764 65.8386C66.231 65.5352 66.8637 65.3836 67.5744 65.3836C68.2937 65.3836 68.9307 65.5352 69.4854 65.8386C70.0487 66.1419 70.4864 66.5579 70.7984 67.0866C71.119 67.6152 71.2794 68.2306 71.2794 68.9326C71.2794 69.6172 71.119 70.2282 70.7984 70.7656C70.4864 71.3029 70.0487 71.7276 69.4854 72.0396C68.9307 72.3429 68.2937 72.4946 67.5744 72.4946ZM67.5744 71.1036C67.973 71.1036 68.3284 71.0169 68.6404 70.8436C68.9524 70.6702 69.195 70.4189 69.3684 70.0896C69.5504 69.7602 69.6414 69.3746 69.6414 68.9326C69.6414 68.4819 69.5504 68.0962 69.3684 67.7756C69.195 67.4462 68.9524 67.1949 68.6404 67.0216C68.3284 66.8482 67.9774 66.7616 67.5874 66.7616C67.1887 66.7616 66.8334 66.8482 66.5214 67.0216C66.218 67.1949 65.9754 67.4462 65.7934 67.7756C65.6114 68.0962 65.5204 68.4819 65.5204 68.9326C65.5204 69.3746 65.6114 69.7602 65.7934 70.0896C65.9754 70.4189 66.218 70.6702 66.5214 70.8436C66.8334 71.0169 67.1844 71.1036 67.5744 71.1036ZM76.7723 65.3836C77.3269 65.3836 77.8209 65.4919 78.2543 65.7086C78.6963 65.9252 79.0429 66.2589 79.2943 66.7096C79.5456 67.1516 79.6713 67.7236 79.6713 68.4256V72.4036H78.0463V68.6336C78.0463 68.0182 77.8989 67.5589 77.6043 67.2556C77.3183 66.9522 76.9153 66.8006 76.3953 66.8006C76.0139 66.8006 75.6759 66.8786 75.3813 67.0346C75.0866 67.1906 74.8569 67.4246 74.6923 67.7366C74.5363 68.0399 74.4583 68.4256 74.4583 68.8936V72.4036H72.8333V65.4616H74.3803V67.3336L74.1073 66.7616C74.3499 66.3196 74.7009 65.9816 75.1603 65.7476C75.6283 65.5049 76.1656 65.3836 76.7723 65.3836ZM81.7327 72.4036V65.4616H83.3577V72.4036H81.7327ZM82.5517 64.3176C82.2484 64.3176 81.997 64.2222 81.7977 64.0316C81.607 63.8409 81.5117 63.6112 81.5117 63.3426C81.5117 63.0652 81.607 62.8356 81.7977 62.6536C81.997 62.4629 82.2484 62.3676 82.5517 62.3676C82.855 62.3676 83.102 62.4586 83.2927 62.6406C83.492 62.8139 83.5917 63.0349 83.5917 63.3036C83.5917 63.5896 83.4964 63.8322 83.3057 64.0316C83.115 64.2222 82.8637 64.3176 82.5517 64.3176ZM89.7675 72.4036V70.9996L89.6765 70.7006V68.2436C89.6765 67.7669 89.5335 67.3986 89.2475 67.1386C88.9615 66.8699 88.5282 66.7356 87.9475 66.7356C87.5575 66.7356 87.1718 66.7962 86.7905 66.9176C86.4178 67.0389 86.1015 67.2079 85.8415 67.4246L85.2045 66.2416C85.5772 65.9556 86.0192 65.7432 86.5305 65.6046C87.0505 65.4572 87.5878 65.3836 88.1425 65.3836C89.1478 65.3836 89.9235 65.6262 90.4695 66.1116C91.0242 66.5882 91.3015 67.3292 91.3015 68.3346V72.4036H89.7675ZM87.5835 72.4946C87.0635 72.4946 86.6085 72.4079 86.2185 72.2346C85.8285 72.0526 85.5252 71.8056 85.3085 71.4936C85.1005 71.1729 84.9965 70.8132 84.9965 70.4146C84.9965 70.0246 85.0875 69.6736 85.2695 69.3616C85.4602 69.0496 85.7678 68.8026 86.1925 68.6206C86.6172 68.4386 87.1805 68.3476 87.8825 68.3476H89.8975V69.4266H87.9995C87.4448 69.4266 87.0722 69.5176 86.8815 69.6996C86.6908 69.8729 86.5955 70.0896 86.5955 70.3496C86.5955 70.6442 86.7125 70.8782 86.9465 71.0516C87.1805 71.2249 87.5055 71.3116 87.9215 71.3116C88.3202 71.3116 88.6755 71.2206 88.9875 71.0386C89.3082 70.8566 89.5378 70.5879 89.6765 70.2326L89.9495 71.2076C89.7935 71.6149 89.5118 71.9312 89.1045 72.1566C88.7058 72.3819 88.1988 72.4946 87.5835 72.4946ZM93.387 72.4036V62.7576H95.012V72.4036H93.387ZM99.2898 72.4946C98.7091 72.4946 98.1501 72.4209 97.6128 72.2736C97.0841 72.1176 96.6638 71.9312 96.3518 71.7146L96.9758 70.4796C97.2878 70.6789 97.6605 70.8436 98.0938 70.9736C98.5271 71.1036 98.9605 71.1686 99.3938 71.1686C99.9051 71.1686 100.273 71.0992 100.499 70.9606C100.733 70.8219 100.85 70.6356 100.85 70.4016C100.85 70.2109 100.772 70.0679 100.616 69.9726C100.46 69.8686 100.256 69.7906 100.005 69.7386C99.7535 69.6866 99.4718 69.6389 99.1598 69.5956C98.8565 69.5522 98.5488 69.4959 98.2368 69.4266C97.9335 69.3486 97.6561 69.2402 97.4048 69.1016C97.1535 68.9542 96.9498 68.7592 96.7938 68.5166C96.6378 68.2739 96.5598 67.9532 96.5598 67.5546C96.5598 67.1126 96.6855 66.7312 96.9368 66.4106C97.1881 66.0812 97.5391 65.8299 97.9898 65.6566C98.4491 65.4746 98.9908 65.3836 99.6148 65.3836C100.083 65.3836 100.555 65.4356 101.032 65.5396C101.508 65.6436 101.903 65.7909 102.215 65.9816L101.591 67.2166C101.261 67.0172 100.928 66.8829 100.59 66.8136C100.26 66.7356 99.9311 66.6966 99.6018 66.6966C99.1078 66.6966 98.7395 66.7702 98.4968 66.9176C98.2628 67.0649 98.1458 67.2512 98.1458 67.4766C98.1458 67.6846 98.2238 67.8406 98.3798 67.9446C98.5358 68.0486 98.7395 68.1309 98.9908 68.1916C99.2421 68.2522 99.5195 68.3042 99.8228 68.3476C100.135 68.3822 100.442 68.4386 100.746 68.5166C101.049 68.5946 101.326 68.7029 101.578 68.8416C101.838 68.9716 102.046 69.1579 102.202 69.4006C102.358 69.6432 102.436 69.9596 102.436 70.3496C102.436 70.7829 102.306 71.1599 102.046 71.4806C101.794 71.8012 101.435 72.0526 100.967 72.2346C100.499 72.4079 99.9398 72.4946 99.2898 72.4946Z" fill="#1F2D3E"/>
<defs>
<clipPath id="clip0_299_9910">
<rect width="24.1483" height="24.1483" fill="white" transform="translate(48.186 19.2938)"/>
</clipPath>
</defs>
</svg>
