<svg width="13" height="13" viewBox="0 0 13 13" fill="none" xmlns="http://www.w3.org/2000/svg">
<path d="M5.07578 8.92152C5.00518 8.7795 3.91712 6.60321 2.80376 6.32941C2.42845 6.24509 2.12787 6.31949 2.12787 6.31949C1.71453 6.43953 1.4133 6.79764 1.29574 7.11029C1.06047 7.80651 1.42223 8.33723 1.77571 8.83456C2.48268 9.82921 3.16882 10.8113 3.87579 11.8059C4.11701 12.1361 4.36237 12.483 4.75007 12.6174C5.25451 12.7938 5.83086 12.5448 6.17393 12.1409C6.5337 11.7329 6.70598 11.2117 6.88239 10.7073C6.98737 10.4155 7.09236 10.1237 7.19735 9.83185C7.55844 8.85638 7.95706 7.88934 8.37651 6.93486C8.79596 5.98039 9.23624 5.03848 9.71406 4.105C10.1919 3.17153 10.6738 2.25475 11.21 1.34227C11.3482 1.11312 11.4697 0.888097 11.608 0.658944C11.6331 0.61728 11.8047 0.37986 11.7756 0.333897C11.7465 0.287934 11.5167 0.433428 11.4666 0.445828C11.0405 0.657622 10.631 0.93621 10.2631 1.23993C9.51483 1.8682 8.90392 2.62196 8.31797 3.40498C7.0831 5.14611 5.99818 6.99191 5.07578 8.92152Z" fill="#1A2439"/>
</svg>
