<svg width="32" height="32" viewBox="0 0 32 32" fill="none" xmlns="http://www.w3.org/2000/svg">
<g clip-path="url(#clip0_299_10166)">
<path d="M15.9997 0C7.65928 0 0.910645 6.74983 0.910645 15.089C0.910645 18.4891 2.06338 21.7938 4.16648 24.4506L2.15738 32L9.92634 28.905C11.8432 29.7499 13.8843 30.1781 15.9997 30.1781C24.3401 30.1781 31.0887 23.4284 31.0887 15.089C31.0887 6.74863 24.3389 0 15.9997 0ZM10.3413 12.2598H7.51209V14.146H9.39822V16.0321H7.51209V17.9182H10.3413V19.8044H5.62597V10.3737H10.3413V12.2598ZM17.8858 19.8044H16.0336L14.1135 15.2421V19.8044H12.2274V10.3737H14.1111L15.9997 14.8613V10.3737H17.8858V19.8044ZM26.3734 12.2598H23.0727C22.2927 12.2598 21.6581 12.8945 21.6581 13.6744V16.5036C21.6581 17.2837 22.2927 17.9182 23.0727 17.9182H24.4873V16.0321H23.5442V14.146H26.3734V19.8044H23.0727C21.2527 19.8044 19.7719 18.3236 19.7719 16.5036V13.6744C19.7719 11.8544 21.2527 10.3737 23.0727 10.3737H26.3734V12.2598Z" fill="#1A2439"/>
</g>
<defs>
<clipPath id="clip0_299_10166">
<rect width="32" height="32" fill="white"/>
</clipPath>
</defs>
</svg>
