<svg width="29" height="29" viewBox="0 0 29 29" fill="none" xmlns="http://www.w3.org/2000/svg">
<path d="M8.55514 1.5979H5.07514V6.03925H0.633789V9.51925H5.07514V13.9606H8.55514V9.51925H12.9965V6.03925H8.55514V1.5979Z" fill="#1A2439"/>
<path d="M9.95543 16.678L6.81473 19.8187L3.67403 16.678L1.21338 19.1386L4.35408 22.2793L1.21338 25.4197L3.67403 27.8807L6.81473 24.74L9.95543 27.8807L12.4161 25.4197L9.27538 22.2793L12.4161 19.1386L9.95543 16.678Z" fill="#1A2439"/>
<path d="M16.2935 19.7202H28.6564V23.2002H16.2935V19.7202Z" fill="#1A2439"/>
<path d="M24.2149 16.385C24.2149 15.424 23.436 14.645 22.4749 14.645C20.1715 14.7245 20.1721 18.0458 22.4749 18.125C23.436 18.125 24.2149 17.3461 24.2149 16.385Z" fill="#1A2439"/>
<path d="M22.4749 24.7952C21.5138 24.7952 20.7349 25.5741 20.7349 26.5352C20.8143 28.8386 24.1357 28.8381 24.2149 26.5352C24.2149 25.5741 23.4359 24.7952 22.4749 24.7952Z" fill="#1A2439"/>
<path d="M16.2935 6.01538H28.6564V9.49538H16.2935V6.01538Z" fill="#1A2439"/>
</svg>
