<svg width="33" height="33" viewBox="0 0 33 33" fill="none" xmlns="http://www.w3.org/2000/svg">
<g clip-path="url(#clip0_299_10122)">
<path d="M18.1191 5.84042C19.195 5.84042 20.0672 4.96819 20.0672 3.89225C20.0672 2.81631 19.195 1.94409 18.1191 1.94409C17.0431 1.94409 16.1709 2.81631 16.1709 3.89225C16.1709 4.96819 17.0431 5.84042 18.1191 5.84042Z" fill="#1A2439"/>
<path d="M22.0158 3.11754C22.8767 3.11754 23.5746 2.41966 23.5746 1.55877C23.5746 0.697886 22.8767 0 22.0158 0C21.1549 0 20.457 0.697886 20.457 1.55877C20.457 2.41966 21.1549 3.11754 22.0158 3.11754Z" fill="#1A2439"/>
<path d="M28.5628 26.5943L20.4573 13.6341V9.74195H22.7954V7.0144H9.54649V9.74195H11.8847V13.6341L3.77916 26.5943C3.48199 27.1452 3.31201 27.7751 3.31201 28.446C3.31201 30.5979 5.05644 32.3429 7.20894 32.3429H25.1336C27.2855 32.3429 29.0305 30.5985 29.0305 28.446C29.0305 27.7751 28.8606 27.1452 28.5628 26.5943ZM9.98411 21.8167L14.6122 14.4165V9.74135H17.7297V14.4165L22.3578 21.8167H9.98411Z" fill="#1A2439"/>
</g>
<defs>
<clipPath id="clip0_299_10122">
<rect width="32.343" height="32.343" fill="white"/>
</clipPath>
</defs>
</svg>
