<svg width="22" height="22" viewBox="0 0 22 22" fill="none" xmlns="http://www.w3.org/2000/svg">
<g clip-path="url(#clip0_299_10003)">
<path d="M20.4787 8.84344C20.1963 8.65383 19.9412 8.42641 19.7207 8.16744C19.737 7.80689 19.8095 7.4511 19.9355 7.11292C20.1723 6.31131 20.4672 5.31366 19.8988 4.53301C19.3264 3.74616 18.2806 3.71974 17.4404 3.69827C17.087 3.71238 16.7334 3.67438 16.3911 3.58546C16.2028 3.29019 16.0591 2.96883 15.9645 2.63166C15.6842 1.83329 15.335 0.839618 14.3997 0.535687C13.4922 0.240742 12.6778 0.801112 11.9597 1.29389C11.6711 1.52431 11.3471 1.70644 11.0003 1.83326C10.6532 1.70659 10.3291 1.52442 10.0404 1.29389C9.32228 0.800679 8.50764 0.242078 7.60036 0.535687C6.66536 0.839618 6.31625 1.83279 6.0356 2.63134C5.94119 2.96681 5.79904 3.28698 5.61351 3.58199C5.27007 3.67362 4.91475 3.7127 4.55961 3.69794C3.71949 3.71938 2.6737 3.74583 2.10124 4.53265C1.5329 5.31373 1.82777 6.31138 2.06458 7.11307C2.18908 7.44948 2.26219 7.8027 2.28143 8.16091C2.06187 8.42352 1.80586 8.6534 1.5212 8.84347C0.843333 9.36043 0 10.004 0 10.9999C0 11.9958 0.843333 12.6394 1.52135 13.1564C1.80374 13.346 2.0588 13.5735 2.27934 13.8324C2.26295 14.193 2.19049 14.5487 2.06451 14.8869C1.82773 15.6886 1.53282 16.6863 2.10117 17.4668C2.67363 18.2537 3.71941 18.2801 4.55957 18.3016C4.91302 18.2875 5.26657 18.3255 5.60893 18.4144C5.79716 18.7097 5.9409 19.0311 6.03549 19.3682C6.31614 20.1667 6.66525 21.1603 7.60047 21.4643C7.76614 21.5186 7.93944 21.5463 8.11381 21.5462C8.81767 21.5462 9.46039 21.1044 10.0405 20.7061C10.3291 20.4756 10.6531 20.2934 11 20.1666C11.347 20.2933 11.6712 20.4754 11.9599 20.706C12.678 21.1992 13.4924 21.7573 14.3999 21.4642C15.3349 21.1602 15.684 20.1671 15.9647 19.3685C16.0591 19.0331 16.2012 18.7129 16.3867 18.4179C16.7302 18.3262 17.0855 18.2872 17.4406 18.3019C18.2808 18.2805 19.3265 18.254 19.899 17.4672C20.4674 16.6862 20.1725 15.6884 19.9357 14.8868C19.8112 14.5504 19.7381 14.1972 19.7188 13.8389C19.9384 13.5763 20.1944 13.3465 20.479 13.1564C21.1566 12.6394 22 11.9958 22 10.9999C22 10.004 21.1567 9.36043 20.4787 8.84344ZM15.0856 9.35639L10.5023 13.9397C10.1444 14.2977 9.56418 14.2978 9.20622 13.9399C9.20615 13.9398 9.20608 13.9398 9.20601 13.9397L6.91433 11.648C6.55183 11.2946 6.54447 10.7143 6.89787 10.3518C7.25128 9.98926 7.83164 9.9819 8.19415 10.3353C8.1997 10.3407 8.20519 10.3462 8.2106 10.3518L9.85414 11.9953L13.7894 8.06008C14.1428 7.69758 14.7231 7.69025 15.0856 8.04366C15.4481 8.39707 15.4555 8.97743 15.1021 9.33993C15.0966 9.34552 15.0912 9.35097 15.0856 9.35639Z" fill="#0595CE"/>
</g>
<defs>
<clipPath id="clip0_299_10003">
<rect width="22" height="22" fill="white"/>
</clipPath>
</defs>
</svg>
