<svg width="672" height="389" viewBox="0 0 672 389" fill="none" xmlns="http://www.w3.org/2000/svg">
<path d="M672 379.946C672 379.946 651.323 388.992 620.308 388.992C589.292 388.992 82.7077 388.992 51.6923 388.992C20.6769 388.992 0 379.946 0 379.946L336 377.361L672 379.946Z" fill="url(#paint0_linear_248_3506)"/>
<path d="M608.677 367.023H63.323V12.9309C63.323 5.79347 69.1087 0.0078125 76.2461 0.0078125H595.754C602.891 0.0078125 608.677 5.79347 608.677 12.9309V367.023Z" fill="url(#paint1_linear_248_3506)"/>
<path d="M65.2615 367.023V12.9307C65.2615 6.87361 70.189 1.94604 76.2461 1.94604H595.754C601.811 1.94604 606.738 6.87361 606.738 12.9307V367.023H65.2615Z" fill="black"/>
<path d="M672 367.023H0V379.946H672V367.023Z" fill="url(#paint2_linear_248_3506)"/>
<path d="M381.231 376.069H290.769C285.773 376.069 281.723 372.019 281.723 367.023H390.277C390.277 372.019 386.227 376.069 381.231 376.069Z" fill="url(#paint3_linear_248_3506)"/>
<path d="M606.738 355.392H65.2615" stroke="black" stroke-width="0.646154" stroke-miterlimit="10"/>
<path d="M302.4 3.88452L67.2 273.977V12.9307C67.2 7.94237 71.2578 3.88452 76.2461 3.88452H302.4Z" fill="url(#paint4_linear_248_3506)"/>
<path d="M593.169 25.8538H78.8308V346.346H593.169V25.8538Z" fill="white"/>
<path d="M336 18.1C338.141 18.1 339.877 16.3643 339.877 14.2231C339.877 12.0819 338.141 10.3462 336 10.3462C333.859 10.3462 332.123 12.0819 332.123 14.2231C332.123 16.3643 333.859 18.1 336 18.1Z" fill="#232323"/>
<defs>
<linearGradient id="paint0_linear_248_3506" x1="336" y1="379.963" x2="336" y2="389.221" gradientUnits="userSpaceOnUse">
<stop offset="0.3564" stop-color="#808185"/>
<stop offset="0.5045" stop-color="#78797D"/>
<stop offset="0.5443" stop-color="#7A7B7F"/>
<stop offset="1" stop-color="#0D0C11"/>
</linearGradient>
<linearGradient id="paint1_linear_248_3506" x1="336" y1="0.0078125" x2="336" y2="375.037" gradientUnits="userSpaceOnUse">
<stop offset="0.000159439" stop-color="#363636"/>
<stop offset="0.0092" stop-color="#3A3A3A"/>
<stop offset="0.0982" stop-color="#404040"/>
<stop offset="0.1199" stop-color="#7D7D7D"/>
<stop offset="0.1519" stop-color="#404040"/>
<stop offset="0.2384" stop-color="#383838"/>
<stop offset="0.4063" stop-color="#404040"/>
<stop offset="0.4336" stop-color="#797979"/>
<stop offset="0.4621" stop-color="#404040"/>
<stop offset="0.5727" stop-color="#404040"/>
<stop offset="0.5998" stop-color="#626262"/>
<stop offset="0.6294" stop-color="#404040"/>
<stop offset="0.6916" stop-color="#404040"/>
<stop offset="0.7905" stop-color="#3D3D3D"/>
<stop offset="0.9015" stop-color="#404040"/>
<stop offset="0.9334" stop-color="#7E7E7E"/>
<stop offset="0.9577" stop-color="#474747"/>
</linearGradient>
<linearGradient id="paint2_linear_248_3506" x1="0" y1="373.484" x2="672" y2="373.484" gradientUnits="userSpaceOnUse">
<stop stop-color="#49484D"/>
<stop offset="0.0121" stop-color="#D3D4D9"/>
<stop offset="0.0282" stop-color="#D0D1D6"/>
<stop offset="0.0804" stop-color="#8C8D92"/>
<stop offset="0.0918" stop-color="#85868B"/>
<stop offset="0.5113" stop-color="#CBCCD2"/>
<stop offset="0.9264" stop-color="#85868B"/>
<stop offset="0.937" stop-color="#8B8C91"/>
<stop offset="0.979" stop-color="#D0D1D6"/>
<stop offset="0.994" stop-color="#D3D4D9"/>
<stop offset="1" stop-color="#454449"/>
</linearGradient>
<linearGradient id="paint3_linear_248_3506" x1="281.723" y1="371.546" x2="390.277" y2="371.546" gradientUnits="userSpaceOnUse">
<stop stop-color="#161617"/>
<stop offset="0.0581" stop-color="#84848A"/>
<stop offset="0.3011" stop-color="#8F8F96"/>
<stop offset="0.524" stop-color="#ADADB5"/>
<stop offset="0.7161" stop-color="#8A8B91"/>
<stop offset="0.9495" stop-color="#7B7C81"/>
<stop offset="1" stop-color="#0D0C11"/>
</linearGradient>
<linearGradient id="paint4_linear_248_3506" x1="56.3306" y1="10.4613" x2="174.019" y2="128.15" gradientUnits="userSpaceOnUse">
<stop offset="0.000478316" stop-color="#9E9E9E"/>
<stop offset="1" stop-color="#1D1D1B"/>
</linearGradient>
</defs>
</svg>
